<svg width="39" height="20" viewBox="0 0 39 20" fill="none" xmlns="http://www.w3.org/2000/svg">
<path d="M7.4627 3.91415L7.6187 4.76615H7.5947C6.6747 4.34215 5.8907 4.13015 5.2427 4.13015H4.9667V12.6501H3.7427V4.13015H3.4547C2.8067 4.13015 2.0227 4.34215 1.1027 4.76615H1.0787L1.2467 3.91415H7.4627ZM9.56955 5.13815L8.75355 4.32215L9.56955 3.50615L10.3855 4.32215L9.56955 5.13815ZM9.00555 12.6501V6.47015L10.0855 6.14615H10.1335V12.6501H9.00555ZM11.7397 12.2181L11.9197 11.6061C12.5037 12.2861 13.2397 12.6261 14.1277 12.6261C14.5997 12.6261 14.9757 12.5141 15.2557 12.2901C15.5437 12.0581 15.6877 11.7621 15.6877 11.4021C15.6637 11.0581 15.5437 10.7981 15.3277 10.6221C15.1197 10.4461 14.7437 10.2421 14.1997 10.0101L13.7077 9.80615C13.4117 9.68615 13.0997 9.53815 12.7717 9.36215C12.1637 8.99415 11.8597 8.50215 11.8597 7.88615C11.8597 7.37415 12.0637 6.95415 12.4717 6.62615C12.8877 6.29815 13.4277 6.13415 14.0917 6.13415C14.8917 6.13415 15.5837 6.30215 16.1677 6.63815L15.9997 7.20215C15.3997 6.60215 14.7277 6.30215 13.9837 6.30215C13.5677 6.30215 13.2357 6.40615 12.9877 6.61415C12.7477 6.81415 12.6277 7.07415 12.6277 7.39415C12.6277 7.62615 12.6997 7.82615 12.8437 7.99415C12.9797 8.14615 13.1237 8.26615 13.2757 8.35415C13.4357 8.44215 13.7197 8.57015 14.1277 8.73815L14.6077 8.94215C14.9517 9.07815 15.2557 9.22215 15.5197 9.37415C16.1437 9.74215 16.4557 10.2501 16.4557 10.8981C16.4557 11.4581 16.2357 11.9141 15.7957 12.2661C15.3557 12.6181 14.7597 12.7941 14.0077 12.7941C13.5997 12.7941 13.1837 12.7421 12.7597 12.6381C12.3437 12.5341 12.0037 12.3941 11.7397 12.2181ZM17.662 9.53015C17.646 8.55415 17.946 7.74215 18.562 7.09415C19.186 6.43815 19.934 6.11815 20.806 6.13415C21.854 6.13415 22.658 6.49815 23.218 7.22615L22.726 7.65815C22.174 6.76215 21.554 6.31415 20.866 6.31415C20.29 6.31415 19.818 6.58615 19.45 7.13015C19.082 7.67415 18.898 8.38615 18.898 9.26615C18.898 10.2101 19.098 10.9501 19.498 11.4861C19.906 12.0141 20.434 12.2781 21.082 12.2781C21.458 12.2781 21.83 12.1781 22.198 11.9781C22.574 11.7781 22.89 11.4941 23.146 11.1261L23.29 11.2101C22.594 12.2661 21.702 12.7941 20.614 12.7941C19.758 12.7941 19.05 12.4901 18.49 11.8821C17.938 11.2741 17.662 10.4901 17.662 9.53015ZM30.2349 8.40215V12.6501H29.1069V8.37815C29.1069 7.91415 29.0229 7.49815 28.8549 7.13015C28.6869 6.75415 28.3029 6.56615 27.7029 6.56615C27.0629 6.56615 26.4469 6.85015 25.8549 7.41815V12.6501H24.7269V3.29015L25.8069 2.93015H25.8549V7.19015C26.5669 6.48615 27.3469 6.13415 28.1949 6.13415C29.5549 6.13415 30.2349 6.89015 30.2349 8.40215ZM37.678 9.01415H33.07V9.23015C33.07 10.1821 33.278 10.9301 33.694 11.4741C34.118 12.0101 34.666 12.2781 35.338 12.2781C35.738 12.2781 36.126 12.1781 36.502 11.9781C36.886 11.7781 37.206 11.4941 37.462 11.1261L37.606 11.2101C36.918 12.2661 35.998 12.7941 34.846 12.7941C33.974 12.7941 33.258 12.4981 32.698 11.9061C32.138 11.3061 31.858 10.5261 31.858 9.56615C31.858 8.55015 32.162 7.72615 32.77 7.09415C33.378 6.45415 34.15 6.13415 35.086 6.13415C35.918 6.13415 36.562 6.39415 37.018 6.91415C37.474 7.43415 37.694 8.13415 37.678 9.01415ZM33.082 8.82215H36.586C36.618 8.07015 36.486 7.46615 36.19 7.01015C35.902 6.54615 35.502 6.31415 34.99 6.31415C34.47 6.31415 34.038 6.54615 33.694 7.01015C33.35 7.46615 33.146 8.07015 33.082 8.82215Z" fill="white"/>
<path d="M19.3559 16.4L16.6738 19.0821L13.9918 16.4" stroke="white" stroke-linecap="round" stroke-linejoin="round"/>
</svg>
