<svg width="94" height="89" viewBox="0 0 94 89" fill="none" xmlns="http://www.w3.org/2000/svg">
<g style="mix-blend-mode:screen">
<path d="M92.6258 71.6792C92.2982 70.6019 91.7012 69.6279 91.0817 68.7032C89.8473 66.8718 88.5097 65.1347 87.181 63.3886C86.0319 61.8535 84.2948 59.7527 83.3297 58.1278C82.809 57.1717 82.5128 56.1663 82.3557 55.0935C82.0549 52.9389 81.8619 50.7574 81.8081 48.5759C81.6644 45.2767 81.045 42.0044 80.2729 38.804C79.649 36.1332 78.7872 33.5297 78.1722 30.8679C77.4001 24.898 78.1722 18.8652 78.455 12.8638C78.4864 12.0019 78.3562 10.8483 77.261 10.8079C73.4052 10.8124 70.8915 14.4034 69.9309 17.7834C68.9075 20.8222 69.0826 24.4267 69.1005 27.5957C69.0242 29.3149 69.3205 33.1347 66.5779 32.3582C63.6468 31.1822 61.0837 28.664 58.6239 26.7024C59.6473 24.871 60.5047 22.8377 60.4508 20.701C60.4284 19.8302 59.9975 19.3544 59.0503 19.3051C57.4075 19.3499 56.3392 20.9479 55.6075 22.4696C56.6489 19.8527 57.8967 17.3749 58.7002 14.6592C59.0458 13.38 60.4508 9.58701 58.9965 8.78802C57.8025 8.24938 56.6534 9.0349 55.8723 9.9506C56.6893 8.53217 57.4075 7.05539 57.8788 5.47985C58.1571 4.4295 58.5252 2.84947 57.4254 2.08191C56.1147 1.25598 54.3866 1.55673 53.1567 2.36918C51.9357 3.19959 50.827 4.30381 49.8261 5.55616C51.5228 1.57917 49.1124 -0.692112 45.4451 1.93827C42.5229 4.11978 40.3639 7.04192 38.3395 10.0134C38.0791 9.7531 37.8098 9.51071 37.5135 9.29974C35.7809 8.0429 32.2259 5.66838 30.0713 6.66936C28.3117 7.83193 29.0748 10.2513 29.8603 11.8359C28.5496 10.6329 27.01 9.66781 25.3088 9.0349C24.3617 8.72967 23.4011 8.38853 22.3821 8.82842C21.4081 9.36258 21.1657 10.6508 21.3542 11.6428C21.6729 13.3441 22.5482 14.8164 23.5223 16.1854C22.7008 15.8398 21.8031 15.8173 21.2734 16.5849C20.4834 18.5465 22.3283 22.3035 23.3113 24.0631C23.9622 25.2301 24.7791 26.2895 25.6185 27.3219C23.9981 26.4735 21.9108 27.4027 22.3417 29.7278C22.225 30.5672 21.9782 31.4515 21.5876 32.2235C21.0625 33.2066 20.268 34.3512 19.1009 34.5307C17.7408 34.1761 16.9014 32.8116 16.3269 31.6041C15.5638 30.0151 15.3528 28.2735 14.9309 26.5767C14.509 24.871 13.9703 23.1878 13.2476 21.5718C12.1614 19.0986 9.24819 14.3765 5.99837 15.6512C4.88517 16.2482 4.47221 17.55 4.61136 18.7305C4.98841 21.3788 6.20036 23.7444 6.71208 26.3568C7.65022 29.7413 7.72203 33.1976 7.46169 36.6808C7.12055 42.0313 8.53449 47.2248 10.0382 52.279C10.2447 52.9658 10.6083 54.1015 10.7519 54.7703C11.0751 57.2391 10.4242 60.0176 9.31552 62.2305C8.45818 63.7432 7.55146 65.2738 6.92753 66.9167C6.92753 66.9167 6.94549 66.9257 6.96344 66.9347H6.95447L6.92753 66.9212C5.91758 69.1521 5.00637 71.4548 3.69118 73.5286C2.29968 75.6562 1.48274 78.0936 0.782501 80.522C1.89121 80.5803 3.02236 80.8676 4.09516 81.2087C6.15099 81.9359 7.42129 83.9423 9.31552 84.9747C10.3614 85.4865 11.5374 85.3338 12.6327 85.2351C13.71 85.1229 14.7783 85.0017 15.8466 84.9972C16.9014 84.9972 18.0012 85.0196 18.7867 85.6391C19.5632 86.3303 20.6046 87.0171 21.628 87.3223C22.0365 87.4705 24.9586 88.5702 25.2863 88.6869C24.999 87.8206 24.6444 86.7388 24.8734 85.877C24.9631 85.5089 25.2414 85.2396 25.4165 84.9164C26.4489 83.1479 27.2434 81.2626 27.7461 79.2651C28.4778 76.2218 28.8593 72.9091 30.592 70.2877C32.5266 67.801 35.0044 65.615 36.939 63.0789C38.8602 60.646 40.512 57.9707 41.6701 55.089C43.093 56.7229 44.9199 58.0111 46.8231 58.9941C52.6943 61.6694 57.6095 65.8798 62.3495 70.18C62.9151 70.7276 63.5121 71.2932 63.9026 71.8857C64.0956 72.1999 64.1181 72.3795 64.0732 72.8059C64.0328 73.2368 64.0687 73.7081 64.1854 74.139C64.3739 75.0143 65.1999 75.5979 65.7744 76.1544C66.3086 76.6707 66.6362 77.2632 66.6542 78.0442C66.6587 78.8522 66.9909 79.6916 67.2826 80.4456C67.8976 82.7259 68.1085 85.1633 68.3599 87.5154L68.3823 87.7667L68.6113 87.8475C72.4042 89.0011 76.8929 88.6914 80.5018 87.0844C83.5317 85.5358 85.8703 82.9459 88.2493 80.5803C89.973 78.7983 91.6338 76.9669 93.2587 75.0906C93.2857 73.8787 92.9759 72.7834 92.6169 71.6613L92.6258 71.6792Z" fill="#302921" fill-opacity="0.25"/>
<path d="M45.7955 2.46295C46.7561 1.86146 48.1387 1.16571 49.1621 1.90635C50.1765 2.99261 49.3057 5.41202 48.8748 6.70477C48.8389 6.80352 48.7985 6.89778 48.7626 6.99205C46.8998 9.69424 45.423 12.8408 44.2425 15.534C44.238 15.5296 44.229 15.5251 44.2245 15.5161C42.4874 14.0573 40.7772 12.5311 39.1882 10.9152C38.9368 10.6414 38.681 10.3541 38.4116 10.0803C40.5662 7.2883 42.8914 4.45593 45.8 2.45846L45.7955 2.46295Z" fill="#302921" fill-opacity="0.25"/>
<path d="M36.5266 62.7512C35.4853 63.9632 34.399 65.1303 33.2768 66.2749C31.6384 67.9985 29.6096 69.7042 28.7971 72.0473C27.3068 75.7999 27.2934 79.934 25.3767 83.5249C25.067 84.2925 24.47 84.9299 24.2231 85.7109C24.1064 86.1688 24.1288 86.6087 24.1827 87.0351C24.2096 87.2416 24.25 87.4436 24.2994 87.6411C23.1009 87.2147 21.1798 86.5997 20.4077 86.1419C19.9588 85.8905 19.5908 85.5404 19.1284 85.1947C18.1948 84.481 16.9559 84.4586 15.8472 84.481C14.7519 84.499 13.6612 84.6381 12.5929 84.7638C11.5335 84.876 10.4338 85.0197 9.52261 84.5843C8.59345 84.113 7.81241 83.314 7.00445 82.6407C6.17852 81.9404 5.29874 81.2357 4.21696 80.8766C3.21149 80.5804 2.23296 80.338 1.18709 80.2572C1.48783 79.135 1.84693 78.0263 2.2554 76.9355C2.69529 75.7909 3.19354 74.6732 3.85787 73.6453C5.11021 71.603 5.96756 69.3631 6.91018 67.1726C6.84285 68.0748 6.89672 68.986 7.01342 69.8883C7.46678 72.7925 8.59345 75.8986 11.2148 77.5056L11.2687 77.4472C10.2004 75.8089 9.13209 74.3007 8.30617 72.5411C7.52962 70.786 7.07627 68.8828 7.00445 66.9527C7.36354 66.2165 7.80792 65.3592 8.23435 64.65C9.14556 63.1507 10.2273 61.7054 10.6807 59.9727C11.354 57.8675 11.7939 55.5199 11.0398 53.3698L10.6852 52.104C9.32959 47.0946 7.96952 41.9596 8.23435 36.7347C8.44981 33.2246 8.31515 29.6022 7.31866 26.2132C6.78899 23.6726 5.54562 21.2442 5.14612 18.6901C5.06084 17.8822 5.19101 17.0428 5.78352 16.4637C7.0224 15.18 9.00192 16.4099 10.0388 17.4602C12.4717 19.9335 13.7285 23.3584 14.6308 26.6621C15.2592 29.1847 15.6676 31.9991 17.6337 33.8889C18.0467 34.257 18.5314 34.6205 19.097 34.7103C19.4561 34.7103 19.7658 34.5218 20.0486 34.3333C21.4446 33.3278 22.1269 31.6266 22.3917 29.9882C23.0785 34.5038 27.2036 38.4808 30.2469 41.6678C32.4733 43.8762 35.3192 45.7256 36.8139 48.549C37.1281 49.3166 37.6174 50.0213 38.1201 50.6497C39.0403 51.7719 40.2298 53.298 41.1276 54.4292C41.2802 54.6312 41.4418 54.8242 41.6078 55.0127C40.2657 57.8137 38.5331 60.3947 36.5356 62.7467L36.5266 62.7512Z" fill="url(#paint0_linear_0_548)" fill-opacity="0.25"/>
<path d="M92.5108 71.167C92.1831 70.0897 91.5861 69.1157 90.9667 68.191C89.7323 66.3596 88.3946 64.6225 87.066 62.8764C85.9169 61.3412 84.1797 59.2405 83.2147 57.6156C82.694 56.6595 82.3977 55.6541 82.2406 54.5813C81.9399 52.4267 81.7469 50.2452 81.693 48.0637C81.5494 44.7645 80.9299 41.4922 80.1579 38.2918C79.5339 35.621 78.6721 33.0175 78.0572 30.3557C77.2851 24.3858 78.0572 18.353 78.3399 12.3516C78.3714 11.4897 78.2412 10.3361 77.146 10.2957C73.2902 10.3002 70.7765 13.8912 69.8159 17.2712C68.7925 20.31 68.9675 23.9145 68.9855 27.0835C68.9092 28.8027 69.2054 32.6225 66.4628 31.846C63.5317 30.6699 60.9687 28.1518 58.5089 26.1902C59.5323 24.3588 60.3896 22.3255 60.3358 20.1888C60.3133 19.318 59.8824 18.8422 58.9353 18.7928C57.2924 18.8377 56.2241 20.4357 55.4925 21.9574C56.5338 19.3405 57.7817 16.8627 58.5852 14.147C58.9308 12.8678 60.3358 9.07481 58.8814 8.27582C57.6874 7.73717 56.5383 8.5227 55.7573 9.43839C56.5742 8.01996 57.2924 6.54318 57.7637 4.96765C58.042 3.91729 58.4101 2.33727 57.3104 1.5697C55.9997 0.743777 54.2715 1.04452 53.0416 1.85698C51.8207 2.68738 50.712 3.79161 49.711 5.04395C51.4077 1.06696 48.9973 -1.20432 45.33 1.42606C42.4079 3.60757 40.2488 6.52971 38.2244 9.50123C37.9641 9.24089 37.6948 8.9985 37.3985 8.78753C35.6659 7.53069 32.1108 5.15617 29.9562 6.15715C28.1967 7.31972 28.9597 9.73913 29.7453 11.3236C28.4346 10.1207 26.8949 9.1556 25.1937 8.5227C24.2466 8.21746 23.286 7.87632 22.2671 8.31622C21.293 8.85037 21.0506 10.1386 21.2392 11.1306C21.5579 12.8319 22.4332 14.3041 23.4072 15.6732C22.5858 15.3276 21.688 15.3051 21.1584 16.0727C20.3684 18.0343 22.2132 21.7913 23.1962 23.5509C23.8471 24.7179 24.6641 25.7773 25.5034 26.8097C23.883 25.9613 21.7958 26.8905 22.2267 29.2156C22.11 30.055 21.8631 30.9393 21.4726 31.7113C20.9474 32.6944 20.1529 33.839 18.9858 34.0185C17.6258 33.6639 16.7864 32.2993 16.2118 31.0919C15.4487 29.5029 15.2378 27.7613 14.8158 26.0645C14.3939 24.3588 13.8553 22.6756 13.1326 21.0596C12.0463 18.5864 9.13314 13.8643 5.88332 15.139C4.77012 15.736 4.35716 17.0378 4.49631 18.2183C4.87336 20.8666 6.08531 23.2322 6.59702 25.8446C7.53516 29.2291 7.60698 32.6854 7.34664 36.1686C7.0055 41.5191 8.41944 46.7126 9.92315 51.7668C10.1296 52.4536 10.4932 53.5893 10.6369 54.2581C10.96 56.7269 10.3092 59.5054 9.20047 61.7183C8.34313 63.231 7.43641 64.7616 6.81248 66.4045C6.81248 66.4045 6.83044 66.4135 6.84839 66.4224H6.83942L6.81248 66.409C5.80252 68.6399 4.89132 70.9426 3.57613 73.0163C2.18463 75.144 1.36769 77.5814 0.66745 80.0098C1.77616 80.0681 2.90731 80.3554 3.98011 80.6965C6.03594 81.4237 7.30624 83.4301 9.20047 84.4625C10.2463 84.9743 11.4224 84.8216 12.5176 84.7229C13.5949 84.6107 14.6632 84.4895 15.7315 84.485C16.7864 84.485 17.8861 84.5074 18.6716 85.1269C19.4482 85.8181 20.4896 86.5049 21.513 86.8101C21.9215 86.9583 24.8436 88.058 25.1713 88.1747C24.884 87.3084 24.5294 86.2266 24.7583 85.3648C24.8481 84.9967 25.1264 84.7274 25.3014 84.4042C26.3338 82.6356 27.1283 80.7504 27.6311 78.7529C28.3627 75.7096 28.7443 72.3969 30.4769 69.7755C32.4116 67.2888 34.8893 65.1028 36.8239 62.5667C38.7451 60.1338 40.3969 57.4585 41.555 54.5768C42.978 56.2107 44.8049 57.4989 46.7081 58.4819C52.5793 61.1572 57.4944 65.3676 62.2345 69.6678C62.8001 70.2154 63.3971 70.781 63.7876 71.3735C63.9806 71.6877 64.003 71.8672 63.9581 72.2937C63.9177 72.7246 63.9537 73.1959 64.0704 73.6268C64.2589 74.5021 65.0848 75.0856 65.6594 75.6422C66.1935 76.1584 66.5212 76.751 66.5391 77.532C66.5436 78.34 66.8758 79.1793 67.1676 79.9334C67.7825 82.2137 67.9935 84.6511 68.2449 87.0032L68.2673 87.2545L68.4962 87.3353C72.2892 88.4889 76.7779 88.1792 80.3868 86.5722C83.4167 85.0236 85.7553 82.4336 88.1343 80.0681C89.858 78.2861 91.5188 76.4547 93.1437 74.5784C93.1706 73.3665 92.8609 72.2712 92.5018 71.1491L92.5108 71.167ZM56.8346 20.4896C57.4899 19.7355 58.5852 18.9544 59.5188 19.5963C59.5951 19.6906 59.649 19.9554 59.64 20.2158C59.5996 21.0596 59.3527 21.89 59.1777 22.7294C58.9353 23.8381 58.6525 24.9469 58.4415 26.0915C58.2844 25.7324 58.06 25.4541 57.8176 25.1937C57.5573 24.9065 57.1937 24.7673 56.875 24.5653C56.3767 24.2646 55.7483 23.8606 55.2411 23.5958C55.2725 23.5194 55.3084 23.4342 55.3084 23.4342C55.2546 23.4342 55.1468 23.4387 55.093 23.4431V23.4521C55.1648 23.4835 55.2142 23.5374 55.2321 23.5913C55.1738 23.5598 55.1199 23.5329 55.066 23.5105L55.0885 23.4521C55.0436 23.4342 54.9942 23.4252 54.9448 23.4252C55.4521 22.3659 56.0625 21.3469 56.8391 20.4941L56.8346 20.4896ZM58.4774 8.46434C58.6076 8.52718 58.8455 8.59452 58.9173 8.73367C59.3572 9.5955 58.9622 10.6952 58.7692 11.5975C57.9433 14.8248 56.1299 17.7021 55.3084 20.9295C55.1064 21.7329 54.9628 22.5454 54.8685 23.3668C54.7832 23.2905 54.6935 23.2142 54.6037 23.1424C53.1583 21.8945 51.6591 20.6467 50.1374 19.4392C51.3673 18.142 52.2606 16.6248 53.0416 15.0313C53.9035 13.3795 54.7339 11.7052 55.4476 9.98152C56.1613 9.10174 57.279 8.09627 58.4774 8.45985V8.46434ZM51.9778 3.48189C53.3289 2.30136 55.1244 1.33629 56.8166 2.21158C56.9244 2.26994 57.0051 2.34624 57.0815 2.445C57.4406 3.13626 57.252 4.02053 57.0949 4.80605C56.6999 6.56113 56.0176 8.2444 55.3847 9.92766C55.3847 9.92766 55.3757 9.94113 55.3713 9.94561C55.3713 9.94561 55.3892 9.95459 55.4072 9.96357L55.3713 9.94561C54.4421 11.5571 53.486 13.1461 52.494 14.7171C51.511 16.1759 50.5908 17.6482 49.9714 19.309C49.2487 18.739 48.5215 18.1779 47.7988 17.6348C46.6093 16.7505 45.3255 16.0951 44.2034 15.0852C46.2502 10.9152 48.5574 6.64193 51.9778 3.4774V3.48189ZM45.6802 1.95124C46.6407 1.34975 48.0233 0.654003 49.0467 1.39464C50.0611 2.4809 49.1903 4.90031 48.7594 6.19306C48.7235 6.29181 48.6831 6.38608 48.6472 6.48034C46.7844 9.18254 45.3076 12.3291 44.1271 15.0223C44.1226 15.0178 44.1136 15.0134 44.1091 15.0044C42.372 13.5456 40.6618 12.0194 39.0728 10.4035C38.8214 10.1297 38.5656 9.84237 38.2962 9.56856C40.4508 6.77659 42.776 3.94422 45.6846 1.94675L45.6802 1.95124ZM36.4155 62.239C35.3741 63.4509 34.2878 64.618 33.1657 65.7626C31.5273 67.4863 29.4984 69.192 28.6859 71.5351C27.1957 75.2876 27.1822 79.4217 25.2655 83.0127C24.9558 83.7803 24.3588 84.4177 24.1119 85.1987C23.9952 85.6565 24.0177 86.0964 24.0715 86.5229C24.0985 86.7293 24.1389 86.9313 24.1882 87.1288C22.9898 86.7024 21.0686 86.0875 20.2965 85.6296C19.8477 85.3782 19.4796 85.0281 19.0173 84.6825C18.0836 83.9688 16.8447 83.9463 15.736 83.9688C14.6408 83.9867 13.55 84.1259 12.4817 84.2516C11.4224 84.3638 10.3226 84.5074 9.41144 84.072C8.48228 83.6007 7.70125 82.8017 6.89328 82.1284C6.06736 81.4282 5.18757 80.7235 4.1058 80.3644C3.10033 80.0681 2.12179 79.8257 1.07592 79.7449C1.37666 78.6227 1.73576 77.514 2.14423 76.4233C2.58413 75.2787 3.08237 74.161 3.7467 73.1331C4.99905 71.0907 5.85639 68.8508 6.79902 66.6604C6.73169 67.5626 6.78555 68.4738 6.90226 69.376C7.35562 72.2802 8.48228 75.3864 11.1037 76.9933L11.1575 76.935C10.0892 75.2966 9.02092 73.7884 8.195 72.0288C7.41846 70.2738 6.9651 68.3706 6.89328 66.4404C7.25238 65.7043 7.69676 64.8469 8.12318 64.1377C9.03439 62.6385 10.1162 61.1931 10.5695 59.4605C11.2428 57.3553 11.6827 55.0077 10.9286 52.8576L10.574 51.5918C9.21843 46.5824 7.85835 41.4473 8.12318 36.2225C8.33864 32.7123 8.20398 29.0899 7.20749 25.701C6.67782 23.1604 5.43445 20.732 5.03496 18.1779C4.94967 17.3699 5.07984 16.5305 5.67235 15.9515C6.91123 14.6677 8.89075 15.8976 9.92764 16.948C12.3605 19.4213 13.6174 22.8461 14.5196 26.1498C15.148 28.6725 15.5565 31.4869 17.5225 33.3766C17.9355 33.7447 18.4203 34.1083 18.9858 34.1981C19.3449 34.1981 19.6547 34.0095 19.9374 33.821C21.3334 32.8155 22.0157 31.1143 22.2806 29.476C22.9673 33.9916 27.0924 37.9686 30.1358 41.1556C32.3622 43.364 35.208 45.2133 36.7027 48.0367C37.017 48.8043 37.5062 49.509 38.009 50.1374C38.9291 51.2596 40.1186 52.7858 41.0164 53.9169C41.169 54.1189 41.3306 54.3119 41.4967 54.5005C40.1546 57.3014 38.4219 59.8824 36.4244 62.2345L36.4155 62.239ZM87.672 79.6237C85.9797 81.3474 84.2426 83.0531 82.3394 84.5299C78.8696 87.3533 73.2318 87.8695 68.9945 86.6844C68.6982 84.1394 68.5636 81.5449 67.6927 79.112C67.208 78.1918 67.4773 77.1504 67.0105 76.1809C66.979 76.1001 66.9386 76.0283 66.8982 75.952C67.7825 75.7859 68.6892 75.5704 69.3895 74.9959C71.6563 72.8862 73.6178 70.3815 74.6817 67.4504L74.6143 67.41C73.2094 68.9271 72.1321 70.6373 71.0234 72.3565C70.2917 73.362 69.5915 74.4527 68.568 75.1485C68.0339 75.4492 67.4279 75.6557 66.8309 75.8398C66.4224 75.2068 65.7447 74.758 65.2688 74.1969C66.3506 73.6537 67.3336 72.9266 68.2628 72.1545C71.3465 69.4927 73.6313 65.8793 74.6817 61.9382L74.6098 61.9068C73.1465 64.1691 71.975 66.5571 70.5565 68.8239C69.1381 70.8842 67.3292 72.7695 65.188 74.1026C64.9277 73.7705 64.7437 73.3934 64.7392 72.9176C64.6898 72.4867 64.8155 72.1545 64.7392 71.6787C64.7033 71.5441 64.6584 71.4139 64.6045 71.2882C66.8489 70.2244 68.4828 68.191 69.7845 66.1307C71.1984 63.9851 72.3879 61.7093 73.3979 59.3662L73.3261 59.3348C72.1231 61.5702 70.7765 63.7382 69.2683 65.7761C67.7735 67.6658 66.2833 69.4748 64.5103 71.1131C64.0973 70.3186 63.3477 69.7306 62.7776 69.1291C58.0375 64.7302 52.9339 60.6365 47.0268 57.9209C45.6083 57.1847 44.2572 56.3498 43.0991 55.2815C41.4787 53.7778 39.9571 51.5334 38.4354 49.8098C37.587 48.9075 37.2234 47.736 36.5142 46.7664C35.7826 45.7834 34.9118 44.9171 34.023 44.0822C31.5856 41.9815 29.1662 39.8763 27.0431 37.4389C24.9334 35.1093 22.7698 32.443 22.3165 29.2425C22.3254 29.1752 22.3389 29.1034 22.3479 29.0361H22.3389C22.3838 28.6096 22.4915 28.1967 22.7204 27.8735C23.3264 26.9398 24.1119 27.2002 25.0411 27.465C25.4316 27.5548 25.8311 27.6625 26.2665 27.7388C26.4281 27.9318 26.5852 28.1293 26.7468 28.3224C27.9408 29.8754 29.0764 31.4869 30.3108 33.0041C31.7966 34.84 33.2689 36.6938 34.997 38.3142C36.7297 39.9346 38.8753 41.0029 40.792 42.354L40.8458 42.2957C40.2398 41.7795 39.5576 41.389 38.9112 40.9491C37.614 40.0872 36.3347 39.1716 35.2125 38.0853C32.5103 35.2754 30.1986 32.0704 27.9722 28.8879C26.1319 26.3608 24.1119 24.0087 22.8416 21.1135C22.5095 20.4178 22.2087 19.7085 21.9663 18.9814C21.7105 18.1106 21.3738 17.1724 21.6207 16.3151C22.0382 15.6732 22.9583 15.7944 23.7573 16.1535C23.7663 16.1625 23.7708 16.1714 23.7798 16.1849C24.8885 17.6662 26.0466 19.1026 27.3258 20.4402C29.7542 23.1379 31.9986 26.1139 34.813 28.5154C37.6095 30.8675 40.5989 33.0534 42.96 35.8634L43.0273 35.823C41.8872 34.3686 40.5496 33.1118 39.2209 31.8325C36.4693 29.4176 33.6011 27.1418 31.3073 24.2556C28.4974 20.723 25.2162 17.4058 22.9539 13.4603C21.6207 10.9645 21.0417 7.78655 25.0411 9.06134C26.7693 9.57754 28.3986 10.4618 29.8575 11.5346L29.8844 11.5077L29.8575 11.5391C30.2435 11.8847 30.6116 12.2483 30.9482 12.6388C33.224 15.4757 35.7556 18.1061 38.2514 20.7454C39.6922 22.2491 41.0209 23.8651 42.547 25.27C44.0642 26.693 45.6173 28.0755 47.2557 29.3682L47.3096 29.3144C43.2787 24.5833 38.6239 20.3414 34.2744 15.9246C32.7572 14.5016 31.5048 12.8184 29.9113 11.4808C28.273 8.17707 29.0001 4.84196 33.2689 6.83494C34.9611 7.607 36.5816 8.65287 37.9237 9.94561C38.6419 10.8209 39.4678 11.6603 40.2758 12.4548C41.9456 14.0662 43.5435 15.7046 45.4467 17.0692C46.1021 17.4148 46.744 17.8502 47.3544 18.2856C49.7514 19.942 52.1125 21.6746 54.5633 23.2771L54.496 23.4431C54.5498 23.4431 54.6576 23.4476 54.7114 23.4521L54.7294 23.4072C54.6576 23.3848 54.6037 23.3489 54.5902 23.304C54.5902 23.2995 54.5902 23.295 54.5902 23.2905C54.6396 23.3219 54.689 23.3579 54.7428 23.3893L54.7339 23.4072C54.7339 23.4072 54.7653 23.4162 54.7788 23.4162C54.8102 23.4342 54.8416 23.4566 54.873 23.479C55.6765 24.278 56.471 25.1264 57.3508 25.8266C57.674 26.0152 58.0151 26.1812 58.446 26.2486C59.9497 27.5009 61.9831 29.256 63.5542 30.3916C64.5147 30.9078 65.3586 31.653 66.4359 31.9896C69.2907 32.838 69.1112 28.8969 69.1695 27.0969C69.1875 25.2117 69.1022 22.3703 69.3446 20.5434C69.8069 17.3834 70.8707 14.0034 73.4293 11.9251C74.4752 11.0947 75.8083 10.6279 77.128 10.6055C78.0347 10.6369 78.0392 11.6648 78.0302 12.365C77.716 18.3485 76.8901 24.4576 77.6577 30.45C78.2636 33.1298 79.1165 35.7422 79.727 38.4085C80.4855 41.5954 81.078 44.8228 81.2082 48.0951C81.2082 49.1814 81.3025 50.2945 81.3833 51.3853C81.5853 53.5668 81.6616 55.9009 82.7478 57.867C83.7264 59.5772 85.4545 61.6151 86.6261 63.2265C87.9458 64.9726 89.2744 66.7142 90.4819 68.5276C91.0789 69.4254 91.6355 70.3366 91.9452 71.369C92.2594 72.3206 92.5287 73.3799 92.5422 74.3675C90.9712 76.1629 89.3462 77.9225 87.6809 79.6282L87.672 79.6237Z" fill="url(#paint1_linear_0_548)"/>
<path d="M92.4851 71.1763C91.9241 69.4077 90.739 67.9309 89.6887 66.4317C88.6024 64.937 87.4668 63.4781 86.3446 62.0103C85.2224 60.5425 84.0374 59.1196 83.0948 57.5127C81.8469 55.0035 81.9187 52.0858 81.6674 49.3522C81.5686 44.7288 80.5946 40.1863 79.3647 35.7425C78.8664 33.9649 78.3323 32.1919 77.9058 30.3874C77.1113 24.404 77.8565 18.3981 78.1258 12.4147C78.1841 11.5573 78.0226 10.3544 76.9094 10.5204C75.9533 10.5608 75.0061 10.8526 74.1802 11.3419C70.7913 13.4695 69.5658 17.7607 69.2965 21.5537C68.8028 27.7436 71.2581 36.7569 62.1101 29.5301C60.8129 28.5201 59.5919 27.4249 58.3261 26.4149C58.2139 26.3252 58.187 26.1725 58.2543 26.0558C58.9411 24.8214 59.5426 23.5332 59.8478 22.1776C60.0004 21.5043 60.0767 20.7996 60.0498 20.1263C60.0318 19.8076 59.9421 19.5203 59.7401 19.3497C58.8782 18.7078 57.6887 19.3003 57.002 20.0814C56.4768 20.6559 56.0773 21.3562 55.7272 22.0833C55.5746 22.3931 55.1167 22.1776 55.2379 21.8679C56.0773 19.6819 60.7994 9.86958 58.7615 8.50053C57.783 8.03819 56.607 8.76536 55.9426 9.60475C55.8573 9.70799 55.7047 9.72146 55.6015 9.63168C55.5117 9.55537 55.4893 9.4252 55.5476 9.32645C56.2793 8.05615 56.9301 6.74096 57.3925 5.36293C58.2319 2.99289 58.0119 1.0448 54.9417 1.36798C52.7826 1.76299 51.2564 3.59887 49.8829 5.18787C49.7258 5.38537 49.4116 5.18787 49.5103 4.96343C49.9502 3.87268 50.2824 2.62931 49.82 1.51611C48.7293 -0.508295 46.0899 0.999909 44.8017 2.11311C42.2386 4.19138 40.2367 6.87562 38.3604 9.60026C38.311 9.67657 38.2078 9.69452 38.1315 9.64515C36.1744 7.74194 28.9655 3.19937 29.0104 8.61724C29.0867 9.5464 29.4279 10.4441 29.8363 11.288C29.8588 11.3374 29.8363 11.3957 29.7915 11.4182C29.7555 11.4361 29.7107 11.4272 29.6792 11.4047C28.6558 10.4711 27.4932 9.68106 26.2364 9.08855C25.0469 8.55888 23.5566 7.90802 22.3223 8.42422C19.9477 10.085 22.2684 13.8421 23.5162 15.6017C23.6015 15.7094 23.4669 15.853 23.3547 15.8036C19.5078 14.4705 21.5771 20.0275 22.439 21.7377C23.2604 23.5511 24.3511 25.194 25.6349 26.7112C25.7561 26.8503 25.5766 27.0389 25.4329 26.9626C24.3781 26.3656 22.7801 26.7157 22.4434 27.977C22.3178 28.381 22.3537 28.8209 22.4075 29.2428C22.1921 30.7959 21.5861 32.3266 20.455 33.4532C20.0689 33.8213 19.5797 34.122 19.0231 34.2118C17.9054 34.0008 17.1019 33.0447 16.5453 32.1291C14.9069 29.4089 14.9069 26.1142 13.7578 23.2145C12.7254 20.3866 11.3115 17.4151 8.74842 15.7139C6.93947 14.6141 4.89712 15.2291 4.73552 17.5408C4.8253 20.427 6.34697 22.9631 6.86766 25.809C7.50505 28.0533 7.76988 30.6119 7.7654 33.0088C7.7654 35.4238 7.45119 37.7938 7.70704 40.1997C8.10654 45.0161 9.63718 49.5856 10.9479 54.2359C11.3608 57.571 10.2252 60.8523 8.48808 63.6442C7.97188 64.5869 7.49159 65.5385 7.11005 66.5305L6.94845 66.1444C7.37937 66.306 7.09658 66.9075 6.70157 66.7055L7.10107 66.5529C6.07764 68.8107 5.15297 71.1628 3.78392 73.2994C2.45975 75.3642 1.66525 77.7298 0.978479 80.1133L0.695691 79.7183C1.85378 79.7811 2.96249 80.0639 4.04426 80.4005C5.18888 80.7866 6.09111 81.5541 6.92601 82.2948C7.75193 83.0309 8.57785 83.812 9.49355 84.2563C10.4272 84.6558 11.5404 84.5122 12.6401 84.4045C13.7443 84.2878 14.8755 84.1666 16.0111 84.1755C17.1423 84.1351 18.4844 84.3686 19.2969 85.2304C20.1407 85.9261 21.1148 86.375 22.1517 86.7117L25.2938 87.8832L24.8808 88.2872C24.6294 87.5107 24.3377 86.6982 24.3871 85.778C24.3781 85.0868 24.8808 84.5571 25.186 84.0005C26.0748 82.4249 26.784 80.7417 27.2508 78.9956C28.0543 75.84 28.373 72.4017 30.2313 69.5918C32.1974 67.0646 34.5854 64.9729 36.5021 62.5086C38.4591 60.0622 40.1334 57.387 41.3095 54.4918C41.3813 54.2987 41.6461 54.2584 41.7763 54.4155C42.7818 55.5735 43.9892 56.5611 45.2909 57.387C46.5972 58.2443 48.065 58.8099 49.4161 59.5999C52.1721 61.135 54.7262 62.9934 57.1501 64.9863C58.362 65.9828 59.5471 67.0107 60.7186 68.0566L62.4602 69.6411C63.0842 70.3414 64.1659 71.0551 64.1614 72.1144C64.0986 72.6979 64.1166 73.2411 64.2961 73.7932C64.6507 74.8705 66.0108 75.4136 66.4686 76.4954C66.6437 76.8679 66.7155 77.3078 66.711 77.6939C66.7514 78.448 67.0477 79.1841 67.326 79.9158C67.6447 81.1187 67.8512 82.3442 68.0083 83.5741C68.1654 84.804 68.2821 86.0339 68.4078 87.2638L68.3225 87.156C68.4392 87.1875 68.5649 87.2862 68.6322 87.3535L68.5424 87.2323C72.3713 88.377 76.6176 88.1077 80.2938 86.5366C83.3551 85.0015 85.6848 82.4249 88.0997 80.0459L93.127 74.5697C93.1136 73.5328 92.8712 72.258 92.4851 71.1808V71.1763ZM92.5435 71.1583C92.9026 72.2715 93.2482 73.4386 93.1854 74.6236L88.185 80.1357C85.5636 82.7122 83.0185 85.7017 79.4993 87.0528C75.9892 88.3456 72.066 88.5251 68.4661 87.4747L68.3763 87.3535C68.2731 87.3715 68.2686 87.4299 68.2102 87.3805C67.9364 86.1775 67.9454 84.8489 67.73 83.61C67.5639 82.389 67.3529 81.1771 67.0342 79.9921C66.7694 79.3278 66.4507 78.5198 66.3968 77.7073C66.518 75.8984 64.5564 75.4271 63.9729 73.8964C63.8472 73.5059 63.7754 73.0974 63.7754 72.689C63.7575 72.3164 63.8966 71.9393 63.7126 71.6117C63.0707 70.5344 61.3964 69.2237 60.4538 68.3439C56.9481 65.2512 53.2763 62.2752 49.1737 60.0218C47.8091 59.2453 46.3278 58.6842 45.0082 57.8269C43.666 56.9875 42.4092 55.9775 41.3543 54.779L41.8212 54.7027C40.6406 57.6653 38.9529 60.4034 36.9868 62.8946C35.0702 65.3993 32.5924 67.6302 30.761 69.9778C28.979 72.7024 28.6738 76.0465 27.8748 79.1706C27.39 80.9706 26.6628 82.7033 25.7426 84.3237L25.59 84.5885C25.5362 84.6873 25.4688 84.786 25.4105 84.8713C24.6474 85.8274 25.1591 86.9989 25.4868 88.0942C25.5855 88.3276 25.3117 88.6014 25.0738 88.4982C23.9561 88.0583 21.4021 87.1875 20.3472 86.6892C19.5976 86.3436 18.9064 85.7152 18.2734 85.2528C17.5957 84.8489 16.8012 84.8354 16.0022 84.8219C13.7623 84.6873 11.4372 85.6299 9.24218 84.8444C8.14693 84.3057 7.33897 83.5067 6.50407 82.7706C4.92405 81.1547 2.82334 80.4903 0.655293 80.3467C0.45779 80.3377 0.314151 80.1402 0.372504 79.9517C1.06825 77.5547 1.87622 75.1308 3.25425 72.9807C4.5874 70.9069 5.50309 68.5908 6.53549 66.3105C6.6118 66.1444 6.80481 66.0861 6.96192 66.1669L6.83623 66.1399H6.84521L6.71953 66.7235C6.55793 66.6651 6.4547 66.4856 6.52203 66.3195C7.06516 64.8427 7.9629 63.3165 8.73496 61.943C9.99179 59.6493 10.6337 56.9157 10.3329 54.3212C9.05814 49.8549 7.48261 45.0386 7.09658 40.2536C6.8497 37.8477 7.1684 35.4148 7.18635 33.0133C7.19533 30.6208 6.95743 28.2194 6.32901 25.9167C5.96991 24.0629 5.23377 22.2853 4.70859 20.4225C4.32705 19.0041 3.8692 17.4061 4.65921 16.0415C5.47167 14.4301 7.63971 14.4346 8.97734 15.3189C12.51 17.7607 13.9912 22.1148 15.0281 26.0873C15.652 28.6997 16.1458 32.8248 19.032 33.8527C20.6794 33.4577 21.8285 31.0203 22.0529 29.2069C21.6085 27.2274 23.5162 25.6204 25.5811 26.6798L25.3791 26.9311C24.0953 25.4005 22.9821 23.7038 22.1651 21.8769C21.4021 20.0679 20.4011 17.9986 21.0475 16.0101C21.5637 15.2022 22.6769 15.1932 23.4624 15.5657L23.3008 15.7677C22.1562 14.0845 20.9083 12.1409 21.0968 10.0087C21.3258 8.27609 22.7532 7.68359 24.3511 8.16837C26.3935 8.72048 28.2563 9.84714 29.8139 11.2701L29.6613 11.3868C28.8443 9.7843 28.0723 7.26614 29.9082 6.06316C32.4398 4.99485 36.4751 7.76887 38.3424 9.39827L38.0911 9.42071C39.9539 6.66465 41.9424 3.92205 44.5458 1.7989C45.1877 1.26474 45.9014 0.770985 46.6959 0.438821C50.2689 -0.961654 51.2115 2.36447 49.9188 5.14747L49.5462 4.92303C50.9736 3.25324 52.5985 1.33207 54.8788 0.923601C56.001 0.748541 57.4823 0.986443 58.0568 2.10413C58.9321 4.25871 56.9975 7.66563 55.9785 9.57782L55.5835 9.29952C56.8314 7.60728 59.8613 6.98335 59.785 9.90998C59.39 14.2012 57.3027 18.1423 55.7451 22.0744L55.2559 21.8589C55.615 21.1093 56.0324 20.3687 56.6159 19.7268C57.4419 18.7752 58.977 18.048 60.1171 18.9502C60.4672 19.2599 60.5884 19.7133 60.6109 20.1038C60.7007 22.3302 59.8164 24.4579 58.7615 26.3476L58.6897 25.9885C61.2213 27.9905 63.5734 30.3515 66.5764 31.5949C68.7758 32.2188 68.6501 29.0722 68.6995 27.5371C68.7399 24.3187 68.511 20.9612 69.4042 17.8056C70.1539 15.1438 71.505 12.4416 73.9648 10.9873C74.8535 10.4666 75.8725 10.1569 76.9094 10.121C77.4345 10.0312 78.1437 10.3454 78.3278 10.893C78.5567 11.4137 78.5612 11.9479 78.5432 12.4596C78.44 14.457 78.2874 16.4455 78.1572 18.4385C77.8879 22.411 77.7218 26.4104 78.2066 30.3605C79.037 33.8752 80.213 37.493 80.8908 41.102C81.9367 45.6311 81.636 50.3083 82.3541 54.8733C82.7447 57.6832 84.814 59.7705 86.4299 61.9699C87.5476 63.4422 88.6787 64.9055 89.7605 66.4048C90.8109 67.9175 91.9914 69.3987 92.5525 71.1763L92.5435 71.1583Z" fill="url(#paint2_linear_0_548)"/>
<path d="M56.8065 20.468C57.4709 19.687 58.5975 18.6905 59.6703 19.3683C59.796 19.4626 59.8454 19.6287 59.8723 19.7184C60.0923 20.8092 59.5357 21.855 59.2708 22.874C58.9611 23.9378 58.804 25.0375 58.6514 26.1328C58.6289 26.3348 58.3372 26.3886 58.2429 26.2091C58.0903 25.9218 57.8793 25.6749 57.6414 25.437C57.3138 25.1004 56.3891 24.7054 55.9492 24.4271C55.6485 24.2475 55.3387 24.0725 55.0425 23.8884C54.818 23.7493 54.8719 23.5024 54.9841 23.3049L55.3163 23.7807H55.0963L55.3971 23.5787C55.3926 23.6236 55.2175 23.1298 55.213 23.1388C55.4958 23.2196 55.7607 23.7627 55.3342 23.9154C55.1861 23.9737 55.0425 23.8705 54.9168 23.8076C54.7283 23.7223 54.6744 23.4934 54.7821 23.3229L54.9572 23.7538C54.9482 23.7538 54.9437 23.7538 54.9347 23.7448L54.6475 23.3094C55.1682 22.2545 56.0255 21.3523 56.802 20.4725L56.8065 20.468ZM56.8559 20.5084C56.0659 21.3703 55.6799 22.5014 55.2265 23.5563L54.9392 23.0984C55.2849 23.1119 55.5452 23.26 55.3612 23.6326L55.1996 23.2061L55.3791 23.2914L54.9033 23.6775C54.9347 23.7672 54.9572 23.7583 54.9527 23.7627C54.8315 23.9109 54.5846 23.7627 54.6609 23.5877L54.7687 23.3184C54.818 23.1882 54.9392 23.1074 55.0739 23.1029C55.3342 23.067 55.6081 23.0939 55.644 23.4081C55.6529 23.5114 55.5856 23.6371 55.5542 23.7268L55.3926 23.2869C55.6978 23.4575 55.9941 23.6416 56.2948 23.8211L57.1701 24.3777C57.435 24.5393 57.8165 24.7368 58.0634 25.051C58.3013 25.3248 58.5122 25.648 58.6379 26.0026L58.216 26.052C58.7367 24.4675 59.0688 22.8291 59.2484 21.1773C59.2933 20.7239 59.3965 20.1853 59.3067 19.7768C58.7053 19.274 57.4664 19.7364 56.8604 20.5129L56.8559 20.5084Z" fill="url(#paint3_linear_0_548)"/>
<path d="M58.4878 8.43312C59.7312 8.80119 58.9412 11.2116 58.793 12.1498C58.2275 14.7757 56.8674 17.0963 55.8889 19.5561C55.3951 20.7771 55.0988 22.0743 54.9776 23.385C54.9732 23.4748 54.852 23.5196 54.7891 23.4568C54.6994 23.3625 54.43 23.2234 54.4884 23.1022C54.4884 23.0798 54.6455 23.2503 54.6455 23.2503C54.6634 23.2817 54.6186 23.3177 54.5916 23.2907L54.5198 23.2324C53.0296 22.0518 51.4271 20.8623 49.9458 19.6728C49.8112 19.5696 49.7932 19.3676 49.9099 19.2374C51.1308 17.9177 51.9837 16.3512 52.7917 14.7397C53.5323 13.3258 54.6006 11.3328 55.2919 9.91888C56.0639 9.03461 57.231 8.06056 58.4833 8.42863L58.4878 8.43312ZM58.4654 8.49596C57.2804 8.10096 56.1043 9.33535 55.5926 10.0491C55.0091 11.7772 54.2505 13.4515 53.4156 15.0629C52.6256 16.7103 51.6425 18.3307 50.3498 19.6504L50.3184 19.2105C51.05 19.8479 51.7862 20.4763 52.5044 21.1317C53.1508 21.6883 54.035 22.5187 54.6769 23.0573L54.5512 23.0394C54.632 22.9586 54.7667 23.0618 54.7218 23.1606L54.7083 23.1875L54.6769 23.0573L54.9373 23.2862L54.7487 23.3581C54.9238 22.0384 55.1976 20.7322 55.5791 19.4484C55.9607 18.1691 56.4365 16.9168 56.9527 15.7003C57.3836 14.439 60.2653 9.06154 58.4609 8.49147L58.4654 8.49596Z" fill="url(#paint4_linear_0_548)"/>
<path d="M51.9594 3.46005C53.2612 2.29748 55.1599 1.20672 56.9105 2.04611C58.6925 3.15033 56.1878 8.46944 55.5863 10.0046L55.4831 9.74423L55.4965 9.75321C55.6132 9.81156 55.6357 9.97316 55.5459 10.0674L55.4651 9.76668L55.501 9.78912H55.5145C55.7703 9.94623 55.5235 10.3143 55.2811 10.1392L55.5504 10.0584C54.5629 11.5756 53.5799 13.0883 52.6642 14.6504C51.6811 16.1496 50.752 17.7027 50.1819 19.4039C50.137 19.552 49.9395 19.6059 49.8228 19.5027C48.9834 18.8787 47.7849 17.9945 46.9411 17.4199C45.958 16.7735 44.8987 16.1765 43.9651 15.3551C43.8483 15.2519 43.8169 15.0813 43.8843 14.9466C45.8638 10.6824 48.4313 6.63356 51.946 3.46903L51.9594 3.46005ZM52.0043 3.50494C48.6064 6.75027 46.6538 11.1312 44.5172 15.2384L44.4364 14.8299C45.7112 15.9925 47.3944 16.8409 48.7231 18.0034L50.1191 19.1301L49.76 19.2289C50.4512 17.5232 51.4926 16.0194 52.4936 14.5247C53.4452 12.9941 54.325 11.4185 55.2003 9.84747C55.2496 9.7577 55.3619 9.7173 55.4561 9.76219H55.4651L55.5055 9.78463L55.3215 10.1527C55.1913 10.1123 55.1195 9.95969 55.2003 9.84299L55.2048 9.83401L55.2182 9.81605C55.2182 9.81605 55.299 10.1258 55.2945 10.1168C55.1958 10.0719 55.1509 9.9552 55.1913 9.85645C55.8018 8.00711 56.511 6.20714 56.9105 4.31291C57.0362 3.69795 57.1304 3.06505 56.897 2.53987C55.5369 1.34587 53.2432 2.33339 51.9953 3.50494H52.0043Z" fill="url(#paint5_linear_0_548)"/>
<path d="M45.6613 1.92475C50.2981 -0.979443 50.3654 3.35664 48.8752 6.64237C47.4612 8.58149 46.1865 10.6598 45.2259 12.8682C44.8847 13.5999 44.593 14.3495 44.2922 15.0991C44.2473 15.2113 44.0947 15.2427 44.0049 15.1574C41.9087 13.5325 39.8484 11.7685 38.044 9.81588C37.9228 9.6902 37.9093 9.4927 38.017 9.35804C40.1357 6.48976 42.6898 3.91324 45.6613 1.92475ZM45.6972 1.97861C42.793 4.03892 40.7821 7.04635 38.5691 9.78446L38.5422 9.32661C39.8664 10.8079 41.3207 12.1904 42.775 13.537L44.2473 14.8926L43.9601 14.951L45.0149 12.7694C46.0249 10.7585 47.2548 8.03387 48.3814 6.37754C48.8258 4.89627 49.7864 2.88084 48.956 1.51627C47.9595 0.744218 46.6308 1.40406 45.6972 1.97861Z" fill="url(#paint6_linear_0_548)"/>
<path d="M36.4448 62.2617C35.1924 63.55 33.599 65.4622 32.3331 66.6966C30.9327 68.1195 29.4649 69.5918 28.7871 71.495C27.3237 75.2341 27.3013 79.5477 25.434 83.0893C25.1467 83.8165 24.653 84.391 24.3926 85.0374C24.1188 85.6748 24.2625 86.4289 24.4061 87.0932C24.442 87.2503 24.2714 87.4074 24.1143 87.3446C23.1268 87.0034 22.1213 86.6892 21.1338 86.3032C20.1463 86.0114 19.289 85.1451 18.4541 84.6469C16.0616 83.6728 13.301 84.6873 10.7784 84.6693C9.07718 84.7277 7.78892 83.2464 6.62186 82.2813C5.83185 81.6125 5.00593 80.9796 4.07228 80.6564C3.09374 80.3557 2.07929 80.1088 1.06036 80.028C0.91223 80.0145 0.800013 79.8844 0.80899 79.7362C1.10973 78.5557 1.50923 77.4021 1.94463 76.262C2.38452 75.1443 2.89175 74.0356 3.56056 73.0211C4.80842 71.0192 5.68372 68.7883 6.63981 66.6023C6.68021 66.5125 6.78345 66.4676 6.87323 66.508C6.94504 66.5395 6.98544 66.6113 6.98096 66.6876C6.90914 67.6392 6.95851 68.6132 7.09317 69.5648C7.52858 72.3703 8.65524 75.3463 11.1689 76.9039L11.0208 76.9218C11.0118 76.9443 10.9983 76.9712 11.0208 77.0206C11.0432 77.061 11.0881 77.07 11.1061 77.07C11.2138 77.07 11.0926 77.034 11.0567 77.0071C10.0153 75.4002 8.90661 73.8201 8.09415 72.0606C7.31761 70.292 6.85078 68.3843 6.76999 66.4497C7.37147 65.2512 7.9954 64.0303 8.73604 62.9081C9.44076 61.7859 10.1186 60.6413 10.4417 59.3665C11.1465 57.203 11.4741 54.8239 10.6931 52.6559C10.6303 52.3866 10.6168 52.1038 10.5674 51.7806L10.3969 51.6504C9.24326 47.44 8.06722 43.1713 7.86523 38.7544C7.74852 36.5594 8.02233 34.3824 7.89665 32.1964C7.80688 30.0239 7.51062 27.8558 6.90016 25.7776C6.37049 23.2908 5.16752 20.9253 4.73212 18.3892C4.35955 16.7373 5.52213 14.7398 7.40738 15.1214C9.3465 15.5209 10.6841 17.1458 11.7569 18.6854C13.3998 21.1856 14.3469 24.0404 15.0427 26.9222C15.5364 29.0229 15.9808 31.1775 17.4172 32.8114C17.7987 33.2872 18.6336 33.8572 18.9748 33.8797C19.7648 33.8078 20.5593 32.8652 20.9902 32.1829C21.4884 31.3615 21.7937 30.4099 21.9598 29.4403C21.9867 29.2698 22.1528 29.1486 22.3233 29.18C22.4625 29.2024 22.5657 29.3147 22.5837 29.4448C23.2301 33.35 26.0534 36.4562 28.6569 39.302L29.6758 40.3883C32.0055 42.9693 35.1386 44.8366 36.7994 47.9966C37.2887 49.2355 38.2178 50.241 39.0303 51.3138C39.8607 52.3731 40.6821 53.4414 41.5305 54.4783C40.3006 57.3017 38.4153 59.9096 36.4313 62.2797L36.4448 62.2617ZM36.3954 62.2168C38.3794 59.9635 40.1794 56.9695 41.4452 54.5456C40.1659 52.9701 38.9091 51.4125 37.6388 49.8325C37.2438 49.3073 36.8263 48.6699 36.5929 48.0954C35.6503 46.3627 34.1825 44.9892 32.6877 43.7009C31.1795 42.4486 29.6669 41.0481 28.3247 39.6117C26.9377 38.1843 25.5821 36.7031 24.424 35.0512C23.2705 33.4128 22.3099 31.5635 21.9687 29.5211H22.5927C22.3144 31.4288 21.1563 34.2118 18.9837 34.526C18.1219 34.4093 17.489 33.8348 16.9279 33.2378C15.4062 31.5321 14.8811 29.1845 14.3873 27.0568C13.7095 24.2649 12.7759 21.4594 11.1869 19.0535C10.4058 17.8999 9.47667 16.7508 8.23779 16.0954C6.46027 15.0675 5.03735 16.3917 5.38298 18.2724C5.81838 20.8041 6.98544 23.0978 7.51062 25.6339C8.10313 27.6404 8.41734 29.988 8.47569 32.156C8.57893 34.342 8.27819 36.5325 8.37245 38.714C8.52507 43.0635 9.63827 47.3188 10.7515 51.5382L10.5809 51.408C11.8826 54.0833 11.6268 56.772 10.738 59.4294C10.3924 60.7401 9.68764 61.9161 8.97394 63.0338C8.24228 64.0527 7.56 65.5519 7.02135 66.4317C7.08868 68.3304 7.52409 70.2247 8.29166 71.9663C9.09962 73.6944 10.2128 75.261 11.2677 76.868C11.2677 76.868 11.115 76.7782 11.1914 76.8365C11.2048 76.8455 11.2362 76.868 11.2497 76.9173C11.2677 76.9936 11.2362 77.034 11.2003 77.0744C11.1644 77.1148 11.1016 77.1238 11.0522 77.0924C9.3465 76.051 8.20188 74.3049 7.53755 72.4556C6.86874 70.6017 6.51413 68.6267 6.63084 66.6472L6.97198 66.7325C6.0473 68.9274 5.20343 71.1763 3.95108 73.2546C2.69873 75.2565 1.97605 77.5502 1.34763 79.817L1.10524 79.4759C3.25533 79.633 5.43684 80.3422 6.98993 81.837C7.81136 82.5103 8.54751 83.2689 9.41383 83.7447C10.2398 84.2025 11.2946 84.0903 12.327 83.9826C14.4322 83.821 16.6362 83.2823 18.6965 84.1756C19.2172 84.4449 19.5942 84.8309 19.9982 85.1272C21.264 86.0025 22.8306 86.3571 24.2669 86.9227L23.9797 87.183C23.8315 86.4289 23.7014 85.6209 24.029 84.8803C24.3477 84.1531 24.8505 83.592 25.1153 82.9367C26.0759 81.1906 26.5876 79.229 27.032 77.2719C27.7232 74.3722 28.226 71.1987 30.201 68.8377C30.8384 68.0522 31.5521 67.3384 32.2658 66.6247C33.5361 65.4083 35.1655 63.5006 36.3999 62.2213L36.3954 62.2168Z" fill="url(#paint7_linear_0_548)"/>
<path d="M87.6973 79.6459C85.1881 82.0923 82.7507 84.8753 79.4515 86.2488C76.1344 87.5326 72.4087 87.6538 68.9839 86.7426C68.5844 84.2558 68.535 81.5132 67.6328 79.1432C67.1121 78.1467 67.4128 76.9572 66.8293 75.9921C66.7979 75.9427 66.8293 75.8754 66.8876 75.8664C67.8527 75.6779 68.8627 75.431 69.5494 74.7128C71.6995 72.6615 73.5534 70.2107 74.5633 67.4007L74.6172 67.5578C74.5813 67.5354 74.5678 67.5354 74.5409 67.4995C74.5364 67.486 74.5005 67.4501 74.5319 67.3648C74.5813 67.2885 74.6306 67.2975 74.6441 67.2975C74.6621 67.2975 74.6666 67.2975 74.671 67.2975H74.6845L74.671 67.2885L74.707 67.4905C73.0372 69.2725 71.8387 71.5079 70.4023 73.474C69.913 74.1383 69.3654 74.7891 68.6607 75.2739C68.0951 75.5971 67.4846 75.8036 66.8787 75.9921C66.8068 76.0146 66.726 75.9831 66.6901 75.9203C66.2996 75.3188 65.6577 74.8969 65.137 74.2954C65.0607 74.2101 65.0922 74.0754 65.1909 74.0261C67.5026 72.8096 69.4686 70.9558 71.0442 68.882C72.6242 66.7903 73.8002 64.3933 74.4735 61.8662L74.5992 62.122C74.3703 62.0502 74.3883 61.745 74.5947 61.6956C74.6262 61.6866 74.6351 61.6866 74.6441 61.6866H74.6666C74.6666 61.6866 74.6666 61.6866 74.6666 61.6821L74.7967 62.0098C73.4007 64.1868 72.2516 66.521 70.8781 68.7518C69.4238 70.9558 67.5699 72.8949 65.3301 74.3089C64.8498 74.5916 64.4368 73.1822 64.4817 72.9308C64.4458 72.5627 64.5356 71.9837 64.4817 71.7278C64.4188 71.4944 64.2034 71.1847 64.4907 71.0321C66.7305 69.9548 68.315 67.9259 69.6168 65.8476C70.9768 63.7514 72.1394 61.534 73.1314 59.2403L73.2751 59.6173C73.2347 59.5994 73.293 59.6173 73.302 59.6218C73.311 59.6218 73.3244 59.6263 73.3603 59.6263C73.4456 59.6128 73.5534 59.5994 73.6162 59.4647C73.688 59.2941 73.6117 59.155 73.486 59.0832C73.477 59.0832 73.4546 59.0697 73.4501 59.0652L73.5758 59.4602C72.3998 61.6372 71.0936 63.7425 69.6213 65.7399C68.0951 67.7015 66.5106 69.6002 64.6837 71.288C64.558 71.4047 64.3515 71.3688 64.2752 71.2161C64.0104 70.6999 63.5795 70.2645 63.1306 69.8291C58.1706 65.0172 52.636 60.735 46.3563 57.7949C44.085 56.6279 42.1549 54.8458 40.6287 52.8214C39.8387 51.8339 39.0756 50.8285 38.2497 49.8948C37.352 48.9118 36.9839 47.646 36.2208 46.6944C34.6902 44.6969 32.6299 43.1932 30.803 41.4785C29.4025 40.1992 28.0559 38.8571 26.8125 37.4252C24.7118 35.0866 22.629 32.4562 22.1667 29.2513L22.3103 29.3769L22.1667 29.2109L22.1981 29.0044L22.3283 29.166H22.3193C22.2385 29.157 22.1802 29.0852 22.1891 29.0044C22.2475 28.1515 22.7951 27.0742 23.7737 27.0653C24.236 27.0563 24.6579 27.2044 25.0529 27.3121L26.2828 27.5904C27.4723 28.8832 28.415 30.4138 29.5102 31.7829C31.6648 34.4582 33.7296 37.3309 36.4991 39.4002C37.8906 40.4192 39.4123 41.2585 40.8397 42.2595L40.7095 42.273L40.7634 42.2146L40.7724 42.3628C39.7041 41.5099 38.4742 40.8366 37.3744 40.0107C33.9855 37.5778 31.5885 34.0452 29.1242 30.7415C26.808 27.3301 23.8904 24.2105 22.3283 20.3457C21.839 19.044 21.1567 17.6973 21.462 16.2565C21.9468 15.4216 23.1767 15.646 23.8724 16.041C25.228 17.9083 26.7676 19.5826 28.3117 21.2973C29.8244 23.0344 31.2833 24.8074 32.8857 26.4458C34.4657 28.1022 36.3106 29.4712 38.0836 30.9435C39.8612 32.4068 41.6073 33.9375 43.1065 35.7105L42.8372 35.6656C42.8776 35.6387 42.918 35.6162 42.9629 35.5983L42.8506 35.9305C41.7554 34.5345 40.4492 33.309 39.1609 32.0747C36.4857 29.7091 33.6219 27.4648 31.3371 24.6728C30.2149 23.2723 29.0524 21.9212 27.8898 20.5567C25.641 17.7871 23.033 15.0266 21.8749 11.5837C20.3847 5.78433 27.9077 9.58178 30.0264 11.274L29.6224 11.3189L30.1207 11.3952C30.1252 11.3773 29.6404 11.3099 29.6404 11.3054C29.9322 10.9957 30.372 11.3997 30.0803 11.7094L30.0533 11.2965L31.18 12.4366C33.4558 15.2734 35.9739 17.8859 38.4742 20.5252C39.924 22.0379 41.2437 23.6404 42.7564 25.0319C44.2691 26.4503 45.8177 27.8283 47.4426 29.1076L47.0386 29.1301L47.0925 29.0762L47.0745 29.4892C43.0437 24.7671 38.4158 20.5477 34.0528 16.1263C32.5042 14.6361 31.18 12.9707 29.6269 11.6017C28.415 9.40672 28.1097 5.26813 31.8174 5.98633C34.2189 6.6327 36.3555 8.04664 38.1644 9.72541C40.4133 12.257 42.9225 14.7438 45.6291 16.7906C46.8591 17.4415 48.9059 18.9901 50.2076 19.8519L54.7412 22.985C54.9522 23.1287 54.8893 23.3576 54.7951 23.5461L54.5078 23.0973L54.7188 23.1062L54.409 23.3037L54.427 23.2588L54.6245 23.6943C54.4719 23.6359 54.3776 23.6 54.2789 23.389L54.3013 23.4339C54.1442 23.1556 54.4629 22.801 54.7637 22.9985C54.9656 23.1107 55.1407 23.2723 55.0285 23.5147L54.831 23.0793C54.8669 23.0883 54.9073 23.0928 54.9387 23.1152C55.8544 23.8918 56.622 24.8478 57.5511 25.5481C57.6813 25.6289 58.202 25.8847 58.4938 25.9072C58.5521 25.9162 58.6105 25.9431 58.6509 25.979C60.3656 27.2897 65.7924 32.5146 67.7046 31.6482C69.334 30.7101 68.7415 26.1989 68.8761 24.4169C68.8627 22.2938 68.9883 20.1257 69.5539 18.0699C70.3484 15.04 72.0766 11.696 75.268 10.6591C76.3049 10.3718 78.0241 9.88252 78.2171 11.4266C78.3428 12.3693 78.1588 13.6979 78.1184 14.645L77.8805 17.8051C77.5663 21.9796 77.3239 26.3112 77.8311 30.4004C78.7333 34.2427 79.9542 38.0312 80.6276 41.9318C81.2021 44.7463 81.3413 47.9198 81.4759 50.797C81.651 53.7147 81.8171 56.8119 83.7248 59.1954C86.0364 62.3958 88.5636 65.4616 90.7316 68.7698C91.8358 70.4127 92.5091 72.3697 92.5989 74.3582C92.6124 74.4031 87.7242 79.61 87.7107 79.6459H87.6973ZM87.6524 79.601C87.6344 79.628 92.5765 74.2146 92.4867 74.3627C92.3565 70.2825 89.4119 67.1763 87.1407 64.0432C85.9691 62.4497 84.7123 60.928 83.5587 59.3076C81.9652 57.3281 81.5029 54.774 81.3457 52.3007C81.229 51.3447 81.1348 48.8579 81.0675 47.8524C80.8699 43.9114 80.0216 40.0241 79.0161 36.2177C78.4999 34.31 77.9298 32.4158 77.4855 30.4767C76.9333 26.2528 77.1623 21.9885 77.4496 17.7781L77.665 14.6181C77.6695 13.8101 77.8939 12.3019 77.7503 11.5119C77.6605 11.0226 77.4316 10.7668 76.8974 10.8386C76.3902 10.87 75.8875 10.9643 75.4072 11.1259C72.3908 12.1493 70.8287 15.2914 70.0746 18.2091C69.527 20.2469 69.4327 22.3207 69.4507 24.4214C69.3205 26.4413 70.0387 31.1231 67.9694 32.2228C66.2996 32.9365 64.6792 31.343 63.382 30.6652C61.573 29.3545 59.9167 27.8867 58.22 26.4817L58.3771 26.5536C56.7521 26.2573 55.7646 24.7042 54.6245 23.6943L54.6784 23.7346L54.5841 23.6718L54.6873 23.7167C54.4764 23.7032 54.3148 23.4878 54.4046 23.2858L54.4135 23.2633L54.4225 23.2454L54.5437 23.6449L54.3911 23.5461L54.8669 23.1466L54.8579 23.1377L54.8804 23.187C54.84 23.0928 54.8085 23.0883 54.8041 23.0793C54.7996 23.0793 54.8041 23.0793 54.813 23.0793C55.015 23.1421 55.0958 23.38 54.9926 23.5596C54.9073 23.7795 54.6559 23.7616 54.4674 23.7481C54.2878 23.7436 54.1487 23.591 54.1577 23.416C54.1577 23.3756 54.1667 23.3352 54.1846 23.3037L54.2519 23.1377L54.3731 23.5327L49.8306 20.3861C48.5154 19.5153 46.6032 18.052 45.2431 17.3113C43.8112 16.2879 42.5319 15.0894 41.2886 13.882C40.0542 12.6745 38.7794 11.485 37.6617 10.1249C36.966 9.46507 35.8348 8.57182 34.8697 8.01971C33.4917 7.29703 31.7007 6.04917 30.1476 6.74043C28.7696 7.74141 29.5641 9.99474 30.1745 11.3189C31.391 12.2077 33.0877 14.4026 34.4747 15.6774C38.8602 20.1257 43.4611 24.3272 47.5234 29.0897C47.6535 29.2423 47.5952 29.4443 47.4516 29.5565C47.3393 29.6687 47.1688 29.6732 47.0476 29.5789C43.7529 27.0159 40.7769 24.0219 38.0208 20.9292C35.5206 18.2854 32.9845 15.646 30.7042 12.8047L29.6404 11.7274C29.5102 11.6152 29.5102 11.3997 29.6404 11.283L30.0758 11.6825C29.9456 11.862 29.6539 11.8261 29.5686 11.6241L29.5641 11.6107L30.0623 11.687C29.9591 11.8082 29.784 11.8261 29.6583 11.7364C28.406 10.7219 22.3103 7.23867 22.2206 10.1743C22.2924 12.3737 23.7422 14.25 24.9362 16.0141C25.9731 17.4594 27.1132 18.8375 28.2668 20.2065C30.6055 22.9087 32.6972 25.8264 35.4129 28.183C38.0702 30.5799 40.925 32.8198 43.1693 35.6611L43.0571 35.9933C43.0571 36.0023 43.0571 36.0068 43.0481 36.0112C42.9584 36.0651 42.8417 36.0472 42.7788 35.9664C39.8432 32.4068 35.8393 29.9739 32.6209 26.6837C31.0094 25.0274 29.5551 23.2409 28.0514 21.5038C26.6015 19.8744 24.7208 17.8365 23.6749 16.261C23.0689 15.9468 22.0679 15.8345 21.7537 16.3238C21.5742 16.9432 21.7268 17.6255 21.9108 18.2764C22.2654 19.6006 22.8624 20.8484 23.4639 22.0738C25.0574 25.1037 27.4275 27.7296 29.3262 30.5754C30.9242 32.8198 32.5895 35.0282 34.4388 37.0706C36.2208 39.2207 38.6986 40.5359 40.8981 42.1877C40.9429 42.2236 40.9474 42.2909 40.907 42.3358L40.8532 42.3942C40.8173 42.4301 40.7634 42.4346 40.723 42.4076C39.3135 41.4067 37.7829 40.5807 36.3734 39.5528C33.5635 37.4701 31.4942 34.6063 29.3082 31.9176C28.3387 30.6293 26.9651 28.8473 26.2335 27.8373L24.9856 27.559C24.5726 27.4423 24.1731 27.3166 23.7826 27.3256C22.9567 27.3436 22.5393 28.2682 22.4809 29.0134L22.3507 28.8518C22.436 28.8518 22.4989 28.9281 22.4899 29.0089V29.0134L22.4585 29.2243L22.3148 29.0583C22.2565 28.9954 22.3597 28.9011 22.4181 28.9685C22.427 28.9775 22.4315 28.9909 22.436 29.0044L22.463 29.1839C23.2395 34.5614 29.9142 40.1947 33.8912 43.6869C34.8428 44.5308 35.745 45.4241 36.535 46.434C37.3475 47.4619 37.7245 48.7143 38.555 49.603C40.2292 51.4793 41.6118 53.6294 43.4835 55.2992C44.8975 56.5246 46.5538 57.4358 48.2595 58.2213C49.9563 59.0742 51.6126 60.0213 53.1926 61.0717C56.3706 63.1589 59.3017 65.5828 62.1117 68.1324C63.0318 69.0212 64.0822 69.8157 64.742 70.9558L64.3336 70.884C66.1201 69.2231 67.6956 67.3155 69.1859 65.3898C70.6267 63.4148 71.915 61.323 73.0731 59.164L73.1987 59.559H73.2122C73.2122 59.559 73.2122 59.568 73.2122 59.5635C72.8935 59.357 73.1763 58.8991 73.495 59.0607C73.6476 59.1191 73.7284 59.2941 73.6611 59.4468C72.6691 61.7719 71.493 64.0252 70.0971 66.1394C68.7415 68.276 67.0717 70.3857 64.7196 71.4944L64.8498 71.1488L64.9934 71.5797C65.0966 72.4012 64.7779 73.2271 65.3929 73.9094L65.0518 73.851C66.138 73.1777 67.139 72.3652 68.0412 71.454C70.8646 68.707 72.2741 65.0127 74.4287 61.7584L74.5588 62.0861L74.5947 62.0951C74.5947 62.0951 74.6127 62.0996 74.6351 62.1041C74.6486 62.1041 74.6621 62.1041 74.6935 62.1041C74.7159 62.0951 74.8057 62.0861 74.8551 61.9649C74.8865 61.8033 74.8326 61.7764 74.7833 61.7225C74.7833 61.7225 74.7518 61.7046 74.7698 61.7091C74.873 61.7495 74.9224 61.8617 74.8955 61.9649C73.8406 65.8387 71.6412 69.3803 68.6382 72.0376C67.6328 72.9174 66.551 73.7119 65.348 74.3223L65.4019 74.053C65.8687 74.6051 66.5285 75.0405 66.9684 75.7183L66.7799 75.651C67.359 75.4939 68.0098 75.2335 68.4766 74.9866C69.132 74.5378 69.6661 73.9183 70.1509 73.2675C71.6098 71.2924 72.8172 69.084 74.5184 67.293L74.5543 67.495L74.5768 67.5085L74.5947 67.5174L74.6172 67.5264C74.6172 67.5264 74.6306 67.5264 74.6486 67.5309C74.6621 67.5309 74.7159 67.5399 74.7653 67.4636C74.8012 67.3828 74.7653 67.3424 74.7653 67.3334C74.7563 67.3199 74.7518 67.3155 74.7474 67.311L74.7384 67.302C74.7967 67.3244 74.8371 67.4052 74.8102 67.4636C73.7598 70.3139 71.8791 72.7647 69.6841 74.8295C68.9659 75.5702 67.9021 75.826 66.9235 76.0056L66.9819 75.8799C67.5699 76.8405 67.2737 78.0704 67.7674 79.0489C68.5889 81.41 68.8761 84.3591 69.0198 86.5989C72.4177 87.5146 76.1254 87.4024 79.4201 86.1366C82.7103 84.7765 85.1432 82.007 87.6524 79.5741V79.601Z" fill="url(#paint8_linear_0_548)"/>
<path d="M15.7918 66.8223C15.8905 66.8312 16.097 66.8402 16.2227 66.7774C16.5459 66.6293 16.5459 66.1983 16.2676 66.0053C14.8537 64.9325 13.2557 63.936 12.0168 62.6972C14.8133 62.9575 17.6187 63.3839 20.4107 63.734L20.4241 63.6577C17.4975 63.1281 14.6068 62.5041 11.6487 62.1406C11.4647 62.1136 11.2492 62.2303 11.2403 62.4323C11.2403 62.6657 11.3121 62.6972 11.348 62.7735C11.5365 63.0428 11.7789 63.2672 12.0033 63.4827C12.8831 64.2906 13.8033 65.0447 14.7325 65.7899C13.6327 65.543 11.9674 65.1435 11.1684 64.9729L10.4547 64.8248C10.1405 64.735 9.56597 64.735 9.66472 65.2378C9.85325 65.7764 10.2123 66.0682 10.5759 66.4542L10.6343 66.4048C10.4143 66.0547 10.0373 65.4891 10.0148 65.1704C11.6622 65.7091 13.4622 66.351 15.2172 66.728C15.3968 66.7684 15.6078 66.7953 15.7918 66.8178V66.8223Z" fill="url(#paint9_linear_0_548)"/>
<path d="M15.7948 66.7911C16.2347 66.8808 16.6477 66.5128 16.3155 66.1088C14.8387 65.0001 13.2004 64.1607 11.8313 62.8814C11.6473 62.7243 11.8044 62.4056 12.0378 62.446C14.5021 62.5582 17.9674 63.2091 20.4227 63.6086L20.2745 63.7208L20.288 63.6669L20.3957 63.7971L18.0751 63.3303C16.2572 62.9936 14.0577 62.6345 12.2308 62.455L11.6428 62.3966C11.5306 62.3742 11.4812 62.455 11.4946 62.455C11.535 62.7108 11.9705 63.0744 12.3251 63.3886C12.8817 63.842 14.3674 65.0674 14.9375 65.5387C15.2113 65.7452 14.9824 66.2075 14.6547 66.1267C13.6223 65.9068 12.4822 65.6464 11.4498 65.4085C11.3824 65.3816 11.0503 65.3367 11.0323 65.2873C11.0188 65.2649 11.0458 65.1841 11.0054 65.0809C10.9695 64.9776 10.8842 64.8923 10.7944 64.834L10.359 65.1617C10.2423 65.1257 10.0762 65.1168 9.99991 65.1392C9.95951 65.1527 9.96849 65.1572 9.98196 65.1392C9.99093 65.1213 9.98196 65.1392 9.98196 65.1841L9.96849 65.1347C10.0403 65.3367 10.1391 65.5208 10.2827 65.7003C10.4263 65.8798 10.6059 66.0549 10.7809 66.2569L10.377 66.23L10.4398 66.1806L10.377 66.5621C10.1391 66.1222 9.82485 65.7183 9.77099 65.1886C9.74854 65.018 9.92809 64.8834 10.0852 64.9462C11.957 65.6419 13.8063 66.4813 15.7903 66.7911H15.7948ZM15.7858 66.8539C13.7974 66.5487 11.8762 65.9202 9.93707 65.3996L10.2513 65.1572C10.3635 65.5477 10.6508 65.8978 10.8797 66.2479C10.965 66.3736 10.9336 66.5397 10.8169 66.6295C10.7001 66.7596 10.4982 66.8045 10.368 66.6699C9.97747 66.2883 9.50166 65.8619 9.33558 65.2963C9.17848 64.5557 9.98644 64.3088 10.543 64.4928L10.1076 64.8205C10.3321 64.7487 10.6597 64.5467 10.9425 64.5916C11.2253 64.614 11.3645 64.6679 11.5934 64.7128C12.6303 64.9507 13.7704 65.211 14.7983 65.4669L14.5155 66.0549L12.7874 64.5557C12.2353 64.0574 11.4408 63.4694 11.0682 62.8365C10.763 62.3158 11.2208 61.7906 11.7056 61.9029C13.0388 62.1138 14.4707 62.3876 15.7858 62.6659C17.1459 62.9397 19.085 63.3258 20.4406 63.5278C20.508 63.5323 20.5573 63.5906 20.5484 63.6579L20.5349 63.7567C20.5259 63.8285 20.4586 63.8779 20.3868 63.8689C17.9 63.6355 14.4213 63.2809 11.9839 62.9532L12.1904 62.5178C12.9445 63.3258 13.8153 64.044 14.7041 64.7352C14.9509 64.9372 16.1584 65.8484 16.3739 66.0504C16.7464 66.5083 16.2976 66.9661 15.7858 66.8539Z" fill="url(#paint10_linear_0_548)"/>
<path d="M18.9469 78.8296C17.5733 78.3314 16.2267 77.6491 15.1539 76.6346L15.0911 76.684C15.5444 77.299 16.1235 77.7972 16.7339 78.2551C18.6012 79.5433 20.8456 80.6161 23.1663 80.2211L23.1752 80.1448C22.8161 79.9832 22.4615 79.871 22.1069 79.7588C21.0655 79.3817 19.9972 79.1663 18.9469 78.8341V78.8296Z" fill="url(#paint11_linear_0_548)"/>
<path d="M18.9323 78.8608C18.3129 78.6363 17.4376 78.358 16.8361 78.0977C16.1358 77.8104 15.4895 77.384 14.9598 76.8364L15.3234 76.8543L15.2605 76.8992L15.3099 76.5177C16.9079 78.9999 20.2385 80.2343 23.1068 79.8752L22.8195 80.1805L22.8285 80.1042L23.0305 80.4588C22.6983 80.3286 22.3617 80.2074 22.034 80.0593C21.0465 79.6328 19.9602 79.175 18.9368 78.8608H18.9323ZM18.9547 78.7979C20.4046 79.2019 21.8904 79.2289 23.3178 79.8259C23.4704 79.8752 23.5467 80.0323 23.5198 80.1805C23.5242 80.3645 23.412 80.544 23.2235 80.5665C20.7816 81.0288 18.6001 79.6598 16.679 78.3491C16.0461 77.9092 15.3862 77.4738 14.8655 76.8454C14.7668 76.7286 14.7937 76.5536 14.9149 76.4638C15.0226 76.3471 15.1977 76.3022 15.3189 76.4144C16.4231 77.3212 17.5767 78.3042 18.9503 78.7979H18.9547Z" fill="url(#paint12_linear_0_548)"/>
<path d="M20.2101 81.2754C19.272 80.656 18.3024 80.0949 17.288 79.6146L17.2476 79.682C17.6875 80.0231 18.1318 80.3598 18.5583 80.7144C19.4381 81.3652 20.2101 82.1732 21.0181 82.8824C21.431 83.2325 21.844 83.5198 22.2166 83.9507L22.2929 83.9328C22.3108 83.6275 22.2121 83.3088 22.0684 83.053C21.6734 82.2495 20.9373 81.7333 20.2146 81.2799L20.2101 81.2754Z" fill="url(#paint13_linear_0_548)"/>
<path d="M20.1947 81.3035C19.2655 80.684 18.1209 80.4461 17.1693 79.8626L17.5239 79.7549L17.479 79.8177L17.4117 79.4631C18.9333 81.1149 20.868 82.1563 22.4794 83.7184L22.1293 83.6062L22.2056 83.5882L21.9408 83.9069C21.8824 82.8476 21.07 81.8646 20.1947 81.299V81.3035ZM20.2306 81.2496C20.9936 81.7209 21.9273 82.1025 22.3762 82.9418C22.5423 83.2516 22.9103 84.1044 22.3762 84.275C22.2236 84.3289 22.0485 84.3064 21.9497 84.1807C21.6266 83.8082 21.2226 83.476 20.7961 83.09C19.9882 82.3359 19.4002 81.3932 18.471 80.7783C18.0266 80.4596 17.5373 80.1993 17.084 79.894C16.9763 79.8222 16.9448 79.6831 16.9987 79.5753C17.0077 79.5484 17.0391 79.499 17.0526 79.4721C17.1154 79.3554 17.2501 79.306 17.3713 79.3509C18.4755 79.7279 19.2835 80.6212 20.2306 81.2451V81.2496Z" fill="url(#paint14_linear_0_548)"/>
<path d="M79.1904 73.0438C77.2109 74.3814 74.6703 74.5834 72.7671 76.1185L72.8075 76.1859C74.5177 75.5709 76.3446 75.3958 77.9829 74.5565C80.6986 73.1021 82.6287 70.5974 84.4063 68.169L84.3434 68.1241C82.7903 69.9106 81.125 71.6972 79.1904 73.0483V73.0438Z" fill="url(#paint15_linear_0_548)"/>
<path d="M79.2096 73.0706C77.2526 74.3947 74.8466 74.9423 72.9434 76.3338L73.0108 75.9837C73.0467 76.0466 73.0691 76.1184 73.0826 76.1857L72.7145 75.9299C74.483 75.3777 76.3369 75.3463 77.9573 74.4441C79.5239 73.5419 80.7762 72.2087 81.9343 70.8352C82.7019 69.915 83.4021 68.932 84.1293 67.9579L84.2011 68.4427C84.3133 68.4966 84.4255 68.5459 84.6185 68.3933C84.7487 68.2542 84.7218 68.1195 84.7173 68.0791C84.7038 67.9938 84.6679 67.9669 84.641 67.922L84.614 68.344C83.0565 70.1753 81.1892 71.7105 79.2141 73.0661L79.2096 73.0706ZM79.1693 73.0167C80.8974 71.8496 82.6974 69.4527 84.0799 67.8906L84.053 68.3125C84.0215 68.1779 83.9632 68.0881 84.1338 67.8906C84.2819 67.7694 84.4121 67.8008 84.4569 67.8098C84.7173 67.8726 84.8475 68.1599 84.6859 68.3754C82.5762 71.3334 79.9458 74.2601 76.3414 75.3104C75.1788 75.6875 73.9938 76.0017 72.894 76.4461L72.526 76.1902C72.4901 76.4281 72.5933 75.9029 72.5888 75.9074C74.4471 74.2421 77.1448 74.3678 79.1648 73.0212L79.1693 73.0167Z" fill="url(#paint16_linear_0_548)"/>
<path d="M80.9803 78.4301C80.0736 79.3144 79.5753 80.5398 78.5564 81.3298C76.8237 82.6271 74.7949 83.5742 72.7705 84.3417C72.4742 84.4495 72.1735 84.5348 71.8637 84.5572L71.8503 84.6335C72.5101 84.7861 73.1834 84.6649 73.8163 84.5303C75.7509 84.1038 77.515 83.1433 78.9738 81.7966C79.9703 80.9393 80.4102 79.6645 81.2721 78.6905C82.071 77.7254 83.0361 76.8681 84.1089 76.1903L84.073 76.1229C82.9329 76.7199 81.8915 77.501 80.9803 78.4301Z" fill="url(#paint17_linear_0_548)"/>
<path d="M81.0034 78.4523C80.0025 79.4443 79.5312 80.9346 78.3372 81.774C76.4564 83.2149 74.1986 84.2293 71.8734 84.6737L71.9767 84.5794L71.9587 84.6557L71.8734 84.53C72.4794 84.6872 73.1303 84.5839 73.7542 84.4403C75.6215 83.9914 77.3003 82.941 78.6873 81.6438C79.6254 80.8493 80.0429 79.597 80.9406 78.5421C81.789 77.5277 82.8169 76.6299 83.9884 76.0105L83.9121 76.3023L83.8807 76.2304L84.1725 76.3202C83.0009 76.8319 81.9012 77.5411 81.0034 78.4568V78.4523ZM80.9586 78.403C81.8653 77.4693 82.8573 76.6075 83.975 75.9252C84.0782 75.8624 84.2129 75.9073 84.2667 76.015C84.361 76.1317 84.37 76.2888 84.2308 76.3741C82.6777 77.5187 81.3985 78.8743 80.4065 80.5441C78.979 82.7974 76.3621 84.1261 73.7991 84.6378C73.1617 84.7635 72.4929 84.8757 71.8241 84.7365C71.7253 84.7096 71.7298 84.6153 71.7522 84.53C71.7612 84.4762 71.8061 84.4403 71.8555 84.4358C72.7532 84.3011 73.5881 83.7715 74.414 83.3989C75.6619 82.766 76.8828 82.1196 78.0723 81.388C79.3381 80.7057 79.9666 79.3905 80.9586 78.3985V78.403Z" fill="url(#paint18_linear_0_548)"/>
<path d="M87.672 80.0235C85.9797 81.7472 84.2426 83.4529 82.3394 84.9297C78.8696 87.7531 73.2318 88.2693 68.9945 87.0842C68.6982 84.5392 68.5636 81.9447 67.6927 79.5118C67.208 78.5916 67.4773 77.5502 67.0105 76.5807C66.979 76.4999 66.9386 76.4281 66.8982 76.3518C67.7825 76.1857 68.6892 75.9702 69.3895 75.3957C71.6563 73.286 73.6178 70.7813 74.6817 67.8502L74.6143 67.8098C73.2094 69.3269 72.1321 71.0371 71.0234 72.7563C70.2917 73.7618 69.5915 74.8525 68.568 75.5483C68.0339 75.849 67.4279 76.0555 66.8309 76.2395C66.4224 75.6066 65.7447 75.1578 65.2689 74.5967C66.3506 74.0535 67.3336 73.3264 68.2628 72.5543C71.3465 69.8925 73.6313 66.2791 74.6817 62.338L74.6098 62.3066C73.1465 64.5689 71.975 66.9569 70.5565 69.2237C69.1381 71.284 67.3292 73.1693 65.188 74.5024C64.9277 74.1702 64.7437 73.7932 64.7392 73.3174C64.6898 72.8865 64.8155 72.5543 64.7392 72.0785C64.7033 71.9438 64.6584 71.8137 64.6045 71.688C66.8489 70.6242 68.4828 68.5908 69.7845 66.5305C71.1984 64.3849 72.3879 62.1091 73.3979 59.766L73.3261 59.7346C72.1231 61.97 70.7765 64.138 69.2683 66.1759C67.7735 68.0656 66.2833 69.8746 64.5103 71.5129C64.0973 70.7184 63.3477 70.1304 62.7776 69.5289C58.0376 65.13 52.9339 61.0363 47.0268 58.3206C45.6083 57.5845 44.2572 56.7496 43.0992 55.6813C41.4787 54.1776 39.9571 51.9332 38.4354 50.2095C37.587 49.3073 37.2234 48.1358 36.5142 47.1662C35.7826 46.1832 34.9118 45.3169 34.023 44.482C31.5856 42.3813 29.1662 40.2761 27.0431 37.8387C24.9334 35.5091 22.7698 32.8428 22.3165 29.6423C22.3254 29.575 22.3389 29.5032 22.3479 29.4358H22.3389C22.3838 29.0094 22.4915 28.5965 22.7205 28.2733C23.3264 27.3396 24.112 27.6 25.0411 27.8648C25.4316 27.9546 25.8311 28.0623 26.2665 28.1386C26.4281 28.3316 26.5852 28.5291 26.7468 28.7221C27.9408 30.2752 29.0765 31.8867 30.3108 33.4039C31.7966 35.2397 33.2689 37.0936 34.9971 38.714C36.7297 40.3344 38.8753 41.4027 40.792 42.7538L40.8458 42.6955C40.2399 42.1793 39.5576 41.7887 38.9112 41.3489C37.614 40.487 36.3347 39.5713 35.2125 38.4851C32.5103 35.6751 30.1986 32.4702 27.9722 29.2877C26.1319 26.7606 24.112 24.4085 22.8417 21.5133C22.5095 20.8175 22.2087 20.1083 21.9664 19.3811C21.7105 18.5103 21.3738 17.5722 21.6207 16.7149C22.0382 16.073 22.9584 16.1942 23.7573 16.5533C23.7663 16.5622 23.7708 16.5712 23.7798 16.5847C24.8885 18.066 26.0466 19.5023 27.3259 20.84C29.7542 23.5377 31.9986 26.5137 34.813 28.9152C37.6095 31.2672 40.599 33.4532 42.96 36.2632L43.0273 36.2228C41.8872 34.7684 40.5496 33.5116 39.2209 32.2323C36.4693 29.8174 33.6011 27.5416 31.3073 24.6554C28.4974 21.1228 25.2162 17.8056 22.9539 13.86C21.6207 11.3643 21.0417 8.18632 25.0411 9.46112C26.7693 9.97732 28.3987 10.8616 29.8575 11.9344L29.8844 11.9075L29.8575 11.9389C30.2435 12.2845 30.6116 12.6481 30.9482 13.0386C33.224 15.8755 35.7556 18.5058 38.2514 21.1452C39.6922 22.6489 41.0209 24.2649 42.547 25.6698C44.0642 27.0927 45.6173 28.4753 47.2557 29.768L47.3096 29.7141C43.2787 24.983 38.6239 20.7412 34.2744 16.3243C32.7572 14.9014 31.5048 13.2182 29.9114 11.8805C28.273 8.57684 29.0001 5.24174 33.2689 7.23472C34.9611 8.00678 36.5816 9.05264 37.9237 10.3454C38.6419 11.2207 39.4678 12.0601 40.2758 12.8546C41.9456 14.466 43.5435 16.1044 45.4467 17.469C46.1021 17.8146 46.744 18.25 47.3544 18.6854C49.7514 20.3417 52.1125 22.0744 54.5633 23.6768L54.496 23.8429C54.5498 23.8429 54.6576 23.8474 54.7114 23.8519L54.7294 23.807C54.6576 23.7846 54.6037 23.7487 54.5902 23.7038C54.5902 23.6993 54.5902 23.6948 54.5902 23.6903C54.6396 23.7217 54.689 23.7576 54.7428 23.7891L54.7339 23.807C54.7339 23.807 54.7653 23.816 54.7788 23.816C54.8102 23.8339 54.8416 23.8564 54.873 23.8788C55.6765 24.6778 56.471 25.5262 57.3508 26.2264C57.674 26.4149 58.0151 26.581 58.446 26.6484C59.9497 27.9007 61.9831 29.6558 63.5542 30.7914C64.5147 31.3076 65.3586 32.0528 66.4359 32.3894C69.2907 33.2378 69.1112 29.2967 69.1695 27.4967C69.1875 25.6115 69.1022 22.7701 69.3446 20.9432C69.8069 17.7832 70.8707 14.4032 73.4293 12.3249C74.4752 11.4945 75.8083 11.0277 77.128 11.0052C78.0347 11.0367 78.0392 12.0646 78.0302 12.7648C77.716 18.7482 76.8901 24.8574 77.6577 30.8498C78.2636 33.5295 79.1165 36.142 79.727 38.8083C80.4855 41.9952 81.0781 45.2226 81.2082 48.4949C81.2082 49.5811 81.3025 50.6943 81.3833 51.7851C81.5853 53.9666 81.6616 56.3007 82.7479 58.2668C83.7264 59.977 85.4545 62.0148 86.6261 63.6263C87.9458 65.3724 89.2744 67.114 90.4819 68.9274C91.0789 69.8252 91.6355 70.7364 91.9452 71.7688C92.2594 72.7204 92.5287 73.7797 92.5422 74.7672C90.9712 76.5627 89.3462 78.3223 87.6809 80.028L87.672 80.0235Z" fill="url(#paint19_linear_0_548)" fill-opacity="0.25"/>
</g>
<defs>
<linearGradient id="paint0_linear_0_548" x1="30.2913" y1="37.0789" x2="30.9173" y2="87.3932" gradientUnits="userSpaceOnUse">
<stop stop-color="#302921"/>
<stop offset="1" stop-color="#302921" stop-opacity="0"/>
</linearGradient>
<linearGradient id="paint1_linear_0_548" x1="46.9064" y1="0.295776" x2="46.9064" y2="88.1747" gradientUnits="userSpaceOnUse">
<stop stop-color="#E4BF86"/>
<stop offset="1" stop-color="#E4BF86" stop-opacity="0.07"/>
</linearGradient>
<linearGradient id="paint2_linear_0_548" x1="46.7761" y1="0.10791" x2="46.7761" y2="88.5206" gradientUnits="userSpaceOnUse">
<stop stop-color="#E4BF86"/>
<stop offset="1" stop-color="#E4BF86" stop-opacity="0.07"/>
</linearGradient>
<linearGradient id="paint3_linear_0_548" x1="57.2846" y1="19.1433" x2="57.2846" y2="26.3181" gradientUnits="userSpaceOnUse">
<stop stop-color="#E4BF86"/>
<stop offset="1" stop-color="#E4BF86" stop-opacity="0.07"/>
</linearGradient>
<linearGradient id="paint4_linear_0_548" x1="54.5046" y1="8.34875" x2="54.5046" y2="23.4861" gradientUnits="userSpaceOnUse">
<stop stop-color="#E4BF86"/>
<stop offset="1" stop-color="#E4BF86" stop-opacity="0.07"/>
</linearGradient>
<linearGradient id="paint5_linear_0_548" x1="50.6947" y1="1.74939" x2="50.6947" y2="19.556" gradientUnits="userSpaceOnUse">
<stop stop-color="#E4BF86"/>
<stop offset="1" stop-color="#E4BF86" stop-opacity="0.07"/>
</linearGradient>
<linearGradient id="paint6_linear_0_548" x1="43.8413" y1="0.968994" x2="43.8413" y2="15.2061" gradientUnits="userSpaceOnUse">
<stop stop-color="#E4BF86"/>
<stop offset="1" stop-color="#E4BF86" stop-opacity="0.07"/>
</linearGradient>
<linearGradient id="paint7_linear_0_548" x1="21.1695" y1="15.074" x2="21.1695" y2="87.3588" gradientUnits="userSpaceOnUse">
<stop stop-color="#E4BF86"/>
<stop offset="1" stop-color="#E4BF86" stop-opacity="0.07"/>
</linearGradient>
<linearGradient id="paint8_linear_0_548" x1="56.9925" y1="5.90369" x2="56.9925" y2="87.335" gradientUnits="userSpaceOnUse">
<stop stop-color="#E4BF86"/>
<stop offset="1" stop-color="#E4BF86" stop-opacity="0.07"/>
</linearGradient>
<linearGradient id="paint9_linear_0_548" x1="15.0388" y1="62.1367" x2="15.0388" y2="66.8286" gradientUnits="userSpaceOnUse">
<stop stop-color="#E4BF86"/>
<stop offset="1" stop-color="#E4BF86" stop-opacity="0.07"/>
</linearGradient>
<linearGradient id="paint10_linear_0_548" x1="14.9326" y1="61.8876" x2="14.9326" y2="66.8711" gradientUnits="userSpaceOnUse">
<stop stop-color="#E4BF86"/>
<stop offset="1" stop-color="#E4BF86" stop-opacity="0.07"/>
</linearGradient>
<linearGradient id="paint11_linear_0_548" x1="19.1332" y1="76.6346" x2="19.1332" y2="80.3042" gradientUnits="userSpaceOnUse">
<stop stop-color="#E4BF86"/>
<stop offset="1" stop-color="#E4BF86" stop-opacity="0.07"/>
</linearGradient>
<linearGradient id="paint12_linear_0_548" x1="19.1652" y1="76.3497" x2="19.1652" y2="80.6583" gradientUnits="userSpaceOnUse">
<stop stop-color="#E4BF86"/>
<stop offset="1" stop-color="#E4BF86" stop-opacity="0.07"/>
</linearGradient>
<linearGradient id="paint13_linear_0_548" x1="19.7713" y1="79.6146" x2="19.7713" y2="83.9507" gradientUnits="userSpaceOnUse">
<stop stop-color="#E4BF86"/>
<stop offset="1" stop-color="#E4BF86" stop-opacity="0.07"/>
</linearGradient>
<linearGradient id="paint14_linear_0_548" x1="19.8139" y1="79.3345" x2="19.8139" y2="84.3024" gradientUnits="userSpaceOnUse">
<stop stop-color="#E4BF86"/>
<stop offset="1" stop-color="#E4BF86" stop-opacity="0.07"/>
</linearGradient>
<linearGradient id="paint15_linear_0_548" x1="78.5867" y1="68.1241" x2="78.5867" y2="76.1859" gradientUnits="userSpaceOnUse">
<stop stop-color="#E4BF86"/>
<stop offset="1" stop-color="#E4BF86" stop-opacity="0.07"/>
</linearGradient>
<linearGradient id="paint16_linear_0_548" x1="78.6376" y1="67.7994" x2="78.6376" y2="76.4461" gradientUnits="userSpaceOnUse">
<stop stop-color="#E4BF86"/>
<stop offset="1" stop-color="#E4BF86" stop-opacity="0.07"/>
</linearGradient>
<linearGradient id="paint17_linear_0_548" x1="77.9796" y1="76.1229" x2="77.9796" y2="84.7045" gradientUnits="userSpaceOnUse">
<stop stop-color="#E4BF86"/>
<stop offset="1" stop-color="#E4BF86" stop-opacity="0.07"/>
</linearGradient>
<linearGradient id="paint18_linear_0_548" x1="78.0378" y1="75.8965" x2="78.0378" y2="84.8007" gradientUnits="userSpaceOnUse">
<stop stop-color="#E4BF86"/>
<stop offset="1" stop-color="#E4BF86" stop-opacity="0.07"/>
</linearGradient>
<linearGradient id="paint19_linear_0_548" x1="31.2798" y1="20.2554" x2="84.1595" y2="82.6434" gradientUnits="userSpaceOnUse">
<stop stop-color="#302921"/>
<stop offset="1" stop-color="#302921" stop-opacity="0"/>
</linearGradient>
</defs>
</svg>
