<svg width="114" height="80" viewBox="0 0 114 80" fill="none" xmlns="http://www.w3.org/2000/svg">
<g style="mix-blend-mode:screen">
<path d="M111.297 52.8495C111.613 53.1802 113.262 54.7646 113.588 55.0903C110.893 58.7428 106.559 65.9244 100.009 73.1257C96.8553 71.9905 95.4732 68.3133 95.1179 66.4032C94.5848 63.4367 95.4387 60.4111 95.5917 57.4052C95.7348 54.6116 95.2462 51.7833 94.185 49.197C93.5927 47.7459 92.7832 46.3342 91.5542 45.3619C89.5305 43.7578 86.7418 43.6245 84.1654 43.6837C81.5889 43.7429 78.8742 43.9058 76.5741 42.741C76.5741 42.741 74.9256 41.9019 73.2276 41.2553C73.0648 41.1122 72.8969 40.9641 72.7341 40.8259L72.7242 40.816C70.3896 38.8318 68.3017 37.588 66.4557 37.1339C64.2939 36.6058 60.133 36.4775 60.133 36.4775C59.437 36.053 58.8053 35.5298 58.2673 34.8635C57.6602 34.1083 57.2258 33.2149 56.5249 32.5338C56.4756 32.4844 56.4213 32.4351 56.367 32.3906C56.1301 31.6305 55.9968 30.8359 55.982 30.0412C55.9623 29.0096 57.132 28.368 57.9662 28.9701C57.9662 28.9751 57.981 28.98 57.9859 28.98C58.5289 29.3749 59.0027 29.8684 59.5901 30.2041C60.6463 30.8013 61.979 30.8161 63.134 30.441C64.2939 30.0659 65.3057 29.3453 66.2188 28.5259C66.5495 28.2298 66.8654 27.9237 67.2208 27.6621H67.2455C67.4133 28.289 67.7785 28.8665 68.277 29.2761C68.4399 29.4094 68.6226 29.5328 68.815 29.6266C69.0421 29.7401 69.279 29.824 69.5209 29.8833C69.5209 29.8833 72.0727 28.6345 72.3935 28.1113C72.7143 27.5881 71.742 25.446 70.434 25.446C69.126 25.446 67.1467 26.4973 67.1467 26.4973C67.2356 25.8408 67.5466 25.2239 68.0155 24.755C67.7539 24.7895 67.4774 24.7994 67.2109 24.7747C70.4093 22.7362 70.049 22.2032 70.3797 21.5615C70.7055 20.9199 69.6048 18.4865 68.1388 18.3631C66.663 18.2496 63.4252 21.5615 63.4252 21.5615C63.0698 20.0808 63.5387 18.6543 64.6887 17.4796C65.0787 17.0848 65.4785 16.6899 65.8783 16.3148C69.5011 12.835 73.5731 9.82914 77.966 7.38099C78.9976 6.80844 80.0588 6.2655 81.2039 5.96936C81.5494 5.88051 81.89 5.82128 82.2404 5.78673C84.6639 5.53501 87.2009 6.45306 88.8544 8.24475C89.9007 9.39479 90.651 10.8903 92.0231 11.6258C93.336 12.3316 95.0093 12.2082 96.2432 13.0473C97.7733 14.0838 98.0695 16.1519 98.6321 17.914C98.7654 18.3335 98.9332 18.7679 99.2837 19.0393C99.5601 19.2516 99.9056 19.3404 100.226 19.4638C103.395 20.6484 102.63 23.2249 102.581 25.8458C102.556 27.3314 103.208 28.7332 103.815 30.0856C105.587 34.0343 107.107 38.1852 107.299 42.5139C107.373 44.3056 107.201 46.1368 106.742 47.8742C107.265 48.4961 107.808 49.1082 108.351 49.7103C108.351 49.7153 108.356 49.7153 108.361 49.7202C109.111 50.9393 110.137 51.9216 111.273 52.8445C111.273 52.8445 111.273 52.8445 111.278 52.8445L111.297 52.8495ZM73.3066 34.0984C73.3066 34.0984 73.8249 33.3136 73.3066 32.1932C72.7884 31.0925 68.3758 31.6749 68.1981 31.6996C68.2425 31.9908 68.3264 32.2722 68.4597 32.5288C68.9532 33.4469 70.0441 33.8566 71.0707 34.0145C71.816 34.128 72.5564 34.1527 73.3017 34.1033L73.3066 34.0984Z" fill="url(#paint0_linear_0_453)" fill-opacity="0.25"/>
<path d="M81.5831 5.30318C81.9928 5.3476 82.1063 5.52529 82.2494 5.78688C81.899 5.82143 81.5584 5.8856 81.2129 5.96951C80.0678 6.26565 79.0066 6.80859 77.975 7.38114C73.5822 9.82436 69.5101 12.8303 65.8873 16.3149C65.4924 15.9053 65.3147 15.2883 65.3888 14.7108L65.9465 13.6792C68.0936 9.86384 70.5269 6.2163 73.2219 2.76618C73.6414 2.22818 74.1004 1.68031 74.7322 1.43845C76.0205 0.944874 77.3877 1.91722 78.3205 2.934C79.2485 3.95077 80.2109 5.16004 81.5831 5.30811V5.30318Z" fill="#363028" fill-opacity="0.25"/>
<path d="M73.308 32.1881C73.8262 33.3135 73.308 34.0934 73.308 34.0934C72.5627 34.1427 71.8223 34.123 71.077 34.0045C70.0503 33.8515 68.9546 33.4369 68.4659 32.5188C68.3277 32.2622 68.2438 31.9808 68.2043 31.6896C68.382 31.6649 72.7946 31.0776 73.3129 32.1832L73.308 32.1881Z" fill="#826F53" fill-opacity="0.25"/>
<path d="M70.4455 25.451C71.7535 25.451 72.7258 27.5981 72.405 28.1164C72.0842 28.6346 69.5324 29.8883 69.5324 29.8883C69.2856 29.8291 69.0536 29.7452 68.8266 29.6317C68.6341 29.5379 68.4514 29.4145 68.2886 29.2812C67.7901 28.8716 67.4248 28.2941 67.257 27.6623C67.1484 27.2822 67.1139 26.8923 67.1681 26.5024C67.1681 26.5024 69.1523 25.451 70.4554 25.451H70.4455Z" fill="#826F53" fill-opacity="0.25"/>
<path d="M68.1485 18.3684C69.6194 18.4869 70.7151 20.9251 70.3893 21.5668C70.0586 22.2084 70.419 22.7415 67.2206 24.775C65.7349 24.6665 64.3035 23.7336 63.7013 22.3516C63.5829 22.09 63.494 21.8234 63.4348 21.5618C63.4348 21.5618 66.6727 18.2549 68.1485 18.3635V18.3684Z" fill="#826F53" fill-opacity="0.25"/>
<path d="M47.6342 11.9271C51.4693 11.9271 54.5838 15.0367 54.5838 18.8767C54.5838 22.7168 51.4693 25.8263 47.6342 25.8263C44.3174 25.8263 41.5435 23.4966 40.8574 20.3821C40.7488 19.8984 40.6896 19.395 40.6896 18.8767C40.6896 15.0367 43.7991 11.9271 47.6392 11.9271H47.6342ZM51.4447 18.8718C51.4447 16.5322 49.5444 14.6319 47.2048 14.6319C44.8653 14.6319 42.9699 16.5322 42.9699 18.8718C42.9699 21.2113 44.8653 23.1067 47.2048 23.1067C49.5444 23.1067 51.4447 21.2113 51.4447 18.8718Z" fill="#363028" fill-opacity="0.25"/>
<path d="M49.7753 29.0539C50.2541 29.8436 50.644 30.737 50.3084 31.5662C49.9136 32.5583 48.5661 32.9038 47.5641 32.5287C46.5572 32.1585 45.1209 31.2158 44.5237 30.3224C44.8248 31.581 44.2177 32.8544 43.7932 34.0785C43.3835 35.2828 43.1466 36.5464 43.1022 37.8149H42.9738C42.9738 37.8149 41.4191 39.0488 41.3697 40.1347C41.3203 41.1614 41.3648 41.8228 41.3697 41.882C41.1871 41.8672 41.0143 41.7981 40.8662 41.6747H40.6935C40.7132 43.8366 39.272 45.7072 38.3194 47.6519C37.9492 48.412 37.6481 49.2018 37.4211 50.0162C37.4211 50.0162 36.039 50.0606 35.6343 51.5709C35.3727 52.5334 35.4468 53.027 35.5307 53.259C35.6442 53.3034 35.7626 53.3281 35.8811 53.333V53.4169C36.0242 53.4367 36.1772 53.4416 36.3303 53.4317C35.2296 58.1405 34.0795 62.9578 31.3945 66.9805C30.7923 67.8739 30.121 68.7277 29.5287 69.6261C27.7272 72.3605 24.7904 77.3851 22.7272 79.8382L0.777771 79.6309C1.60698 78.4118 3.43323 75.6477 4.26244 74.4286C6.28611 71.4424 8.38382 68.2885 8.84285 64.6212C9.18836 61.8571 8.59113 59.0684 7.99883 56.3389C6.37496 48.8957 4.33154 38.8465 10.2002 32.6471C12.0758 30.6629 14.5042 29.3253 16.8141 27.8742C18.7737 26.6403 20.6739 25.3125 22.5002 23.896C24.8397 22.0796 27.0806 20.1053 29.6275 18.5801C30.3974 18.1211 31.2168 17.6966 32.1052 17.5831C34.198 17.3215 36.0193 18.7085 37.8061 19.5624C38.6748 19.9819 39.6274 20.4014 40.6145 20.3916C40.7034 20.3916 40.7823 20.3916 40.8662 20.3768C41.5573 23.4912 44.3262 25.8209 47.6431 25.8209C48.2699 26.7735 48.9017 27.7261 49.5335 28.6738C49.6174 28.7923 49.6964 28.9206 49.7803 29.0539H49.7753ZM32.4162 50.3962C30.6541 47.5581 26.9523 50.9786 26.7844 51.1317C26.8042 51.2304 26.8239 51.3192 26.8486 51.4081C26.9769 51.8967 27.1842 52.4199 27.6285 52.6568C29.0845 53.4367 31.4734 51.2501 32.4162 50.3913V50.3962ZM29.2227 39.7695C29.2622 39.7152 29.282 39.6806 29.2474 39.6708C29.2425 39.7053 29.2277 39.7349 29.2227 39.7695C29.124 39.9077 28.8822 40.1545 28.9611 40.1643C28.9364 40.3075 28.9068 40.4457 28.892 40.5888C29.0352 40.3272 29.1536 40.0557 29.2227 39.7645V39.7695Z" fill="url(#paint1_linear_0_453)" fill-opacity="0.25"/>
<path d="M47.2072 14.6315C49.5468 14.6315 51.447 16.5317 51.447 18.8713C51.447 21.2109 49.5468 23.1062 47.2072 23.1062C44.8676 23.1062 42.9723 21.2109 42.9723 18.8713C42.9723 16.5317 44.8676 14.6315 47.2072 14.6315Z" fill="#826F53" fill-opacity="0.25"/>
<path d="M43.0897 38.6347C43.1045 39.4343 43.1884 40.2833 42.838 41.0039C42.5764 41.5468 41.9298 41.9516 41.3622 41.8874C41.3573 41.8282 41.3128 41.1668 41.3622 40.1401C41.4115 39.0543 42.9663 37.8203 42.9663 37.8203H43.0946C43.0798 38.0967 43.0749 38.3682 43.0897 38.6397V38.6347Z" fill="#826F53" fill-opacity="0.25"/>
<path d="M37.4177 50.0165C37.1117 51.0826 36.9291 52.1833 36.8847 53.2938C36.707 53.3679 36.5145 53.4123 36.3269 53.432C36.1739 53.4419 36.0259 53.437 35.8778 53.4172V53.3333C35.7643 53.3333 35.6409 53.3037 35.5323 53.2593C35.4484 53.0273 35.3793 52.5337 35.6359 51.5712C36.0456 50.056 37.4227 50.0165 37.4227 50.0165H37.4177Z" fill="#826F53" fill-opacity="0.25"/>
<path d="M26.7819 51.132C26.9497 50.979 30.6515 47.5585 32.4136 50.3966C31.4709 51.2554 29.0819 53.442 27.6259 52.6621C27.1817 52.4252 26.9744 51.902 26.846 51.4134C26.8213 51.3245 26.7967 51.2308 26.7819 51.137V51.132Z" fill="#826F53" fill-opacity="0.25"/>
<path d="M67.2271 29.4785C67.4245 30.1597 67.3702 30.4953 67.3702 30.4953C67.3702 30.4953 67.158 30.673 66.9606 30.7964C66.7631 30.9198 66.0425 31.2455 65.5489 31.29C65.312 31.3097 65.1491 31.3837 64.9714 31.4973C64.9813 31.4874 64.9912 31.4726 64.9961 31.4627C65.1393 31.3739 65.2972 31.2998 65.4699 31.2751C65.7019 31.2554 65.924 31.1962 66.1412 31.1172C66.5706 30.9741 66.9754 30.7717 67.3159 30.4706V30.4854L67.3307 30.4558C67.3307 30.4558 67.3209 30.4657 67.3159 30.4706C67.3307 30.1498 67.2468 29.8142 67.158 29.5032C67.0642 29.1676 66.9013 28.8714 66.8421 28.516C66.7829 28.1656 66.9063 27.83 66.926 27.4795C66.9507 27.1784 66.9704 26.8724 66.9852 26.5664H67.079C67.0691 26.8231 67.0297 27.5338 66.9359 28.0077C66.8224 28.5901 67.0198 28.8023 67.2172 29.4785H67.2271Z" fill="#A8A39B" fill-opacity="0.25"/>
<path d="M67.3395 30.4512L67.3246 30.4809V30.466C67.3246 30.466 67.3346 30.4561 67.3395 30.4512Z" fill="#A8A39B" fill-opacity="0.25"/>
<path d="M67.1734 29.5031C67.2622 29.814 67.3461 30.1497 67.3313 30.4705C66.9908 30.7765 66.5811 30.974 66.1566 31.1171C65.9394 31.1911 65.7173 31.2553 65.4853 31.275C65.3126 31.2997 65.1546 31.3737 65.0115 31.4626C65.1053 31.3441 65.204 31.2355 65.3225 31.1368C65.6729 30.8752 66.0826 30.7074 66.359 30.3372C66.4083 30.2632 66.4676 30.1546 66.4379 30.051C66.3935 29.9128 66.2849 29.7992 66.206 29.6857C65.821 29.1724 65.4064 28.6887 65.3225 28.0372C65.2287 27.6077 65.2632 27.1537 65.1201 26.7341C65.0016 26.4725 64.7499 26.3639 64.7104 26.0826C64.6117 25.668 64.5278 25.2089 64.1428 24.9474C64.0984 24.9227 64.0589 24.898 64.0145 24.8733C63.9898 24.5772 63.8318 24.3156 63.5999 24.128C63.3333 23.8516 63.0816 23.5555 62.8595 23.2445C62.9483 23.2939 63.0322 23.3482 63.1211 23.3975C63.2889 23.4716 63.4814 23.4962 63.664 23.4962C63.8467 23.5209 64.0095 23.6591 64.1625 23.7628C64.5574 24.0688 64.972 24.3699 65.2484 24.7845C65.6137 25.4755 66.2454 26.0283 66.8081 26.5663H67.0006C66.9907 26.8723 66.971 27.1783 66.9414 27.4794C66.9216 27.8299 66.7983 28.1655 66.8575 28.5159C66.9167 28.8664 67.0796 29.1625 67.1734 29.5031Z" fill="#826F53" fill-opacity="0.25"/>
<path d="M66.3404 30.0315C66.4687 30.2734 65.8616 30.7176 65.4914 30.9348C65.1706 31.1125 64.9337 31.4481 64.8695 31.5518C64.8597 31.5518 64.8547 31.5616 64.8498 31.5666V31.5764L64.7807 31.6209L64.7412 31.6455C64.7412 31.6455 64.7165 31.6159 64.6968 31.6061L64.8054 31.532C64.9189 31.3445 65.0522 31.1865 65.22 31.0384C65.3878 30.8904 65.5803 30.8065 65.758 30.6732C65.9505 30.5202 66.1874 30.3672 66.2664 30.1401C66.2664 30.1303 66.2664 30.1204 66.2664 30.1154C66.2664 30.1056 66.2664 30.1006 66.2664 30.0908C66.1874 29.9624 66.0936 29.839 66.0048 29.7156C66.0048 29.6712 66.0048 29.6268 65.9949 29.5725C66.1479 29.7749 66.2762 29.9378 66.3305 30.0365L66.3404 30.0315Z" fill="#A8A39B" fill-opacity="0.25"/>
<path d="M66.28 30.1106C66.28 30.1106 66.28 30.1254 66.28 30.1353C66.2011 30.3623 65.9691 30.5153 65.7716 30.6683C65.594 30.8016 65.3965 30.8905 65.2336 31.0336C65.0708 31.1767 64.9375 31.3396 64.819 31.5272L64.7104 31.6012C64.6808 31.5815 64.6512 31.5716 64.6364 31.5765C64.6117 31.5667 64.6117 31.6061 64.5969 31.6259C64.587 31.6506 64.5722 31.6752 64.5624 31.6999H64.5525C64.5031 31.6259 64.4735 31.5222 64.4834 31.4235C64.4933 31.3051 64.5476 31.2113 64.6413 31.1323C64.8338 30.9793 65.0559 30.8608 65.2731 30.7374C65.8358 30.4067 66.0283 30.308 66.0135 29.7009C66.1073 29.8243 66.1961 29.9428 66.2751 30.076C66.2751 30.0859 66.2751 30.0909 66.2751 30.1007L66.28 30.1106Z" fill="white" fill-opacity="0.25"/>
<path d="M64.5186 31.7342L64.5433 31.7441C64.5433 31.7441 64.5334 31.7638 64.5334 31.7688C64.4989 31.7243 64.3557 31.517 64.489 31.2554C64.6371 30.9544 65.7773 30.5496 65.9253 30.2189C65.9846 30.0857 66.0043 29.8784 65.9994 29.6908C65.9994 29.7007 66.0092 29.7056 66.0191 29.7155C66.0339 30.3176 65.8414 30.4213 65.2787 30.752C65.0616 30.8803 64.8345 30.9938 64.647 31.1469C64.5532 31.2209 64.494 31.3196 64.489 31.4381C64.4791 31.5368 64.5088 31.6355 64.5581 31.7145L64.5285 31.7391L64.5186 31.7342Z" fill="#A8A39B" fill-opacity="0.25"/>
<path d="M66.0083 29.7114C66.0083 29.7114 65.9934 29.6965 65.9885 29.6866C65.9885 29.6419 65.9885 29.5922 65.9885 29.5525C65.9984 29.5624 65.9984 29.5624 66.0034 29.5674C66.0034 29.622 66.0034 29.6667 66.0133 29.7114H66.0083Z" fill="#A8A39B" fill-opacity="0.25"/>
<path d="M65.9997 29.5576C65.9997 29.5576 65.9997 29.5676 65.9997 29.5725C65.9897 29.5725 65.9897 29.5626 65.9847 29.5576H65.9947H65.9997Z" fill="#A8A39B" fill-opacity="0.25"/>
<path d="M65.992 29.6905C65.992 29.8829 65.9772 30.0853 65.9179 30.2186C65.7699 30.5493 64.6297 30.954 64.4816 31.2551C64.3484 31.5167 64.4915 31.724 64.5261 31.7684C64.5063 31.7684 64.4915 31.7783 64.4767 31.7882C64.3188 31.566 64.3582 31.2255 64.5853 31.0774C64.9851 30.7665 65.4935 30.6233 65.8538 30.2679C65.9722 30.1001 65.9821 29.8731 65.9772 29.6658C65.9772 29.6756 65.987 29.6806 65.992 29.6855V29.6905Z" fill="#A8A39B" fill-opacity="0.25"/>
<path d="M65.9922 29.5576C65.9922 29.6023 65.9922 29.6469 65.9922 29.6915C65.9922 29.6915 65.9823 29.6816 65.9773 29.6717V29.5576H65.9872H65.9922Z" fill="#A8A39B" fill-opacity="0.25"/>
<path d="M65.9753 29.6708C65.9753 29.8831 65.9753 30.1052 65.8519 30.273C65.4916 30.6284 64.9832 30.7715 64.5834 31.0825C64.3564 31.2305 64.312 31.5711 64.4748 31.7932C64.2182 31.887 63.9615 31.9857 63.7147 32.0894C63.1866 32.2967 62.6683 32.5879 62.155 32.8396C61.923 32.9433 61.6911 33.0667 61.4541 33.1604C61.6368 32.884 61.7651 32.5731 62.007 32.3411C62.5153 31.8623 63.0731 31.4378 63.6259 31.0084C63.1718 30.3618 62.7078 29.735 62.1698 29.1476C61.7947 28.7676 61.311 28.427 61.1086 27.9186C61.0494 27.7508 61.1086 27.5879 61.1531 27.4201C61.3456 26.7044 61.5677 25.9937 61.7503 25.2681C61.7848 25.0756 61.8638 24.893 61.8342 24.7005C61.7602 24.508 61.6269 24.3747 61.543 24.2168C61.4147 23.8861 61.2074 23.5406 61.0297 23.2592C61.0642 23.2494 61.0988 23.2395 61.1383 23.2346C61.2567 23.1951 61.385 23.1507 61.5232 23.0914C61.7503 23.2099 61.9724 23.3234 62.1994 23.4369C62.313 23.6146 62.4364 23.7874 62.5647 23.9601C62.7276 24.1724 62.8954 24.4093 63.1224 24.5771C63.2557 24.6709 63.3988 24.7597 63.537 24.8436C63.6308 24.9029 63.8579 25.0361 63.9516 25.0954C64.2972 25.2977 64.3811 25.7666 64.465 26.1417C64.4946 26.3194 64.5982 26.5021 64.7266 26.6156C64.8006 26.6995 64.8648 26.7587 64.8993 26.8377C64.9388 26.9265 64.9536 27.0253 64.9684 27.119C65.0573 27.657 65.077 28.2 65.3189 28.7232C65.4966 29.0835 65.7483 29.3747 65.9852 29.6758L65.9753 29.6708Z" fill="#826F53" fill-opacity="0.25"/>
<path d="M64.978 31.4973C64.978 31.4973 64.968 31.5171 64.9581 31.5221C64.9234 31.5469 64.8887 31.5667 64.8589 31.5866L64.849 31.5766C64.8936 31.5469 64.9383 31.5171 64.978 31.4923V31.4973Z" fill="#A8A39B" fill-opacity="0.25"/>
<path d="M64.8639 31.5518C64.8639 31.5518 64.854 31.5717 64.849 31.5767V31.5667C64.849 31.5667 64.859 31.5567 64.8639 31.5518Z" fill="#A8A39B" fill-opacity="0.25"/>
<path d="M64.749 31.6509L64.5409 31.7847V31.7748C64.5409 31.7748 64.5409 31.755 64.5508 31.75H64.5805C64.5805 31.75 64.5657 31.7352 64.5558 31.7252C64.5558 31.7252 64.5558 31.7252 64.5558 31.7153L64.7044 31.6162C64.7044 31.6162 64.7342 31.641 64.749 31.6559V31.6509Z" fill="#A8A39B" fill-opacity="0.25"/>
<path d="M64.7044 31.6111L64.5557 31.7102C64.5656 31.6854 64.5805 31.6606 64.5904 31.6358C64.6053 31.616 64.6053 31.5764 64.6301 31.5863C64.6449 31.5863 64.6747 31.5962 64.7044 31.6111Z" fill="#A8A39B" fill-opacity="0.25"/>
<path d="M64.5533 31.7146C64.5533 31.7146 64.5682 31.7394 64.5781 31.7443H64.5483C64.5483 31.7443 64.5483 31.7196 64.5582 31.7146H64.5533Z" fill="#A8A39B" fill-opacity="0.25"/>
<path d="M64.5557 31.7095C64.5557 31.7095 64.5557 31.7095 64.5557 31.7179L64.5642 31.7095H64.5557Z" fill="#A8A39B" fill-opacity="0.25"/>
<path d="M64.549 31.7141C64.549 31.7141 64.5393 31.7336 64.5393 31.7385L64.5149 31.7287L64.5441 31.7043L64.549 31.7141Z" fill="#A8A39B" fill-opacity="0.25"/>
<path d="M64.5359 31.7835C64.5359 31.7835 64.5062 31.8032 64.4914 31.8082C64.4914 31.8082 64.4815 31.7983 64.4815 31.7933C64.4963 31.7835 64.5112 31.7785 64.531 31.7736L64.5409 31.7835H64.5359Z" fill="#A8A39B" fill-opacity="0.25"/>
<path d="M63.8259 24.7649C63.8752 24.834 63.9246 24.9031 63.9789 24.9771C63.742 24.834 63.4359 24.6711 63.1497 24.4737C62.8239 24.2466 62.2316 23.3927 62.2316 23.3927L61.5455 23.0818C61.5455 23.0818 61.5554 23.0719 61.5603 23.0719C61.7825 23.1558 62.0342 23.2595 62.2612 23.3532C62.5672 23.7284 62.8486 24.1282 63.2286 24.4095C63.4113 24.5329 63.6186 24.6464 63.8209 24.755L63.8259 24.7649Z" fill="#A8A39B" fill-opacity="0.25"/>
<path d="M63.9377 24.8337C63.9032 24.809 63.8637 24.7893 63.8242 24.7646C63.6959 24.5918 63.5676 24.4438 63.4294 24.276C63.1826 23.9304 62.9407 23.5849 62.7778 23.2C62.7877 23.2 62.8025 23.2098 62.8124 23.2197L62.9407 23.4517C62.9407 23.4517 63.3751 24.0835 63.6663 24.3697C63.7946 24.4981 63.8785 24.6708 63.9427 24.8337H63.9377Z" fill="#A8A39B" fill-opacity="0.25"/>
<path d="M63.4335 24.2762C63.5717 24.4441 63.7001 24.5921 63.8284 24.7649C63.626 24.6563 63.4187 24.5378 63.2361 24.4194C62.8561 24.138 62.5698 23.7382 62.2687 23.3631C62.0416 23.2693 61.7899 23.1657 61.5678 23.0818C61.7603 23.0077 61.9479 22.9238 62.1058 22.8547H62.1157C62.3625 22.9485 62.5698 23.0768 62.787 23.2052C62.9498 23.5902 63.1917 23.9357 63.4385 24.2812L63.4335 24.2762Z" fill="white" fill-opacity="0.25"/>
<path d="M63.3911 30.8855C63.4356 30.9447 63.4652 30.9793 63.4652 30.9793C63.4652 30.9793 61.9104 32.1885 61.7327 32.5834C61.6241 32.8253 61.4958 33.0424 61.4119 33.1757C61.402 33.1757 61.3921 33.1856 61.3823 33.1856C61.4909 32.9931 61.5896 32.7956 61.6685 32.5883C61.7919 32.3317 61.9992 32.1491 62.1819 31.9516C62.5422 31.6061 62.9124 31.2754 63.3023 30.9645C63.327 30.9941 63.3467 31.0237 63.3664 31.0582L63.3911 30.8904V30.8855Z" fill="#A8A39B" fill-opacity="0.25"/>
<path d="M63.3909 30.885C63.3662 30.9097 63.3317 30.9344 63.3021 30.959C62.9171 30.4408 62.4186 29.7399 62.0188 29.2908C61.9497 29.2167 61.8756 29.1476 61.8065 29.0736C61.7967 29.0143 61.7868 28.965 61.772 28.9058C61.8263 28.9551 61.8806 29.0045 61.9299 29.0489C62.3198 29.3944 63.1491 30.5395 63.3958 30.8801L63.3909 30.885Z" fill="#A8A39B" fill-opacity="0.25"/>
<path d="M63.3869 30.8855L63.362 31.0543C63.3422 31.0245 63.3173 30.9947 63.2975 30.96C63.3273 30.9352 63.3571 30.9103 63.3869 30.8855Z" fill="#A8A39B" fill-opacity="0.25"/>
<path d="M63.3023 30.9595C62.9173 31.2705 62.5422 31.6012 62.1819 31.9467C61.9943 32.1441 61.787 32.3267 61.6685 32.5834C61.5896 32.7907 61.4909 32.9832 61.3823 33.1806C61.2391 33.2349 61.0861 33.2694 60.9331 33.2744C61.0022 32.845 61.1848 32.4452 61.4514 32.1194C61.7278 31.7591 62.1325 31.5666 62.4484 31.2359C62.5767 31.1076 62.71 30.9348 62.7051 30.7325C62.6804 30.4116 62.4287 30.1698 62.1917 29.9871C62.0634 29.8786 61.8956 29.7897 61.8462 29.6268C61.8561 29.4393 61.8364 29.2468 61.8067 29.0691C61.8808 29.1431 61.9499 29.2122 62.019 29.2863C62.4188 29.7354 62.9173 30.4363 63.3023 30.9546V30.9595Z" fill="white" fill-opacity="0.25"/>
<path d="M62.7815 23.1307C62.8061 23.1702 62.8357 23.2047 62.8554 23.2391C62.8406 23.2293 62.8307 23.2194 62.811 23.2145L62.7519 23.116C62.7519 23.116 62.7667 23.1258 62.7765 23.1307H62.7815Z" fill="#A8A39B" fill-opacity="0.25"/>
<path d="M62.7581 23.1163L62.8175 23.2153C62.8175 23.2153 62.7927 23.2004 62.7828 23.1955C62.7729 23.1707 62.7581 23.146 62.7482 23.1212L62.7581 23.1113V23.1163Z" fill="#A8A39B" fill-opacity="0.25"/>
<path d="M62.7668 23.1113C62.7668 23.1113 62.7768 23.1213 62.7768 23.1312C62.7668 23.1312 62.7619 23.1213 62.7519 23.1163H62.7619L62.7668 23.1113Z" fill="#A8A39B" fill-opacity="0.25"/>
<path d="M62.7427 23.1262C62.7427 23.1262 62.7674 23.1707 62.7773 23.2003C62.5601 23.0719 62.3528 22.9387 62.106 22.8498V22.84C62.106 22.84 62.4515 22.9535 62.7575 23.1213L62.7477 23.1312L62.7427 23.1262Z" fill="#A8A39B" fill-opacity="0.25"/>
<path d="M62.7013 30.7369C62.7112 30.9392 62.573 31.1169 62.4446 31.2403C62.1337 31.571 61.729 31.7635 61.4476 32.1238C61.1811 32.4545 60.9985 32.8543 60.9294 33.2788H60.9146C60.9343 33.111 61.0676 32.2423 61.8326 31.6549C62.6816 30.9984 62.7013 30.7862 62.4693 30.4456C62.2373 30.1051 61.7092 29.8731 61.7536 29.5967C61.7783 29.419 61.7734 29.187 61.7635 29.0389L61.8079 29.0834C61.8375 29.2611 61.8524 29.4535 61.8474 29.6411C61.9017 29.7991 62.0646 29.8879 62.1929 30.0014C62.4249 30.184 62.6816 30.4259 62.7062 30.7467L62.7013 30.7369Z" fill="#A8A39B" fill-opacity="0.25"/>
<path d="M62.4451 30.6286C62.6327 30.9642 62.0502 31.3443 61.8281 31.5516C61.6554 31.6947 61.4875 31.8625 61.3592 32.0501C61.1026 32.4154 60.9446 32.8448 60.9051 33.2791C60.8015 33.2791 60.6978 33.2692 60.5942 33.2446C60.2388 33.1409 60.066 32.83 59.7896 32.6128C59.6465 32.5042 59.4886 32.4154 59.3158 32.3561C58.837 32.1735 58.5162 31.7441 58.0868 31.4479C57.8104 31.2357 57.4994 31.0728 57.2329 30.8655C56.838 30.5447 56.5567 30.1005 56.2211 29.7155C56.0434 29.5131 55.8607 29.2811 55.6041 29.1676C55.5498 29.138 55.4264 29.1133 55.3919 29.0936C55.382 29.0541 55.3919 29.0146 55.4067 28.9702C55.5695 28.5852 55.9545 28.3433 56.2507 28.062C56.5616 27.7362 56.8331 27.3809 57.0157 26.9761C57.0453 26.9021 57.0898 26.8478 57.1391 26.7787C57.4698 26.3838 57.9042 26.063 58.1756 25.6089C58.3731 25.3276 58.5606 25.0215 58.6741 24.6859C58.7679 24.3552 58.8617 24.0245 59.1727 23.8468C59.7353 23.5359 60.3918 23.4223 61.0088 23.2644C61.1371 23.4915 61.2654 23.7185 61.374 23.9604C61.1963 24.4046 61.0433 24.8488 60.9101 25.3128C60.8212 25.6286 60.7274 25.9742 60.762 26.3049C60.7867 26.4727 60.7422 26.6109 60.7422 26.7836C60.7571 27.0748 60.836 27.3463 60.9397 27.6178C60.915 27.7362 60.9101 27.8596 60.9495 27.9731C61.1026 28.4026 61.4184 28.7036 61.7343 29.0097C61.7245 29.1923 61.7097 29.3798 61.6751 29.5526C61.6603 29.6168 61.6603 29.7007 61.685 29.7648C61.8528 30.1252 62.2674 30.2831 62.4402 30.6335L62.4451 30.6286Z" fill="#302921" fill-opacity="0.25"/>
<path d="M62.1033 22.8346V22.8445C61.9453 22.9186 61.7578 22.9975 61.5653 23.0716C61.5554 23.0716 61.5505 23.0617 61.5455 23.0617C61.8219 22.9531 62.1082 22.8297 62.1082 22.8297L62.1033 22.8346Z" fill="#A8A39B" fill-opacity="0.25"/>
<path d="M61.7657 28.906C61.7805 28.9652 61.7904 29.0146 61.8003 29.0738L61.7558 29.0294C61.7558 28.9553 61.746 28.901 61.746 28.8862C61.746 28.8961 61.7558 28.8961 61.7608 28.901L61.7657 28.906Z" fill="#A8A39B" fill-opacity="0.25"/>
<path d="M61.797 24.7201C61.8611 24.9323 61.0912 27.2126 61.0073 27.6914C60.9924 27.6421 60.9776 27.5828 60.9628 27.5335C60.9776 27.4792 60.9924 27.4298 61.0073 27.3805C61.2146 26.6598 61.4515 25.959 61.6538 25.2433C61.6933 25.0755 61.7674 24.8879 61.7575 24.7201C61.6983 24.5523 61.5699 24.4091 61.486 24.2413C61.4613 24.1673 61.4317 24.0982 61.4071 24.0291C61.4071 24.0044 61.4071 23.9846 61.4071 23.96C61.4367 24.0241 61.4613 24.0784 61.4712 24.1179C61.5403 24.3301 61.7328 24.5128 61.8019 24.7201H61.797Z" fill="#A8A39B" fill-opacity="0.25"/>
<path d="M61.7683 28.8914C61.7683 28.8914 61.7683 28.9013 61.7683 28.9063C61.7584 28.9063 61.7584 28.8963 61.7534 28.8914H61.7634H61.7683Z" fill="#A8A39B" fill-opacity="0.25"/>
<path d="M61.7634 29.0349L61.7386 29.0101C61.7386 28.9704 61.7386 28.9357 61.7386 28.896H61.7535C61.7535 28.896 61.7535 28.9605 61.7634 29.0398V29.0349Z" fill="#A8A39B" fill-opacity="0.25"/>
<path d="M61.7574 24.7201C61.7672 24.8879 61.6932 25.0754 61.6537 25.2433C61.4464 25.9589 61.2095 26.6598 61.0071 27.3805C60.9923 27.4298 60.9775 27.4792 60.9627 27.5335C60.8985 27.2867 60.8541 27.03 60.864 26.7832C60.864 26.7092 60.8887 26.6401 60.9035 26.5512C60.938 26.3094 60.9035 26.0725 60.9775 25.8356C61.1848 25.2531 61.402 24.6608 61.4069 24.0291C61.4316 24.0982 61.4662 24.1673 61.4859 24.2413C61.5698 24.414 61.6981 24.5522 61.7574 24.7201Z" fill="white" fill-opacity="0.25"/>
<path d="M61.5574 23.077C61.5574 23.077 61.5477 23.077 61.5428 23.0868L61.5233 23.077C61.5233 23.077 61.5331 23.077 61.5379 23.077C61.5428 23.077 61.5477 23.077 61.5574 23.0868V23.077Z" fill="#A8A39B" fill-opacity="0.25"/>
<path d="M61.5431 23.0818C61.5431 23.0818 61.5332 23.0818 61.5233 23.0818C61.5233 23.0818 61.5233 23.0719 61.5332 23.0719L61.5531 23.0818H61.5431Z" fill="#A8A39B" fill-opacity="0.25"/>
<path d="M61.5374 23.0664C61.5374 23.0664 61.528 23.0664 61.5233 23.0664L61.5327 23.057C61.5327 23.057 61.5327 23.057 61.542 23.057L61.5374 23.0664Z" fill="#A8A39B" fill-opacity="0.25"/>
<path d="M61.5158 23.082C61.3776 23.1412 61.2492 23.1856 61.1308 23.2251C61.0913 23.235 61.0567 23.2448 61.0222 23.2498C61.0123 23.2399 61.0123 23.235 61.0074 23.23C61.0666 23.2103 61.1061 23.2054 61.1061 23.2054C61.2098 23.1807 61.3529 23.1313 61.5059 23.077L61.5158 23.082Z" fill="#A8A39B" fill-opacity="0.25"/>
<path d="M61.4033 23.96C61.4033 23.96 61.4033 24.0045 61.4033 24.0293C61.3934 24.0144 61.3884 23.9947 61.3785 23.9798C61.3785 23.9501 61.3884 23.9353 61.3884 23.9353C61.3884 23.9452 61.3983 23.9551 61.3983 23.96H61.4033Z" fill="#A8A39B" fill-opacity="0.25"/>
<path d="M61.3846 23.9799C61.3846 23.9799 61.3994 24.0144 61.4093 24.0292C61.3994 24.661 61.1823 25.2484 60.9799 25.8357C60.9059 26.0677 60.9355 26.3096 60.9059 26.5514C60.8911 26.6452 60.8713 26.7093 60.8664 26.7834C60.8565 27.0302 60.9009 27.2868 60.9651 27.5336C60.9651 27.5484 60.9552 27.5632 60.9552 27.578C60.8812 27.351 60.7627 26.9117 60.817 26.6304C60.9009 26.2355 60.7282 26.2059 60.9996 25.4063C61.2316 24.7252 61.3501 24.1427 61.3846 23.9799Z" fill="#A8A39B" fill-opacity="0.25"/>
<path d="M61.3996 23.9353V23.9602C61.3996 23.9602 61.3896 23.9453 61.3896 23.9353H61.3996Z" fill="#A8A39B" fill-opacity="0.25"/>
<path d="M61.3942 23.936C61.3942 23.936 61.3942 23.9505 61.3845 23.9796C61.3845 23.9699 61.3748 23.9602 61.3748 23.9554C61.3748 23.9457 61.3748 23.936 61.3845 23.9312H61.3942V23.936Z" fill="#A8A39B" fill-opacity="0.25"/>
<path d="M61.3924 23.9357H61.3825C61.3825 23.9357 61.3825 23.9505 61.3726 23.9604C61.264 23.7185 61.1308 23.4964 61.0074 23.2644H61.0173C61.0715 23.3582 61.2739 23.6988 61.3924 23.9406V23.9357Z" fill="#A8A39B" fill-opacity="0.25"/>
<path d="M61.0136 23.2351C61.0136 23.2351 61.0236 23.245 61.0286 23.255H61.0186C61.0086 23.245 61.0086 23.2351 61.0037 23.2301H61.0136V23.2351Z" fill="#A8A39B" fill-opacity="0.25"/>
<path d="M61.0049 23.2347C61.0049 23.2347 61.0149 23.2447 61.0199 23.2596H61.0099C60.9999 23.2497 60.9999 23.2447 60.9999 23.2347H61.0099H61.0049Z" fill="#A8A39B" fill-opacity="0.25"/>
<path d="M61.0074 27.6967C61.0074 27.6967 61.0173 27.7166 61.0173 27.7216H61.0074C61.0074 27.7216 61.0074 27.7066 61.0074 27.6967Z" fill="#A8A39B" fill-opacity="0.25"/>
<path d="M61.0085 27.692V27.7019C61.0085 27.7019 61.0085 27.7265 61.0085 27.7315C61.0085 27.7315 60.9838 27.6722 60.9591 27.5834C60.9591 27.5686 60.969 27.5538 60.969 27.5389C60.9838 27.5883 60.9986 27.6476 61.0134 27.6969L61.0085 27.692Z" fill="#A8A39B" fill-opacity="0.25"/>
<path d="M58.0875 28.7969C58.0875 28.7969 58.0635 28.7825 58.0491 28.7777C58.0587 28.7825 58.0731 28.7921 58.0827 28.7969H58.0875Z" fill="url(#paint2_linear_0_453)"/>
<path d="M112.605 53.8071C112.265 53.3925 111.919 52.9877 111.559 52.5978L111.297 52.4843C111.376 52.4744 111.514 52.5435 111.544 52.583C111.149 52.1141 110.508 51.4922 110.063 51.0578C109.629 50.6284 108.977 49.9769 108.553 49.5524C108.553 49.5524 108.553 49.5524 108.548 49.5475C108.518 49.5179 108.494 49.4883 108.464 49.4586C108.474 49.4192 108.479 49.3797 108.484 49.3402C108.489 49.2859 108.553 49.2069 108.484 49.197C108.459 49.1872 108.351 49.1921 108.237 49.2168C107.783 48.7331 107.329 48.2444 106.865 47.7657L106.83 47.7311C108.375 42.208 106.816 36.3739 104.649 31.2308C104.027 29.6661 103.163 28.1903 102.961 26.527C102.788 24.3108 103.795 21.4579 101.697 19.8488C99.481 18.3089 99.4415 19.7254 98.6321 16.5221C98.1977 14.8291 97.3882 12.8844 95.5719 12.302C94.4959 11.8973 93.336 11.8677 92.334 11.3889C90.8039 10.6337 90.1326 9.03452 88.8987 7.82525C87.2106 6.15202 84.797 5.29813 82.4476 5.49063C82.3439 5.5005 82.2452 5.51037 82.1465 5.52024C82.033 5.36723 81.8701 5.24384 81.6825 5.21916C80.9027 5.08589 80.2808 4.64167 79.7379 4.08393C78.9926 3.31888 78.4003 2.40082 77.5217 1.73943C75.8238 0.4117 74.1357 0.781884 72.9758 2.54396C71.3964 4.66635 69.8564 6.88746 68.4645 9.1283C67.3441 10.9348 66.2928 12.7857 65.3303 14.6811C65.2513 15.2092 65.4043 15.7768 65.735 16.1914C65.202 16.7146 64.6738 17.2477 64.1605 17.7906C62.586 19.6563 62.9315 22.2921 64.5356 23.7876C64.4517 23.7234 64.3629 23.6642 64.274 23.605C64.0717 23.4816 63.8693 23.3088 63.6126 23.3335H63.5189C63.2622 23.3434 63.0549 23.2397 62.8328 23.1065C62.6008 22.9831 62.354 22.8942 62.1072 22.8301V22.8399C62.1072 22.8399 62.4478 22.9534 62.7538 23.1213H62.7637C62.7637 23.1213 62.7736 23.1311 62.7736 23.1361C62.7982 23.1756 62.8278 23.2101 62.8476 23.2447C62.9364 23.294 63.0203 23.3483 63.1092 23.3977C63.277 23.4717 63.4695 23.4964 63.6521 23.4964C63.8347 23.5211 63.9976 23.6593 64.1506 23.7629C64.5455 24.0689 64.9601 24.37 65.2365 24.7846C65.6018 25.4756 66.2335 26.0284 66.7962 26.5664H66.9887C66.9887 26.5319 66.9887 26.4973 66.9887 26.4677H67.0825C67.0825 26.4677 67.0825 26.4727 67.0825 26.4776C67.0726 26.5319 67.0628 26.5862 67.0578 26.6405C67.0529 26.7392 67.0578 26.833 67.0578 26.9268C67.043 27.1735 67.0183 27.4796 66.9788 27.7609C66.658 27.9534 66.3619 28.1755 66.0707 28.3878C65.8979 28.5161 65.7252 28.6395 65.5475 28.7629C65.429 28.5408 65.3402 28.3038 65.3056 28.0422C65.2118 27.6128 65.2464 27.1587 65.1032 26.7392C64.9848 26.4776 64.7331 26.369 64.6936 26.0877C64.5949 25.6731 64.5109 25.214 64.126 24.9524C64.0815 24.9278 64.042 24.9031 63.9976 24.8784C63.9976 24.9179 63.9976 24.9524 63.9976 24.9969H63.9828L63.9729 25.0067C63.9729 24.9969 63.9631 24.9969 63.9631 24.987C63.7262 24.8439 63.4201 24.681 63.1339 24.4835C62.8081 24.2565 62.2158 23.4026 62.2158 23.4026L61.5297 23.0917C61.5297 23.0917 61.5199 23.0917 61.51 23.0917C61.737 23.2101 61.9591 23.3236 62.1862 23.4372C62.2997 23.6148 62.4231 23.7876 62.5514 23.9603C62.7143 24.1726 62.8821 24.4095 63.1092 24.5773C63.2425 24.6711 63.3856 24.7599 63.5238 24.8439C63.6176 24.9031 63.8446 25.0364 63.9384 25.0956C64.2839 25.2979 64.3678 25.7668 64.4517 26.142C64.4813 26.3197 64.585 26.5023 64.7133 26.6158C64.7874 26.6997 64.8515 26.7589 64.8861 26.8379C64.9255 26.9268 64.9404 27.0255 64.9552 27.1193C65.044 27.6573 65.0638 28.2002 65.3056 28.7234C65.3303 28.7777 65.3599 28.8221 65.3895 28.8764C64.6245 29.3897 63.8101 29.8339 62.9562 30.1054C62.7044 29.7796 62.4429 29.4638 62.1615 29.1577C61.7864 28.7777 61.3027 28.4371 61.1003 27.9287C61.0411 27.7609 61.1003 27.598 61.1447 27.4302C61.3372 26.7145 61.5593 26.0038 61.742 25.2782C61.7765 25.0857 61.8555 24.9031 61.8259 24.7106C61.7518 24.5181 61.6186 24.3848 61.5347 24.2269C61.4063 23.8962 61.199 23.5507 61.0213 23.2693H61.0115C61.0658 23.3631 61.2681 23.7037 61.3866 23.9455H61.3965V23.9702C61.4261 24.0344 61.4508 24.0887 61.4606 24.1282C61.5297 24.3404 61.7222 24.523 61.7913 24.7303C61.8555 24.9426 61.0855 27.2229 61.0016 27.7017V27.7115C61.0016 27.7115 61.0115 27.7313 61.0115 27.7362H61.0016L60.9917 27.7461C60.9769 27.7066 60.9621 27.6671 60.9424 27.6276C60.9177 27.7461 60.9128 27.8695 60.9522 27.983C61.1053 28.4124 61.4211 28.7135 61.737 29.0195C61.737 28.98 61.737 28.9455 61.737 28.906H61.7617C61.7617 28.906 61.7617 28.9159 61.7617 28.9208C61.816 28.9702 61.8703 29.0195 61.9197 29.064C62.1418 29.2663 62.512 29.7254 62.8328 30.1498C62.7884 30.1646 62.7489 30.1794 62.7045 30.1893C62.5761 30.2239 62.4429 30.2535 62.3096 30.2782C62.0579 30.0264 61.7074 29.829 61.7469 29.602C61.7716 29.4243 61.7666 29.1923 61.7568 29.0442C61.7469 29.0343 61.737 29.0245 61.7321 29.0195C61.7222 29.2022 61.7074 29.3897 61.6729 29.5625C61.6581 29.6266 61.6581 29.7105 61.6827 29.7747C61.7864 30.0018 61.9888 30.1449 62.1665 30.3078C61.5347 30.4114 60.8782 30.4065 60.2711 30.2091C59.4814 29.982 58.8595 29.3502 58.1142 28.8172H58.0944C58.0944 28.8172 58.1142 28.8172 58.124 28.832C58.1142 28.8221 58.1043 28.8172 58.0895 28.8122L57.9908 28.7777C57.9908 28.7777 58.0352 28.7777 58.0599 28.7876C57.6551 28.5161 57.0974 28.4865 56.6729 28.6987C56.3077 28.8813 56.0954 29.1479 55.977 29.4588C55.8684 29.3453 55.7499 29.2416 55.6018 29.1775C55.5476 29.1479 55.4242 29.1232 55.3896 29.1034C55.3797 29.064 55.3896 29.0245 55.4044 28.98C55.5673 28.5951 55.9523 28.3532 56.2484 28.0719C56.5594 27.7461 56.8309 27.3907 57.0135 26.986C57.0431 26.912 57.0875 26.8577 57.1369 26.7886C57.4676 26.3937 57.9019 26.0729 58.1734 25.6188C58.3708 25.3374 58.5584 25.0314 58.6719 24.6958C58.7657 24.3651 58.8595 24.0344 59.1704 23.8567C59.7331 23.5457 60.3896 23.4322 61.0065 23.2743C60.9967 23.2644 60.9967 23.2595 60.9967 23.2496H61.0065H61.0164C61.0756 23.2299 61.1151 23.2249 61.1151 23.2249C61.2188 23.2002 61.3619 23.1509 61.5149 23.0966C61.5149 23.0966 61.5182 23.0966 61.5248 23.0966L61.5347 23.0867C61.5347 23.0867 61.5347 23.0867 61.5445 23.0867C61.8209 22.9781 62.1072 22.8547 62.1072 22.8547L62.0973 22.8449C61.8209 22.9584 61.4162 23.1163 61.1299 23.1953C60.6215 23.3138 60.1132 23.4223 59.6146 23.5754C59.2839 23.6889 58.9187 23.837 58.7509 24.1726C58.6571 24.3305 58.6226 24.5132 58.5633 24.6662C58.4449 24.987 58.2672 25.2782 58.0648 25.5546C57.976 25.6829 57.8575 25.8458 57.7489 25.9495C57.4824 26.2357 57.1665 26.4776 56.9345 26.8034C56.7272 27.2229 56.4607 27.6178 56.1201 27.9435C55.8536 28.1903 54.8862 28.8616 55.2465 29.2811C55.3205 29.3354 55.3699 29.3354 55.4044 29.3502C55.513 29.3848 55.6117 29.4391 55.7006 29.518C55.7746 29.5871 55.8388 29.6661 55.9079 29.7451C55.7845 30.4114 55.9967 31.2258 56.1941 31.907C55.6265 31.4677 54.9799 31.1172 54.358 30.8014C52.9711 30.1054 51.5397 29.5378 50.0392 29.1133C49.9158 28.9159 49.7875 28.7333 49.6641 28.5605L47.9267 26.1666C49.2643 26.1518 50.6216 25.752 51.8457 24.8833C56.0461 21.9614 55.8486 15.4955 51.4953 12.8351C46.1005 9.51823 39.5655 14.2368 40.8192 20.3622C39.0077 20.3868 37.4875 19.222 35.9377 18.4125C34.7531 17.7561 33.3661 17.1884 31.9594 17.3908C29.689 17.84 27.8528 19.4342 26.0118 20.7323C23.1638 22.9386 20.3899 25.1894 17.3396 27.1094C14.3337 29.0541 10.9231 30.7915 8.82044 33.8221C4.55098 40.0362 6.03665 48.0865 7.48284 54.9867C8.22321 58.4615 9.24985 62.0301 8.52923 65.5839C7.81847 69.1228 5.68128 72.1534 3.7119 75.1149L0.710938 79.6064L0.770167 79.6459L3.83036 75.1938C5.85403 72.2324 8.04059 69.2215 8.81057 65.6381C9.59536 62.0449 8.60326 58.4023 7.88757 54.8979C6.55491 48.1358 5.10873 40.2188 9.34363 34.1972C11.4611 31.2554 14.7582 29.6661 17.7443 27.7362C20.7947 25.8063 23.5982 23.4816 26.3869 21.221C27.7837 20.1351 29.2349 19.0443 30.8044 18.2447C32.4184 17.3859 34.2348 17.8844 35.7748 18.7037C37.3641 19.4441 38.988 20.5744 40.8241 20.4362C41.5546 23.8863 44.595 26.137 47.7885 26.1666C48.2377 26.912 49.3531 28.7629 49.3531 28.7629C50.2268 30.0166 50.8141 32.0106 48.7559 32.3068C47.6996 32.4302 46.7668 31.8033 45.8734 31.3147C45.5032 31.0827 45.133 30.8408 44.8023 30.5496C44.6592 29.7747 44.2693 29.0491 43.7017 28.3729C43.1587 27.6424 41.7372 25.7718 41.1597 25.0215C40.5822 24.296 39.8962 23.5359 38.9534 23.3187L38.9337 23.3878C39.3779 23.5112 39.7678 23.7728 40.1035 24.0887C40.7945 24.7106 42.0136 26.6997 42.5664 27.4598C43.6474 29.0689 44.8665 30.2337 44.1015 32.3216C43.4499 34.0343 42.7145 35.9099 42.7392 37.8102C42.7392 37.8546 42.7392 37.904 42.7342 37.9484C42.4776 38.1211 42.2357 38.3087 42.0037 38.5209C41.0363 39.3255 40.6711 40.6581 41.2733 41.7983C41.1943 41.7884 41.1153 41.7736 41.0413 41.744C41.0265 40.6483 40.7254 39.5476 40.3848 38.5308C39.8814 36.8724 39.3039 35.2386 38.6672 33.6296C38.0304 32.0205 37.3246 30.441 36.5497 28.8912C35.7698 27.3611 34.7926 25.6435 33.0305 25.0906C32.1618 24.8192 31.2388 25.0215 30.3997 25.2683C29.5705 25.5003 28.7413 25.7372 27.917 25.9939C26.2734 26.5122 24.6446 27.139 23.1737 28.0571L23.2132 28.1212C24.6989 27.2525 26.3277 26.675 27.9812 26.2012C28.8054 25.9643 29.6396 25.757 30.4787 25.5447C31.303 25.3325 32.1519 25.1647 32.9318 25.4312C34.5458 25.9791 35.4342 27.6326 36.14 29.0936C36.8755 30.6434 37.5418 32.2278 38.144 33.8319C38.9929 36.211 39.8567 38.7036 40.2861 41.1813C40.3749 41.9859 40.2515 42.7904 39.985 43.5554C39.4421 45.1151 38.445 46.5564 37.7738 48.1901C37.5418 48.7824 37.3493 49.3846 37.1963 49.9966C36.8804 50.0164 36.5694 50.1102 36.2782 50.273C35.5576 50.6778 34.911 51.971 35.1677 52.8594C34.8666 52.4744 34.7531 51.9019 34.7827 51.4033C34.8024 50.273 35.2121 49.1724 35.7402 48.1704C35.7995 48.047 35.8686 47.9285 35.9327 47.815C36.14 47.6423 36.3424 47.4596 36.525 47.2622L36.4757 47.2079C36.3523 47.3264 36.2239 47.4399 36.0907 47.5485C36.3424 47.1487 36.5941 46.7637 36.7718 46.2454C37.063 45.204 36.7225 44.2267 36.4658 43.2593C35.9426 41.3738 34.9604 39.7055 34.0423 38.052L31.224 33.0965L31.1598 33.131L33.7215 38.2248C34.5803 39.9178 35.4786 41.5959 35.9031 43.4074C36.0907 44.2464 36.3671 45.2188 36.0857 46.0233C35.8784 46.6008 35.3404 47.2277 35.0739 47.8397C34.9702 48.0421 34.8765 48.2494 34.7876 48.4616C34.0917 48.9009 33.3809 49.3204 32.7689 49.8732C32.6455 49.9769 32.5122 50.0954 32.3691 50.2188C31.4461 47.7311 28.4155 49.3846 27.0088 50.8308C26.9693 50.5791 26.9496 50.3224 26.9595 50.0707C26.999 48.4665 28.9733 47.8644 29.2447 46.3096C29.4718 45.1842 29.2003 44.1625 29.0769 43.1803C28.9436 42.3116 28.9338 41.4232 28.9979 40.5298C29.0819 40.3422 29.146 40.1448 29.2003 39.9424C29.3188 39.8733 29.5853 39.745 29.5952 39.6858C29.5952 39.6068 29.5409 39.5673 29.4817 39.5624C29.5359 39.7006 29.4915 39.8635 29.2793 39.8141C29.2743 39.8141 29.2546 39.819 29.2299 39.824C29.2299 39.8141 29.2349 39.7993 29.2398 39.7894L29.2052 39.7796L29.1756 39.7598C29.1559 39.7944 29.1065 39.8388 29.0522 39.8881C29.0029 39.824 28.9683 39.7401 28.9979 39.6858C29.0473 39.5871 29.1115 39.6759 29.151 39.7253C29.151 39.7401 29.2151 39.7055 29.2201 39.7499C29.2743 39.6167 29.3879 39.5525 29.4767 39.5624C29.4471 39.4883 29.3928 39.4192 29.3138 39.3896L29.2052 39.3353C29.1361 39.4192 28.8844 39.6216 28.8548 39.7302C28.8351 39.8388 28.914 39.9227 29.0029 39.9375C28.914 40.0214 28.8351 40.1152 28.8548 40.1892C28.8153 40.3373 28.7808 40.4903 28.7512 40.6433C28.3859 41.2109 27.8973 41.6946 27.3889 42.1438C26.6288 42.8052 25.8785 43.511 25.0148 43.9108C24.6248 44.0934 24.2448 44.1724 23.8746 44.1724C23.8647 44.1379 23.8549 44.0984 23.845 44.0638L23.7463 44.0786C23.7463 44.1082 23.7463 44.1379 23.7512 44.1625C22.3198 44.1181 20.9773 43.0372 19.4916 42.8052L19.4669 42.8743C20.8045 43.7282 22.2063 44.9325 23.766 44.8782C23.6574 46.5465 22.5913 47.9878 21.0563 48.6541C20.5084 48.9453 19.9161 49.1477 19.2498 49.3155V49.3895C21.9151 50.2138 24.1806 47.3856 23.9931 44.8634C24.4077 44.8141 24.8321 44.6808 25.2714 44.4192C26.224 43.8861 26.92 43.1161 27.6357 42.3955C27.996 42.0155 28.3514 41.6009 28.6475 41.1517C28.5389 41.8328 28.4945 42.5288 28.5241 43.2247C28.5784 44.2464 28.7462 45.2632 28.534 46.1319C28.2033 47.3609 26.8213 47.9236 26.4609 49.197C26.1204 50.2336 26.4906 52.5534 27.6406 52.9581C29.5557 53.58 31.7077 51.2503 32.9614 50.0707C33.4796 49.5623 34.0719 49.1526 34.6692 48.743C34.3533 49.5919 34.1805 50.505 34.2595 51.4181C34.2595 52.1585 34.7185 53.1161 35.4441 53.353C35.4885 53.3974 35.5329 53.4369 35.5872 53.4764L35.6366 53.4221C35.6366 53.4122 35.6366 53.4073 35.6366 53.3974C35.7106 53.4073 35.7797 53.4122 35.8587 53.4073L35.8488 53.4665C35.9821 53.4912 36.1154 53.501 36.2536 53.501C35.0295 58.2838 33.7511 63.2344 30.8242 67.2768C29.6939 68.7526 28.5488 70.3321 27.6949 72.0152C26.8607 73.6144 26.0019 75.4505 25.0444 76.9559C24.3731 77.9924 23.6081 78.9747 22.6555 79.794L22.6999 79.8532C23.2428 79.5275 23.7364 79.1178 24.1954 78.6834C26.4511 76.4673 27.7048 73.4318 29.2447 70.7319C29.842 69.6509 30.5774 68.6589 31.2931 67.6125C34.1707 63.4121 35.2911 58.3924 36.3276 53.506C36.5201 53.4961 36.7126 53.4665 36.8952 53.3974L36.9446 53.3777V53.3135C37.1124 51.6106 37.5467 49.9423 38.2624 48.4073C38.9436 46.8673 40.0245 45.4903 40.6513 43.7973C40.9129 43.1754 41.0215 42.5239 41.0265 41.8723C41.3868 42.0747 41.8754 42.0303 42.2407 41.8477C43.7214 41.1023 43.3265 39.1774 43.4401 37.8398C43.5092 35.9593 44.0521 34.2811 44.6395 32.4795C44.8122 31.9415 44.8714 31.4282 44.832 30.9396C45.3848 31.6947 46.1794 32.2673 47.0037 32.7115C48.0649 33.3433 49.7332 33.131 50.4341 31.9316C50.8931 31.0975 50.6216 30.1893 50.1824 29.3996C50.9474 29.903 51.747 30.3473 52.5515 30.7619C53.7164 31.3986 55.0638 31.7145 56.1152 32.5388C56.747 33.0225 57.1665 33.6888 57.6453 34.3403C58.2869 35.2386 59.1408 35.9889 60.0984 36.5071C60.0984 36.5071 60.1082 36.4923 60.1181 36.4775C60.1181 36.4973 60.1181 36.5121 60.1181 36.5121C62.3491 36.7292 64.6837 36.8921 66.8209 37.5387C68.9235 38.3432 70.7251 39.7055 72.6846 40.8407L72.729 40.7865C69.195 36.5664 65.2365 36.4282 60.128 36.438C58.6818 35.5595 57.976 34.0935 57.0382 32.7609C56.8259 32.4795 56.5693 32.2327 56.2978 32.0057C56.1497 31.3443 56.0708 30.6533 56.1053 29.9919C56.4064 30.3621 56.6927 30.7619 57.0678 31.058C57.3541 31.2703 57.665 31.4183 57.9513 31.6158C58.2277 31.8083 58.4843 32.0452 58.7756 32.2475C59.047 32.4746 59.4222 32.4993 59.7084 32.7066C59.9898 32.8991 60.2168 33.215 60.5722 33.2742V33.2643L60.5821 33.2544C60.2267 33.1508 60.0539 32.8398 59.7775 32.6227C59.6344 32.5141 59.4764 32.4252 59.3037 32.366C58.8249 32.1834 58.5041 31.754 58.0747 31.4578C57.7983 31.2456 57.4873 31.0827 57.2208 30.8754C56.8259 30.5546 56.5446 30.1103 56.209 29.7253C56.1941 29.7105 56.1793 29.6908 56.1645 29.676C56.3965 29.0245 57.28 28.6987 57.8378 29.1528L57.8131 29.1331C57.8131 29.1331 57.8476 29.1577 57.8624 29.1676H57.8526C58.5485 29.7254 59.1902 30.441 60.0737 30.752C60.814 31.0284 61.6186 31.1024 62.3935 30.9988C62.2553 31.2209 61.9591 31.4331 61.816 31.5713C61.6433 31.7145 61.4754 31.8823 61.3471 32.0699C61.0905 32.4351 60.9325 32.8645 60.893 33.2989H60.9029C60.9226 33.131 61.0559 32.2623 61.8209 31.675C62.2158 31.369 62.428 31.1617 62.5218 30.9889C62.6452 30.9692 62.7637 30.9445 62.8871 30.9149C63.0302 30.8803 63.1684 30.8408 63.3066 30.7964C63.3362 30.8359 63.3658 30.8754 63.3856 30.905C63.43 30.9642 63.4596 30.9988 63.4596 30.9988C63.4596 30.9988 61.9049 32.2081 61.7272 32.6029C61.6186 32.8448 61.4902 33.0619 61.4063 33.1952C61.4211 33.1853 61.436 33.1853 61.4508 33.1804C61.4409 33.2051 61.4211 33.2248 61.4063 33.2446C61.3915 33.2692 61.3767 33.289 61.357 33.3087C61.3669 33.3087 61.3767 33.3087 61.3866 33.2989C61.9345 33.1409 62.4873 32.8793 63.0253 32.6671C63.5534 32.4746 64.0618 32.2031 64.5011 31.8428L64.5208 31.8675L64.5603 31.8527V31.8428L64.6047 31.8181C64.6343 31.8181 64.664 31.8181 64.6936 31.8181C64.7182 31.8181 64.7528 31.8329 64.7577 31.8083C64.7676 31.7885 64.7676 31.7638 64.7577 31.7293L64.8762 31.6552V31.6454C64.8959 31.6158 64.9206 31.5812 64.9404 31.5516C64.9058 31.5763 64.8713 31.596 64.8416 31.6158L64.8318 31.6059L64.7627 31.6503L64.7232 31.675L64.5159 31.8083C64.5159 31.8083 64.4863 31.828 64.4715 31.8329C64.4715 31.8329 64.4616 31.8231 64.4616 31.8181C64.2049 31.9119 63.9483 32.0106 63.7015 32.1143C63.1734 32.3216 62.6551 32.6128 62.1418 32.8645C61.9098 32.9682 61.6778 33.0916 61.4409 33.1853C61.6235 32.9089 61.7518 32.598 61.9937 32.366C62.5021 31.8872 63.0598 31.4627 63.6126 31.0333C63.5485 30.9396 63.4843 30.8507 63.4201 30.7619C64.2839 30.4558 65.0144 29.9425 65.6807 29.3354C65.7745 29.4588 65.8683 29.5773 65.9621 29.6957V29.5822H65.9867C65.9867 29.5822 65.9867 29.5921 65.9867 29.597C66.1398 29.7994 66.2681 29.9623 66.3224 30.061C66.4507 30.3028 65.8436 30.7471 65.4734 30.9593C65.1526 31.137 64.9157 31.4726 64.8515 31.5763C64.8416 31.5861 64.8416 31.596 64.8367 31.601C64.8811 31.5763 64.9256 31.5417 64.965 31.522C64.9749 31.5121 64.9848 31.4973 64.9897 31.4874C65.0835 31.369 65.1822 31.2604 65.3007 31.1617C65.6511 30.9001 66.0608 30.7323 66.3372 30.3621C66.3865 30.288 66.4458 30.1794 66.4162 30.0758C66.3717 29.9376 66.2632 29.8241 66.1842 29.7105C66.0608 29.5427 65.9324 29.3798 65.814 29.212C66.2039 28.8418 66.5741 28.447 66.9344 28.0472C66.8308 28.6148 67.0233 28.832 67.2207 29.5032C67.4181 30.1844 67.3638 30.52 67.3638 30.52C67.3638 30.52 67.1516 30.6977 66.9542 30.8211C66.7567 30.9494 66.0361 31.2703 65.5425 31.3147C65.3056 31.3344 65.1427 31.4085 64.965 31.522C64.9552 31.5319 64.9552 31.5417 64.9453 31.5467C65.1082 31.4479 65.2809 31.364 65.4734 31.3443C66.1644 31.2703 66.8604 31.0037 67.3984 30.5595L67.4132 30.5496V30.5299C67.4872 29.829 67.1319 29.1873 66.9887 28.521C66.964 28.3285 66.9986 28.136 67.0331 27.9386C67.0776 27.8892 67.122 27.8349 67.1713 27.7856C67.349 28.447 67.7192 28.9949 68.2177 29.3947C67.6748 32.3265 68.4053 33.9158 71.5691 34.2811C76.3075 34.7549 80.5917 32.0896 84.9945 30.9445C86.6331 30.4953 88.3409 30.2091 90.0339 30.4164C90.6065 30.4608 91.1543 30.6138 91.717 30.7619L91.7466 30.6928C87.3242 28.521 82.4081 30.984 78.2769 32.6424C77.1021 33.1064 75.3105 33.674 73.5434 33.8813C73.8495 33.4173 73.884 32.7658 73.7014 32.2278C73.2966 30.6928 69.5454 31.4233 68.2819 31.6651C68.1486 30.9494 68.2227 30.1646 68.2967 29.4489C69.1555 30.1005 70.35 30.3473 71.5543 30.0511C72.9857 29.75 74.2641 29.0738 75.5622 28.521C77.497 27.6573 81.4062 25.9347 83.3459 25.0808C84.4663 24.5921 86.0902 23.8123 87.2254 23.4273C90.0388 22.2921 92.5808 22.7807 95.3201 23.837L95.3498 23.7728C94.7229 23.4372 94.0763 23.1361 93.41 22.8695C91.3814 22.0156 89.0468 22.0107 86.9935 22.7461C84.6095 23.5606 81.5098 25.214 79.2097 26.2703L75.3647 28.0965C74.0765 28.6888 72.8277 29.3848 71.4803 29.7007C70.9867 29.829 70.4635 29.8784 69.9551 29.8241C70.9818 29.5082 72.808 28.8024 72.8278 27.9534C72.8376 27.2969 72.4822 26.7244 72.1318 26.2357C71.8406 25.8656 71.4704 25.5201 70.9916 25.3473C70.5129 25.1894 70.0292 25.293 69.5701 25.4115C68.7458 25.6533 67.9808 26.0136 67.2503 26.4332C67.3293 25.8902 67.5563 25.3671 67.9314 24.9376C68.6225 24.8537 69.2937 24.6119 69.8663 24.2614C71.8357 23.0768 73.5582 21.5813 75.2759 20.0956C78.6421 17.1539 82.2403 14.0049 86.796 13.2546L86.7862 13.1855C82.2057 13.8864 78.5385 17.0206 75.1377 19.9327C73.4102 21.3987 71.6678 22.8695 69.7281 24.0097C69.0815 24.3848 68.3609 24.6217 67.6353 24.6464C68.0647 24.4441 68.4843 24.217 68.8841 23.9554C69.654 23.4914 70.4734 22.7264 70.7103 21.7837C70.7893 21.6307 70.8337 21.3246 70.7991 21.1469C70.6906 20.3079 70.2315 19.5576 69.6639 18.9456C68.4892 17.6722 67.2997 18.1608 66.1101 19.0591C65.1871 19.7551 64.3629 20.5497 63.583 21.374C63.3708 20.2486 63.6274 19.0344 64.4665 18.0621C67.966 14.3899 72.0331 11.2408 76.3815 8.62979C78.2917 7.54885 80.2561 6.22606 82.4871 6.08292C84.6687 5.92004 86.9096 6.74925 88.4347 8.29416C89.5848 9.459 90.409 11.2556 92.023 12.0305C93.5136 12.7857 95.4139 12.5389 96.5788 13.8321C97.2747 14.5922 97.5955 15.6732 97.9114 16.7442C98.1977 17.5833 98.2866 18.5606 98.9628 19.2516C99.2392 19.5132 99.5699 19.6317 99.8413 19.7254C100.883 20.0561 101.786 20.6583 102.117 21.6257C102.551 22.835 102.285 24.3651 102.275 25.7175C102.211 27.7856 103.365 29.6414 104.126 31.4677C104.575 32.5042 105.004 33.5506 105.394 34.6068C106.919 38.7529 107.788 43.3037 106.771 47.6719L105.192 45.969L105.137 46.0135L106.638 47.968C107.048 48.4814 107.462 48.9897 107.882 49.4981C107.872 49.5179 107.867 49.5376 107.862 49.5524C107.837 49.6166 107.946 49.6116 107.995 49.6363C108.059 49.7104 108.119 49.7893 108.183 49.8634C108.193 49.8782 108.203 49.8881 108.212 49.8979C108.252 49.9423 108.336 50.0361 108.375 50.0855C108.39 50.1003 108.405 50.12 108.42 50.1348C108.484 50.3816 108.592 50.6136 108.716 50.8259C109.111 51.3244 109.599 51.7439 110.123 52.1141C110.419 52.4547 110.72 52.7804 111.016 53.0815C111.026 53.0914 111.036 53.0963 111.046 53.1013H111.041C111.825 53.8367 112.64 54.5425 113.543 55.1397L113.592 55.0904C113.286 54.6363 112.956 54.2167 112.61 53.8071H112.605ZM40.8883 20.372C39.5753 14.459 46.1893 9.94765 51.2337 13.2102C54.284 15.1105 55.207 19.449 53.1932 22.4056C50.0293 27.2969 42.2505 26.1321 40.8883 20.372ZM28.9782 40.0905C28.9782 40.0905 29.0128 40.1103 29.0226 40.1251C29.0276 40.1399 29.0276 40.1497 29.0276 40.1547C29.0374 40.1399 29.0473 40.1201 29.0572 40.1053C29.0473 40.1251 29.0374 40.1448 29.0276 40.1645L28.9782 40.0905ZM27.8528 52.4744C27.4777 52.3411 27.2852 51.9167 27.1569 51.4626C27.1174 51.3096 27.0829 51.1516 27.0532 50.9937C27.4136 50.737 27.7887 50.4952 28.1786 50.2977C29.4619 49.5228 31.071 49.3451 32.2556 50.3175C31.0364 51.3885 29.2447 52.9433 27.8528 52.4793V52.4744ZM36.7866 53.2296C36.5349 53.3382 36.2585 53.3875 35.9772 53.3826C36.0265 53.3727 36.0759 53.3678 36.1302 53.353L36.1154 53.2839C35.9426 53.2937 35.7896 53.2641 35.6563 53.2148C35.6958 52.7607 35.8834 52.3609 35.913 51.8969C35.9327 51.1072 36.4263 50.4112 37.1568 50.1348C36.915 51.1516 36.7866 52.1931 36.7866 53.2345V53.2296ZM42.0926 41.5515C41.905 41.6848 41.6681 41.7785 41.4312 41.7884C41.6434 41.2405 41.7471 40.7272 41.7175 40.1645C41.7076 40.0214 41.7076 39.8635 41.7668 39.7006C41.9593 39.1428 42.3295 38.6196 42.7293 38.1458C42.7441 39.3403 43.1538 40.7618 42.0926 41.5515ZM71.8011 31.8576C72.191 31.9267 72.5958 32.0353 72.887 32.2574C73.2226 32.672 73.3559 33.2841 73.3016 33.8862C71.426 34.0688 69.6195 33.827 68.6471 32.6079C68.4744 32.3364 68.3707 32.0402 68.3066 31.7293C69.4714 31.6947 70.6659 31.675 71.806 31.8527L71.8011 31.8576ZM67.0825 27.7017C67.0924 27.6326 67.1022 27.5635 67.1072 27.4993C67.1072 27.4845 67.1072 27.4697 67.1072 27.45C67.117 27.5191 67.1319 27.5882 67.1516 27.6573C67.1269 27.6721 67.1022 27.6869 67.0776 27.7017H67.0825ZM69.6491 25.7372C70.0686 25.6632 70.503 25.6188 70.8238 25.7619C71.5444 26.1222 72.0973 27.0699 72.0923 27.8695C72.0824 27.9386 72.0973 27.8991 72.0578 27.9485C71.3322 28.5951 70.4388 29.1084 69.6442 29.75C68.9137 29.6069 68.2473 29.2416 67.8031 28.5901C67.349 27.988 67.1664 27.2328 67.2454 26.5023C68.0302 26.1716 68.8347 25.8804 69.654 25.7323L69.6491 25.7372ZM67.1072 26.369C67.0331 26.369 66.9443 26.3641 66.8851 26.3641C66.8949 26.374 66.8999 26.3789 66.9097 26.3888L66.8406 26.3591C66.8406 26.3591 66.8653 26.3591 66.8851 26.3591C66.5346 26.0038 66.1743 25.6435 65.8634 25.2733C65.6363 24.9919 65.4636 24.602 65.1921 24.3256C65.1329 24.2664 65.0736 24.2121 65.0144 24.1578C65.4438 24.4539 65.9374 24.6859 66.4951 24.8142C66.9295 24.9327 67.3737 24.9623 67.8179 24.9228C67.4675 25.3276 67.2108 25.8261 67.1121 26.3641L67.1072 26.369ZM66.3224 19.3355C67.354 18.6741 68.3312 18.1707 69.2444 19.3108C69.6836 19.8488 70.1822 20.7768 70.0341 21.4332C69.8712 21.8034 69.8465 22.0305 69.7083 22.2526C69.2296 23.0768 68.0746 23.9406 67.3293 24.6217C67.0726 24.6119 66.8209 24.5724 66.5692 24.5033C64.9798 24.1232 63.9187 22.8745 63.6077 21.453C64.4616 20.678 65.355 19.9426 66.3174 19.3306L66.3224 19.3355ZM76.115 8.16089C72.3983 10.4363 68.8989 13.0917 65.7844 16.1371C65.4932 15.7324 65.4093 15.1006 65.4586 14.7452C66.4951 12.8943 67.6353 11.1076 68.8051 9.34054C70.2611 7.15399 71.8505 4.99211 73.5089 2.95363C75.6263 0.03658 77.6352 2.80062 79.4121 4.42943C80.0241 4.95756 80.8188 5.40672 81.648 5.41165C81.7862 5.41659 81.8948 5.46101 81.9886 5.53505C79.8267 5.83613 77.9659 7.09476 76.115 8.16089ZM108.617 49.7104L108.553 49.5524C108.588 49.5919 108.622 49.6709 108.617 49.7104Z" fill="url(#paint3_linear_0_453)"/>
<path d="M95.1621 65.6377C94.8758 62.5084 95.863 59.4926 95.8531 56.3386C95.8581 54.236 95.5175 52.1284 94.8512 50.1245C93.2717 45.1393 90.4386 43.2292 85.2461 43.3032C83.1435 43.3328 81.0852 43.555 79.0616 43.2637C77.0033 42.9972 75.2265 41.7781 73.2472 41.2104L73.2225 41.2795C75.1672 42.0594 76.8849 43.3822 78.9777 43.7573C81.0704 44.167 83.1978 43.9794 85.2412 44.0239C90.1227 44.0239 92.709 45.623 94.3082 50.312C94.9894 52.2419 95.3595 54.2854 95.3892 56.3386C95.4286 58.3919 95.0387 60.4403 94.861 62.5232C94.3428 66.8371 96.0555 71.0769 99.9794 73.1845L100.014 73.1203C97.3141 71.5952 95.4336 68.7225 95.1671 65.6377H95.1621Z" fill="url(#paint4_linear_0_453)"/>
<path d="M47.2087 14.5972C44.0794 14.5083 41.6855 17.6623 42.9491 20.6386C44.1238 23.5902 48.2156 24.3404 50.3725 22.0354C53.102 19.2121 51.0734 14.6416 47.2087 14.5972ZM50.0369 21.7047C48.5413 23.2151 45.8908 23.1756 44.4644 21.6159C42.0754 19.1973 43.7092 14.7107 47.2087 14.6712C50.8463 14.6219 52.6282 19.2269 50.0369 21.7047Z" fill="url(#paint5_linear_0_453)"/>
<path d="M62.9396 23.4472C62.9396 23.4472 63.374 24.079 63.6652 24.3652C63.7935 24.4936 63.8774 24.6663 63.9416 24.8292C63.9663 24.8391 63.986 24.8539 64.0107 24.8687C63.986 24.5726 63.8281 24.311 63.5961 24.1234C63.3295 23.847 63.0778 23.5508 62.8557 23.2399C62.8409 23.23 62.831 23.2201 62.8113 23.2152L62.9396 23.4472Z" fill="url(#paint6_linear_0_453)"/>
<path d="M60.8179 26.6305C60.9018 26.2357 60.729 26.206 61.0005 25.4064C61.2325 24.7253 61.3509 24.1429 61.3855 23.98C61.3855 23.9701 61.3756 23.9603 61.3756 23.9553C61.1979 24.3995 61.0449 24.8438 60.9117 25.3077C60.8228 25.6236 60.729 25.9691 60.7636 26.2998C60.7883 26.4676 60.7438 26.6058 60.7438 26.7786C60.7586 27.0698 60.8376 27.3413 60.9413 27.6127C60.9413 27.6029 60.9511 27.5881 60.9511 27.5782C60.8771 27.3511 60.7586 26.9119 60.8129 26.6305H60.8179Z" fill="url(#paint7_linear_0_453)"/>
<path d="M61.0037 27.727H60.9938C60.979 27.6923 60.9641 27.6527 60.9443 27.6131L60.9542 27.5784C60.979 27.6725 61.0037 27.727 61.0037 27.727Z" fill="#A8A39B" fill-opacity="0.25"/>
</g>
<defs>
<linearGradient id="paint0_linear_0_453" x1="72.8011" y1="15.2479" x2="107.932" y2="67.944" gradientUnits="userSpaceOnUse">
<stop stop-color="#302921"/>
<stop offset="1" stop-color="#302921" stop-opacity="0"/>
</linearGradient>
<linearGradient id="paint1_linear_0_453" x1="38.4135" y1="24.8964" x2="0.777771" y2="81.7984" gradientUnits="userSpaceOnUse">
<stop stop-color="#302921"/>
<stop offset="1" stop-color="#302921" stop-opacity="0"/>
</linearGradient>
<linearGradient id="paint2_linear_0_453" x1="58.0683" y1="28.7777" x2="58.0683" y2="28.7969" gradientUnits="userSpaceOnUse">
<stop offset="0.3" stop-color="#E4BF86"/>
<stop offset="1" stop-color="#E4BF86" stop-opacity="0"/>
</linearGradient>
<linearGradient id="paint3_linear_0_453" x1="57.1517" y1="0.941406" x2="57.1517" y2="79.8532" gradientUnits="userSpaceOnUse">
<stop offset="0.3" stop-color="#E4BF86"/>
<stop offset="1" stop-color="#E4BF86" stop-opacity="0"/>
</linearGradient>
<linearGradient id="paint4_linear_0_453" x1="86.6183" y1="41.2104" x2="86.6183" y2="73.1845" gradientUnits="userSpaceOnUse">
<stop offset="0.3" stop-color="#E4BF86"/>
<stop offset="1" stop-color="#E4BF86" stop-opacity="0"/>
</linearGradient>
<linearGradient id="paint5_linear_0_453" x1="47.1159" y1="14.5953" x2="47.1159" y2="23.3896" gradientUnits="userSpaceOnUse">
<stop offset="0.3" stop-color="#E4BF86"/>
<stop offset="1" stop-color="#E4BF86" stop-opacity="0"/>
</linearGradient>
<linearGradient id="paint6_linear_0_453" x1="63.411" y1="23.2152" x2="63.411" y2="24.8687" gradientUnits="userSpaceOnUse">
<stop offset="0.3" stop-color="#E4BF86"/>
<stop offset="1" stop-color="#E4BF86" stop-opacity="0"/>
</linearGradient>
<linearGradient id="paint7_linear_0_453" x1="61.0647" y1="23.9553" x2="61.0647" y2="27.6127" gradientUnits="userSpaceOnUse">
<stop offset="0.3" stop-color="#E4BF86"/>
<stop offset="1" stop-color="#E4BF86" stop-opacity="0"/>
</linearGradient>
</defs>
</svg>
