<svg width="107" height="73" viewBox="0 0 107 73" fill="none" xmlns="http://www.w3.org/2000/svg">
<g style="mix-blend-mode:screen">
<path opacity="0.25" d="M74.2239 67.6179C69.6415 67.6808 63.3219 66.9308 57.6749 66.1711L57.6604 66.2824C59.9879 66.5969 62.3687 67.1776 64.5752 67.7292C69.5738 68.7357 74.6207 69.7809 79.6144 70.589C81.6371 70.8987 83.6017 71.0777 85.663 71.1309C87.7244 71.218 89.7858 71.4358 91.7842 71.5132C92.7762 71.5374 93.7682 71.5326 94.6247 71.2906C95.4908 71.0342 96.3764 70.4825 97.1699 69.9938C99.6523 68.3728 102.125 66.5195 103.983 64.2113C104.123 64.0371 104.249 63.8533 104.365 63.6646C102.086 64.0904 98.6506 64.671 93.8795 65.3243C83.9404 66.6937 82.45 67.4969 74.2239 67.6082V67.6179Z" fill="#61533E" fill-opacity="0.25"/>
<path opacity="0.25" d="M15.3958 62.0102C13.7554 61.8795 12.3231 61.7344 11.1424 61.565C10.2859 61.4392 9.14878 61.3714 7.90518 61.3424C9.56008 62.4747 11.1714 63.7183 12.7199 64.9813C13.3199 65.3926 14.0748 65.6684 14.7619 65.9152C15.9861 66.1377 17.2781 65.8861 18.5314 65.9152C18.6475 65.9152 18.7733 65.9152 18.8895 65.9152L16.0442 62.615C16.0442 62.615 15.8022 62.3876 15.4006 62.015L15.3958 62.0102Z" fill="#61533E" fill-opacity="0.25"/>
<path opacity="0.25" d="M43.1088 65.9586C46.7573 66.0118 51.8188 65.8715 55.4286 66.0747C56.1593 66.1086 56.9045 66.186 57.6545 66.2828L57.669 66.1715C53.1737 65.5715 49.109 64.9618 46.6751 64.7585C41.1926 64.3037 36.1698 63.5004 28.747 62.9294H28.7325C23.6226 62.5326 19.0063 62.2955 15.3917 62.0004C15.7981 62.373 16.0352 62.6004 16.0352 62.6004L18.8805 65.9005C25.955 65.8134 36.0247 65.9102 43.1088 65.9489V65.9586Z" fill="#61533E" fill-opacity="0.25"/>
<path opacity="0.25" d="M1.73013 48.8044C1.55593 48.156 1.33334 47.2027 1.14946 46.3801C0.975259 46.6076 0.917192 46.9318 0.912354 47.256C0.912354 48.3689 1.11075 49.4867 1.17849 50.6045C1.23656 51.3206 1.2414 52.0707 1.28495 52.811C2.40757 52.9126 3.54471 53.0094 4.68668 53.1062C3.18179 51.4513 1.95755 49.6319 1.73013 48.8044Z" fill="#61533E" fill-opacity="0.25"/>
<path opacity="0.75" d="M7.81602 61.2837C7.84505 61.3031 7.86925 61.3224 7.89828 61.3418C9.14187 61.3708 10.279 61.4386 11.1355 61.5644C12.3162 61.7337 13.7533 61.8789 15.3889 62.0096C13.855 60.5918 9.96449 57.0642 7.87409 55.8593C6.89663 55.2932 5.84175 54.3544 4.88849 53.3383C3.67877 53.2125 2.47389 53.0818 1.28352 52.9512C1.37062 54.4174 1.61257 55.8545 2.65777 56.9674C4.21589 58.5788 6.03531 59.9288 7.81118 61.2886C7.81118 61.2886 7.79183 61.3176 7.77247 61.3418L7.81118 61.2886L7.81602 61.2837Z" fill="#61533E" fill-opacity="0.25"/>
<path opacity="0.75" d="M93.7545 58.9619C92.448 59.1699 91.1367 59.3054 89.8253 59.3974C87.7688 62.2475 83.7477 65.5331 80.5444 64.9959C76.7797 64.3669 73.1409 60.9022 64.8567 61.3184C56.5773 61.7345 49.9239 58.9715 44.4027 58.0909C38.9106 57.2199 29.7506 62.9297 28.7538 62.9297C36.1766 63.5007 41.1994 64.2991 46.6818 64.7588C49.1158 64.9621 53.1805 65.5669 57.6758 66.1718C63.3228 66.9267 69.6423 67.6815 74.2248 67.6186C82.4509 67.5025 83.9412 66.7041 93.8803 65.3347C98.6515 64.6766 102.087 64.1008 104.366 63.6749C104.739 63.0701 104.99 62.4071 105.165 61.7055C105.634 59.7941 105.678 57.7618 105.634 55.7779C105.615 55.415 105.595 55.0472 105.576 54.6794C103.79 55.5117 102.01 56.3392 100.185 57.0892C98.124 57.9215 95.9707 58.5893 93.7497 58.9619H93.7545Z" fill="#61533E" fill-opacity="0.25"/>
<path opacity="0.75" d="M28.7518 62.9346C29.7438 62.9346 38.9087 57.2199 44.4008 58.0957C49.9268 58.9764 56.5754 61.7346 64.8548 61.3233C73.1389 60.9071 76.7778 64.3718 80.5424 65.0008C83.7458 65.5379 87.7669 62.2523 89.8234 59.4022C86.7023 59.62 83.5716 59.5861 80.4408 59.6587C73.9906 59.6297 66.9113 59.7313 60.5094 59.2619C53.8947 58.7151 47.338 57.4038 40.7716 56.6779C29.2599 55.6521 16.645 54.5779 4.8913 53.3391C5.84456 54.3553 6.8946 55.294 7.87689 55.8602C9.96245 57.0699 13.8578 60.5926 15.3917 62.0104C19.0063 62.3007 23.6275 62.5427 28.7325 62.9395H28.747L28.7518 62.9346Z" fill="#61533E" fill-opacity="0.25"/>
<path opacity="0.25" d="M92.2649 48.587C91.8585 52.8452 91.3504 56.6873 90.7117 57.9696C90.6584 58.0712 90.6004 58.1776 90.5423 58.2889C93.7553 58.1341 96.9151 57.6502 99.9781 56.5227C101.856 55.9034 103.704 55.1679 105.572 54.4807C105.403 51.1032 105.286 47.6966 105.132 44.29C103.08 45.1659 100.031 46.4288 97.7474 47.2176C95.0957 48.1321 94.5586 48.4708 92.2649 48.587Z" fill="#61533E" fill-opacity="0.25"/>
<path opacity="0.25" d="M4.68713 53.1065C16.5569 54.113 29.2251 54.9211 40.8626 55.8066C49.6694 56.6873 58.3262 58.4341 67.1958 58.226C71.7928 58.2405 82.6029 58.3615 87.0643 58.3422C88.2305 58.3567 89.387 58.3422 90.5435 58.2841C90.6015 58.1776 90.6644 58.0712 90.7128 57.9647C91.3516 56.6824 91.8548 52.8403 92.2661 48.5821C91.2935 48.6305 90.0015 48.645 88.0998 48.645C81.7077 48.645 72.2815 49.3418 67.3507 49.3418C62.4199 49.3418 55.7567 48.2289 48.9726 47.3676C42.1885 46.5062 38.9803 47.6143 30.3477 46.3224C21.7103 45.0255 14.4375 43.7819 8.39371 43.4771C7.05818 43.4142 5.94524 43.3271 5.01617 43.24C4.87584 43.3464 4.73552 43.4529 4.60003 43.5642C3.53063 44.3723 2.43221 45.2578 1.40636 46.124L1.30475 46.2111L1.25636 46.2546L1.23216 46.2788L1.22249 46.2885C1.22732 46.2837 1.23216 46.274 1.23216 46.2643L1.20313 46.303C1.20313 46.303 1.16926 46.3562 1.1499 46.3804C1.33378 47.2079 1.55637 48.1611 1.73057 48.8047C1.958 49.6322 3.1774 51.4516 4.68713 53.1065Z" fill="#61533E" fill-opacity="0.25"/>
<path opacity="0.75" d="M93.1984 37.08C92.9565 40.022 92.6565 44.498 92.2645 48.5868C94.5581 48.4707 95.0904 48.132 97.747 47.2174C100.031 46.4287 103.075 45.1658 105.131 44.2899C105.025 41.9866 104.899 39.6881 104.725 37.409C104.662 36.6783 104.589 35.9186 104.439 35.217C104.328 34.8686 104.158 34.5492 103.96 34.2444C102.383 34.6992 100.815 35.1831 99.2422 35.667C97.2486 36.2864 95.2307 36.7461 93.2032 37.0848L93.1984 37.08Z" fill="#61533E" fill-opacity="0.25"/>
<path opacity="0.25" d="M93.3943 26.9958C93.583 29.9524 93.6894 32.9332 93.4765 34.3751C93.4185 34.7671 93.3604 35.3381 93.2926 36.0494C93.4378 36.0349 93.5781 36.0155 93.7233 36.001C94.4588 35.9284 95.6734 35.822 96.4137 35.6575C98.8961 35.1687 101.349 34.53 103.841 34.0703C103.42 33.4751 102.883 32.9332 102.375 32.367C100.512 30.4169 98.5041 28.5395 96.6363 26.5652C96.2928 26.6523 95.9056 26.7249 95.4605 26.7829C94.8798 26.8555 94.1927 26.9329 93.3894 27.0055L93.3943 26.9958Z" fill="#61533E" fill-opacity="0.25"/>
<path opacity="0.75" d="M95.4589 26.7737C95.8992 26.7204 96.2864 26.643 96.6348 26.5559C96.3928 26.2995 96.1509 26.043 95.9186 25.7817L93.8185 23.5171C93.5717 23.2316 93.3153 22.9606 93.0588 22.6848C93.1701 23.972 93.2911 25.4769 93.3879 26.9963C94.1911 26.9237 94.8782 26.8463 95.4589 26.7737Z" fill="#61533E" fill-opacity="0.25"/>
<path opacity="0.25" d="M60.8906 35.6528C70.0797 35.7931 79.1526 36.8093 88.2884 36.4996C89.9772 36.4464 91.6079 36.2383 93.2869 36.0448C93.3547 35.3334 93.4128 34.7625 93.4708 34.3705C93.6837 32.9334 93.5821 29.9526 93.3886 26.9912C90.9014 27.2331 87.3061 27.4848 82.2253 27.7122C75.5089 28.0122 65.9569 28.3606 59.8212 28.0654C53.6903 27.7703 47.9756 27.238 44.7916 27.1218C41.6076 27.0057 32.8251 25.767 29.404 25.4718C27.0765 25.2734 23.7231 24.9637 21.8214 24.7847C21.1004 25.9799 20.3988 27.1799 19.7117 28.3606C18.8213 29.7929 18.1342 31.3462 17.3551 32.8463C22.6924 33.6979 28.0491 34.4673 33.4348 34.9463C42.5657 35.6238 51.7209 35.4205 60.8858 35.648L60.8906 35.6528Z" fill="#61533E" fill-opacity="0.25"/>
<path opacity="0.75" d="M44.7894 27.1267C47.9734 27.2428 53.6929 27.7751 59.819 28.0703C65.9498 28.3654 75.5018 28.0122 82.223 27.717C87.3038 27.4944 90.904 27.238 93.3863 26.996C93.2895 25.4814 93.1686 23.9766 93.0573 22.6846C92.5782 22.1668 92.0847 21.6684 91.5766 21.1797C86.3361 21.7942 81.0326 21.6781 75.7776 21.7168C73.0582 21.7652 70.2758 21.6636 67.5515 21.4652C64.8224 21.2619 62.1029 21.0635 59.3786 20.9377C56.9592 20.8458 53.5429 20.7587 51.167 20.4877C45.7039 19.9603 40.3473 18.7844 34.9616 17.8021C32.3873 17.3618 29.7888 16.936 27.171 17.0037C25.1871 19.4232 23.4499 22.0942 21.824 24.7846C23.7257 24.9637 27.0742 25.2685 29.4066 25.4718C32.8277 25.7669 41.6102 27.0057 44.7942 27.1218L44.7894 27.1267Z" fill="#61533E" fill-opacity="0.25"/>
<path opacity="0.75" d="M30.3453 46.3232C38.9828 47.6201 42.1861 46.5071 48.9702 47.3684C55.7495 48.2298 62.4126 49.3427 67.3483 49.3427C72.284 49.3427 81.7101 48.6459 88.0975 48.6459C89.9991 48.6459 91.2911 48.6314 92.2637 48.583C92.6557 44.4941 92.9557 40.0182 93.1976 37.0761C82.5618 38.8423 71.5243 37.1777 60.8545 36.7229C49.8944 36.2293 38.8134 36.4761 27.9259 34.7728C24.3693 34.2454 20.8224 33.6405 17.29 32.9824C16.9078 33.7083 16.5061 34.4244 16.0368 35.1067C12.9012 38.5181 8.63327 40.4537 5.01378 43.2409C5.94284 43.328 7.05579 43.4102 8.39132 43.478C14.4351 43.778 21.7079 45.0264 30.3453 46.3232Z" fill="#61533E" fill-opacity="0.25"/>
<path opacity="0.25" d="M35.0254 17.4152C40.4255 18.204 45.8016 19.225 51.2453 19.6266C53.597 19.8347 57.0229 19.8395 59.4182 19.8734C63.5215 19.9508 67.6152 20.1782 71.7089 20.2992C78.256 20.3573 84.803 20.8411 91.3403 20.9573C89.2596 19.012 86.9418 17.3378 84.3965 16.0458C82.5819 15.078 80.6609 14.449 78.7979 13.5489C73.2816 10.7956 68.254 7.21484 62.8489 4.28731C59.4327 2.40983 55.0003 0.798477 51.5066 0.759766C49.8033 1.29204 48.0855 1.984 46.4645 2.74855C44.7951 3.4889 42.9853 3.88569 41.3159 4.597C40.7546 4.82927 39.9368 5.27445 39.3949 5.56962C38.1126 6.25674 36.8641 6.96322 35.7996 7.9068C34.8899 8.71006 33.6366 10.1278 32.7608 11.0182L29.7461 14.1828C28.8896 15.0296 28.0767 15.9297 27.3025 16.8684C29.8913 16.7329 32.4753 17.0717 35.0302 17.4249L35.0254 17.4152Z" fill="#61533E" fill-opacity="0.25"/>
<path opacity="0.25" d="M1.2809 52.8111C1.24219 52.0708 1.23252 51.3256 1.17445 50.6046C1.10671 49.4868 0.908311 48.369 0.908311 47.2561C0.91315 46.9319 0.971216 46.6077 1.14542 46.3803C1.1309 46.3222 1.12122 46.2641 1.10671 46.2061C0.409905 46.8738 1.00993 48.6884 1.12122 51.7514C1.13574 52.1627 1.15509 52.5353 1.17445 52.8692C1.17445 52.8353 1.17929 52.8015 1.17929 52.8015C1.21316 52.8015 1.24219 52.8063 1.27607 52.8111H1.2809Z" fill="#61533E" fill-opacity="0.25"/>
<path d="M106.93 55.7388C106.543 49.545 106.398 43.4625 105.88 37.2978C105.793 36.4994 105.74 35.7251 105.546 34.9267C105.135 33.5718 104.099 32.5895 103.185 31.5879C101.026 29.362 98.7716 27.3248 96.686 25.0554L94.5956 22.8247C91.8568 19.7229 88.5567 17.0422 84.8307 15.1841C83.0162 14.2308 81.0274 13.5776 79.1983 12.7066C73.6965 9.99678 68.6447 6.4402 63.2251 3.55139C59.5476 1.64486 55.5313 0.0238379 51.3215 0.0141602C49.894 0.473854 48.5101 1.00129 47.1455 1.62067C45.1761 2.63684 43.0663 3.09653 41.0292 3.95301C40.4388 4.18528 39.6162 4.66917 39.0549 4.96434C37.7774 5.66114 36.4661 6.40149 35.3483 7.40798C34.3902 8.25962 33.195 9.6629 32.2998 10.5774L29.3045 13.7711C25.2108 17.8696 22.1769 23.144 19.3122 28.1426C18.567 29.4056 17.9332 30.7314 17.2847 32.0331C16.6267 33.3057 16.0847 34.6751 14.9911 35.638C12.8765 37.6268 10.4184 39.2188 7.96505 40.7673C5.68593 42.2867 3.52779 43.9851 1.43255 45.7513C1.08899 46.0562 0.837369 46.211 0.716397 46.6707C0.513164 47.9917 0.885758 49.3127 0.938986 50.6289C1.05996 52.1096 1.00189 53.6387 1.40352 55.1146C1.79547 56.6291 3.04874 57.655 4.18588 58.6227C5.33753 59.5905 6.5279 60.5002 7.73278 61.3954L7.77149 61.3422C7.79085 61.3132 7.8102 61.289 7.8102 61.289C6.03433 59.9244 4.21491 58.5744 2.65679 56.9678C1.61159 55.8549 1.36965 54.4226 1.28255 52.9516C2.47291 53.0822 3.67779 53.2129 4.88752 53.3387C16.646 54.5774 29.2561 55.6468 40.7679 56.6775C47.3294 57.4033 53.8909 58.7195 60.5057 59.2615C66.9075 59.7309 73.982 59.6244 80.437 59.6583C83.5678 59.5857 86.6986 59.6196 89.8196 59.4018C91.131 59.3099 92.4375 59.1744 93.7488 58.9663C95.965 58.5937 98.1232 57.9259 100.185 57.0937C102.009 56.3436 103.79 55.5162 105.575 54.6839C105.594 55.0516 105.609 55.4146 105.633 55.7823C105.677 57.7614 105.633 59.7986 105.164 61.71C104.99 62.4116 104.733 63.0745 104.365 63.6794C104.249 63.8681 104.123 64.052 103.983 64.2262C102.12 66.5343 99.6474 68.3828 97.1699 70.0087C96.3715 70.4974 95.4908 71.049 94.6246 71.3055C93.7682 71.5474 92.7762 71.5523 91.7842 71.5281C89.7858 71.4458 87.7244 71.2329 85.663 71.1458C83.6017 71.0877 81.6419 70.9135 79.6144 70.6038C74.6207 69.7957 69.5737 68.7505 64.5752 67.744C62.3686 67.1924 59.9879 66.6118 57.6604 66.2972C56.9104 66.1956 56.1652 66.123 55.4345 66.0891C51.8247 65.8811 46.7632 66.0262 43.1147 65.973C36.0354 65.9343 25.9657 65.8375 18.8864 65.9246C18.7703 65.9246 18.6445 65.9246 18.5283 65.9246C17.2702 65.8956 15.9782 66.1472 14.7588 65.9246C14.0717 65.6778 13.3169 65.402 12.7168 64.9907C11.1684 63.7278 9.55704 62.4793 7.90214 61.3519C7.87311 61.3325 7.84892 61.3132 7.81988 61.2938L7.78117 61.347L7.74246 61.4003C8.55539 62.0245 9.38768 62.6245 10.1813 63.2632C11.0039 63.8971 11.7103 64.6085 12.5378 65.2472C13.2007 65.7117 13.9024 65.9972 14.6524 66.2827C15.9299 66.5682 17.2557 66.3311 18.538 66.394C22.0704 66.3988 27.2432 66.5585 30.8191 66.6311C35.0967 66.723 45.1083 66.994 49.2553 67.0231C51.3118 67.0473 53.3441 67.0231 55.3619 67.1876C58.3088 67.3618 61.4396 68.1554 64.309 68.9102C71.3351 70.3038 78.3854 72.2491 85.605 72.5007C87.6373 72.5926 89.6503 72.8104 91.7455 72.9023C92.8294 72.9265 93.923 72.9362 95.0069 72.6362C96.1102 72.3216 96.9812 71.741 97.9248 71.17C100.552 69.428 103.083 67.5263 105.072 65.0343C107.056 62.4019 106.993 58.8744 106.949 55.7388H106.93ZM32.7498 11.0129C33.6208 10.1226 34.8789 8.7048 35.7886 7.90154C36.8532 6.95796 38.1016 6.25632 39.3839 5.56436C39.9307 5.26919 40.7437 4.82401 41.305 4.59175C42.9744 3.88043 44.7793 3.48364 46.4535 2.74329C48.0746 1.97875 49.7875 1.28679 51.4957 0.75451C54.9893 0.79806 59.4266 2.40457 62.838 4.28206C68.243 7.20474 73.2755 10.7855 78.787 13.5437C80.6548 14.4437 82.571 15.0776 84.3856 16.0406C86.9308 17.3325 89.2486 19.0068 91.3294 20.952C84.792 20.8359 78.245 20.352 71.698 20.2939C67.6043 20.173 63.5106 19.9407 59.4072 19.8681C57.0168 19.8342 53.5861 19.8294 51.2344 19.6213C45.7955 19.2149 40.4195 18.1987 35.0144 17.41C32.4595 17.0567 29.8755 16.718 27.2867 16.8535C28.0609 15.9147 28.8739 15.0147 29.7304 14.1679L32.745 11.0033L32.7498 11.0129ZM27.1706 17.0083C29.7884 16.9406 32.3821 17.3664 34.9612 17.8067C40.3469 18.7842 45.7035 19.9601 51.1666 20.4923C53.5425 20.7633 56.9588 20.8504 59.3782 20.9423C62.1025 21.0682 64.822 21.2665 67.5511 21.4698C70.2705 21.6633 73.0529 21.765 75.7772 21.7214C81.0322 21.6827 86.3405 21.794 91.5762 21.1843C92.0842 21.6682 92.5778 22.1714 93.0569 22.6892C93.3133 22.965 93.5698 23.2408 93.8166 23.5215L95.9166 25.7861C96.1537 26.0474 96.3909 26.3038 96.6328 26.5603C98.5006 28.5394 100.509 30.4169 102.372 32.3621C102.875 32.9283 103.417 33.4702 103.838 34.0654C101.346 34.5203 98.8877 35.159 96.4102 35.6526C95.6699 35.8219 94.4553 35.9235 93.7198 35.9961C93.5746 36.0106 93.4343 36.03 93.2891 36.0445C91.61 36.2381 89.9793 36.4461 88.2906 36.4994C79.1547 36.8091 70.0818 35.7929 60.8928 35.6526C51.7279 35.4251 42.5728 35.6284 33.4418 34.9509C28.0561 34.4719 22.6995 33.7025 17.3622 32.8508C18.1412 31.3508 18.8283 29.7975 19.7187 28.3652C20.4058 27.1845 21.1075 25.9845 21.8285 24.7893C23.4543 22.0988 25.1915 19.4278 27.1754 17.0083H27.1706ZM1.10835 46.2062C1.12286 46.2642 1.13254 46.3223 1.14706 46.3804C1.16641 46.3562 1.18093 46.3271 1.20029 46.3029L1.22932 46.2642C1.22932 46.2642 1.22448 46.2787 1.21964 46.2884C1.21964 46.2884 1.22448 46.2836 1.22932 46.2787L1.25351 46.2546L1.3019 46.211L1.40352 46.1239C2.42452 45.2577 3.52779 44.3771 4.59718 43.5641C4.73267 43.4528 4.87784 43.3464 5.01333 43.2399C8.63281 40.4527 12.9007 38.5172 16.0363 35.1058C16.5008 34.4235 16.9073 33.7122 17.2896 32.9815C20.822 33.6396 24.3689 34.2444 27.9255 34.7719C38.8081 36.4752 49.8892 36.2284 60.8541 36.722C71.5238 37.1768 82.5613 38.8414 93.1972 37.0752C95.2295 36.7365 97.2425 36.2768 99.2361 35.6574C100.809 35.1735 102.377 34.6896 103.954 34.2348C104.152 34.5396 104.322 34.859 104.433 35.2074C104.583 35.909 104.656 36.6687 104.719 37.3994C104.898 39.6785 105.019 41.977 105.125 44.2803C105.28 47.682 105.396 51.0934 105.565 54.471C103.698 55.1533 101.854 55.8936 99.9716 56.513C96.9086 57.6404 93.7488 58.1243 90.5358 58.2792C89.3841 58.3372 88.2228 58.3518 87.0566 58.3373C82.5952 58.3566 71.7851 58.2356 67.1882 58.2211C58.3185 58.4244 49.6617 56.6824 40.855 55.8017C29.2223 54.9162 16.5541 54.1129 4.67944 53.1016C3.53747 53.0048 2.40033 52.908 1.27771 52.8064C1.24384 52.8064 1.2148 52.8016 1.18093 52.7967C1.18093 52.7967 1.18093 52.8306 1.17609 52.8645C1.15674 52.5306 1.13738 52.158 1.12286 51.7467C1.01157 48.6837 0.411547 46.8739 1.10835 46.2013V46.2062Z" fill="url(#paint0_linear_0_714)"/>
</g>
<defs>
<linearGradient id="paint0_linear_0_714" x1="53.8097" y1="0.0141602" x2="53.8097" y2="72.9131" gradientUnits="userSpaceOnUse">
<stop offset="0.13" stop-color="#E4BF86"/>
<stop offset="1" stop-color="#E4BF86" stop-opacity="0.27"/>
</linearGradient>
</defs>
</svg>
