<svg width="18" height="17" viewBox="0 0 18 17" fill="none" xmlns="http://www.w3.org/2000/svg">
<path d="M15.7914 15.4058C15.7914 16.1831 15.161 16.8143 14.3831 16.8143C13.6052 16.8143 12.9746 16.1831 12.9746 15.4058C12.9746 14.6273 13.6052 13.9973 14.3831 13.9973C15.161 13.9973 15.7914 14.6273 15.7914 15.4058Z" fill="white"/>
<path d="M7.17159 15.4058C7.17159 16.1831 6.54118 16.8143 5.7633 16.8143C4.98542 16.8143 4.3548 16.1831 4.3548 15.4058C4.3548 14.6273 4.98542 13.9973 5.7633 13.9973C6.54118 13.9973 7.17159 14.6273 7.17159 15.4058Z" fill="white"/>
<path d="M17.242 3.06728H3.60254L3.37775 1.64103C3.2567 0.876255 2.52424 0.250488 1.74932 0.250488H0.34082V1.65878H1.95425L3.73479 12.9346C3.79521 13.317 4.16176 13.6305 4.54901 13.6305H15.8335V12.222H5.04823L4.82555 10.8137H15.8335L17.242 3.06728ZM14.6585 9.40523H4.6033L3.82479 4.47579H15.5544L14.6585 9.40523Z" fill="white"/>
</svg>
