<svg width="25" height="14" viewBox="0 0 25 14" fill="none" xmlns="http://www.w3.org/2000/svg">
<rect x="0.821533" y="0.811279" width="23.2488" height="13.0754" rx="0.94808" fill="#E37575"/>
<path d="M6.28324 7.99963H4.20288V7.42754H6.28324V7.99963ZM8.80398 9.81128H8.08452V4.97445L7.15703 5.96262L6.72362 5.52054L8.1712 4.02962H8.80398V9.81128ZM11.8107 9.90663C11.0739 9.90663 10.5711 9.62058 10.2071 9.21318L10.5711 8.67575C10.8658 9.02248 11.2126 9.26519 11.8107 9.26519C12.9809 9.26519 13.4403 8.09498 13.4403 6.99413C13.4403 6.92478 13.4403 6.84677 13.4316 6.76876C13.1802 7.16749 12.5388 7.67025 11.802 7.67025C10.7618 7.67025 9.90368 7.05481 9.90368 5.82393C9.90368 4.82709 10.6665 3.93427 11.932 3.93427C13.5443 3.93427 14.1684 5.34718 14.1684 6.92478C14.1684 8.48505 13.4316 9.90663 11.8107 9.90663ZM11.9667 7.04614C12.5388 7.04614 13.1022 6.69074 13.4143 6.17932C13.3449 5.46853 12.9635 4.57571 11.958 4.57571C11.0739 4.57571 10.6318 5.24316 10.6318 5.79792C10.6318 6.6474 11.2212 7.04614 11.9667 7.04614ZM16.2646 6.79476C15.4411 6.79476 14.869 6.17932 14.869 5.38185C14.869 4.55838 15.4411 3.94294 16.2646 3.94294C17.0967 3.94294 17.6601 4.55838 17.6601 5.38185C17.6601 6.17932 17.0967 6.79476 16.2646 6.79476ZM16.1865 9.81128H15.7098L19.4024 4.02962H19.8878L16.1865 9.81128ZM19.2811 9.9153C18.4576 9.9153 17.8855 9.29986 17.8855 8.49372C17.8855 7.68758 18.4576 7.06347 19.2811 7.06347C20.1045 7.06347 20.668 7.68758 20.668 8.49372C20.668 9.29986 20.1045 9.9153 19.2811 9.9153ZM16.2646 6.35269C16.7846 6.35269 17.14 5.92795 17.14 5.38185C17.14 4.80975 16.7846 4.38501 16.2646 4.38501C15.7531 4.38501 15.3891 4.80975 15.3891 5.38185C15.3891 5.92795 15.7531 6.35269 16.2646 6.35269ZM19.2811 9.47322C19.8012 9.47322 20.1566 9.04848 20.1566 8.49372C20.1566 7.93029 19.8012 7.50555 19.2811 7.50555C18.7523 7.50555 18.3969 7.93029 18.3969 8.49372C18.3969 9.04848 18.7523 9.47322 19.2811 9.47322Z" fill="white"/>
</svg>
