<svg width="148" height="121" viewBox="0 0 148 121" fill="none" xmlns="http://www.w3.org/2000/svg">
<g style="mix-blend-mode:screen">
<path d="M105.442 69.3079C103.004 69.8897 102.134 69.5385 102.134 69.5385C102.134 69.5385 99.3768 67.6252 99.0308 67.6828C98.6849 67.7405 97.2014 70.4401 96.6824 70.7285C96.1634 71.0168 92.8714 70.4978 92.3996 70.4139C91.9279 70.3301 89.8573 68.4324 88.6935 68.4324C87.5298 68.4324 86.581 69.4232 85.2914 69.5071C84.0019 69.5909 80.6103 67.1796 79.2054 67.2215C77.8006 67.2635 76.6316 68.857 75.8558 68.9462C75.2162 69.0195 72.0081 69.0877 70.8968 69.1087C70.7081 69.1087 70.577 68.9304 70.6399 68.7574C70.9702 67.8348 71.9347 65.3554 73.1404 63.9033C74.6501 62.0948 76.0287 60.1133 76.0707 59.2484C76.1126 58.3834 74.6501 57.9117 73.3972 58.2576C72.1444 58.6036 68.2286 59.7673 65.985 57.01C63.7414 54.2527 64.0769 49.603 63.9144 48.649C63.7519 47.6949 63.1386 45.855 63.0023 44.9061C62.8345 43.7372 64.5277 39.6693 65.0729 37.5044C65.6967 35.0249 62.7664 30.978 62.6877 29.7829C62.6091 28.5929 70.1681 29.2272 71.6778 28.9913C73.1876 28.7554 74.063 26.4437 74.063 25.4896C74.063 24.5356 71.2794 22.3077 70.404 20.8766C69.5286 19.4455 73.696 12.7515 74.2569 12.0962C74.8178 11.4409 80.5998 13.3228 81.816 13.5115C83.0321 13.7003 82.6599 11.399 82.0099 9.34937C81.5224 7.8082 80.4268 4.00772 79.6353 2.08913C79.4099 1.53872 79.7611 0.930642 80.3482 0.846769C81.5906 0.66854 83.5249 0.511278 84.5418 1.04597C86.1092 1.87421 88.5153 4.69443 88.5153 4.69443C88.5153 4.69443 90.0302 2.61334 91.4456 2.68673C92.8609 2.76011 93.4847 5.37589 93.9041 5.48074C94.3235 5.58558 101.951 0.0132842 103.943 0.689508C108.016 2.07341 112.063 9.69534 114.091 12.374C115.176 13.8051 111.575 16.2164 111.423 16.8927C111.271 17.5689 114.568 18.329 115.973 20.5883C116.24 21.0182 115.512 29.8405 115.942 30.8575C116.372 31.8744 118.62 35.6277 118.62 36.6027C118.62 37.5778 118.211 40.4347 117.561 40.8436C116.911 41.2524 113.08 40.8436 109.656 41.74C106.233 42.6363 104.483 45.3255 104.692 49.9962C108.409 52.4285 114.133 59.5419 113.709 62.7239C113.709 62.7239 109.677 62.619 109.468 62.7239C109.258 62.8287 105.793 66.6606 105.447 69.3026" fill="#61533E" fill-opacity="0.25"/>
<path d="M64.5588 37.3834C64.3648 38.154 64.0241 39.1657 63.6624 40.2403C62.8499 42.6569 62.3624 44.1771 62.4829 44.9844C62.5563 45.5086 62.766 46.2687 62.9704 47.0078C63.1434 47.6473 63.3269 48.3078 63.4003 48.7377C63.4265 48.8897 63.437 49.2199 63.4527 49.5974C63.5209 51.343 63.6624 54.981 65.5757 57.3399C67.9818 60.3016 72.0968 59.1641 73.444 58.7867L73.5279 58.7605C74.267 58.556 75.0586 58.7133 75.3888 58.9806C75.5409 59.1012 75.5356 59.1903 75.5356 59.2218C75.5094 59.7355 74.634 61.2819 72.7259 63.5674C71.473 65.0667 70.498 67.5723 70.1311 68.5788C70.042 68.8252 70.0839 69.0925 70.2307 69.3022C70.3827 69.5119 70.6343 69.6272 70.8912 69.6325C72.4952 69.601 75.284 69.5329 75.8973 69.4647C76.3586 69.4123 76.7937 69.0821 77.3022 68.6994C77.8841 68.259 78.5446 67.7611 79.205 67.7401C79.7817 67.7086 80.9926 68.322 82.062 68.8514C83.383 69.5067 84.5205 70.0676 85.312 70.0204C86.0512 69.9732 86.6802 69.6744 87.2359 69.4071C87.7601 69.1554 88.2109 68.9405 88.6827 68.9405C89.2698 68.9405 90.4125 69.7426 91.094 70.2196C91.7126 70.6547 92.0218 70.8643 92.2944 70.9168C92.415 70.9377 94.5485 71.3204 95.9219 71.3204C96.3675 71.3204 96.7344 71.2785 96.9284 71.1736C97.2691 70.9849 97.6466 70.4502 98.3752 69.3599C98.6111 69.0034 98.9466 68.5002 99.151 68.2538C99.6438 68.4949 100.844 69.2655 101.835 69.9575C101.866 69.9784 101.903 69.9994 101.94 70.0151C102.045 70.0571 103.035 70.4083 105.562 69.8055C105.772 69.753 105.934 69.58 105.96 69.3651C106.254 67.1215 109.085 63.8033 109.693 63.211C110.186 63.1743 112.036 63.1952 113.692 63.2424C113.97 63.2424 114.19 63.0537 114.227 62.7864C114.688 59.3371 109.022 52.3285 105.206 49.7022C105.08 45.5243 106.579 43.0815 109.787 42.2428C111.742 41.7291 113.855 41.6557 115.396 41.598C116.822 41.5456 117.467 41.5141 117.839 41.2835C118.887 40.6282 119.144 37.0846 119.144 36.6023C119.144 35.858 118.353 34.3221 117.231 32.2252C116.864 31.5438 116.549 30.9514 116.424 30.6526C116.23 30.1494 116.371 26.6949 116.455 24.6295C116.597 21.1226 116.591 20.5984 116.418 20.3101C115.527 18.879 114.012 18.0403 112.906 17.4269C112.592 17.254 112.214 17.0443 112.025 16.9027C112.183 16.714 112.482 16.4205 112.712 16.1898C113.839 15.0785 115.538 13.3958 114.515 12.0486C114.065 11.451 113.504 10.5913 112.854 9.60058C110.563 6.09889 107.433 1.30766 104.115 0.185866C102.621 -0.317371 99.2559 1.6484 95.6493 3.89199C95.036 4.27466 94.407 4.66257 94.0558 4.85653C93.9876 4.73596 93.9142 4.58918 93.8513 4.46337C93.3953 3.57223 92.7086 2.22502 91.4767 2.16212C90.271 2.09397 89.102 3.20004 88.5044 3.88151C87.7286 3.02181 86.0407 1.23952 84.7878 0.579019C83.6765 -0.00809006 81.7212 0.117719 80.2744 0.322159C79.8341 0.385063 79.4514 0.641923 79.2313 1.02983C79.0111 1.4125 78.9849 1.86856 79.1526 2.28268C79.745 3.71376 80.5051 6.21946 81.0607 8.04369C81.239 8.62031 81.391 9.12355 81.5063 9.50098C82.235 11.797 82.1301 12.8611 81.9781 12.9922C81.9781 12.9922 81.9519 12.9974 81.8942 12.9922C81.5692 12.9398 80.8196 12.7406 79.9547 12.5099C75.8397 11.4091 74.3824 11.147 73.8634 11.7551C73.5594 12.1063 68.8153 19.2669 69.9633 21.1488C70.3617 21.8041 71.1008 22.5746 71.8085 23.3242C72.4533 24.0005 73.5332 25.1328 73.5436 25.4892C73.5436 26.2598 72.7678 28.2885 71.5988 28.4719C71.1638 28.5401 70.0472 28.5296 68.8677 28.5139C65.3923 28.4719 63.0596 28.5034 62.3991 29.2006C62.2366 29.3736 62.1579 29.5885 62.1684 29.8139C62.2051 30.3276 62.5563 31.0563 63.0491 32.068C63.8406 33.6983 64.931 35.9261 64.5693 37.3729L64.5588 37.3834ZM68.8468 29.5728C70.1783 29.5885 71.2319 29.599 71.7561 29.5151C73.6223 29.2215 74.5868 26.5638 74.5868 25.4945C74.5868 24.7711 73.8162 23.9271 72.5634 22.6061C71.8872 21.8984 71.19 21.1645 70.8492 20.6089C70.2778 19.6758 73.6485 13.6841 74.6025 12.4994C75.2473 12.3474 78.23 13.1442 79.6768 13.5269C80.6099 13.7785 81.3438 13.9724 81.7317 14.0353C82.1511 14.0983 82.518 13.9724 82.7696 13.6789C83.3305 13.0236 83.2414 11.5139 82.5023 9.1917C82.387 8.82475 82.235 8.32152 82.0567 7.75014C81.4958 5.90494 80.7252 3.37303 80.1119 1.89477C80.049 1.74799 80.0962 1.62219 80.1329 1.56452C80.1906 1.45968 80.2954 1.39154 80.416 1.37581C82.214 1.11895 83.6241 1.17137 84.2898 1.52259C85.7524 2.29317 88.0851 5.02427 88.1113 5.05048C88.2161 5.17105 88.3839 5.2392 88.5306 5.23395C88.6931 5.22871 88.8399 5.15008 88.9343 5.01903C89.2855 4.53676 90.4807 3.18956 91.4138 3.22625C92.0428 3.2577 92.567 4.2799 92.913 4.95613C93.217 5.55372 93.4005 5.91018 93.7727 6.00453C94.1029 6.08841 94.3493 5.94687 96.1945 4.79362C98.1184 3.59844 102.627 0.799185 103.775 1.1871C106.747 2.19357 109.892 7.00052 111.973 10.1824C112.634 11.1942 113.205 12.0643 113.677 12.6934C114.143 13.3067 112.78 14.6539 111.968 15.4559C111.313 16.106 110.993 16.431 110.909 16.7769C110.757 17.4479 111.444 17.8253 112.392 18.3495C113.383 18.8947 114.73 19.6443 115.485 20.8081C115.543 21.2222 115.464 23.0831 115.401 24.5876C115.255 28.1941 115.186 30.4272 115.454 31.0615C115.601 31.4022 115.91 31.9841 116.303 32.718C116.927 33.887 118.091 36.0624 118.091 36.6023C118.091 37.787 117.634 40.104 117.283 40.3923C117.084 40.4919 116.161 40.5234 115.349 40.5548C113.755 40.6125 111.575 40.6911 109.515 41.2311C105.74 42.2166 103.942 45.1731 104.162 50.0167C104.168 50.1845 104.257 50.3417 104.398 50.4309C107.979 52.7741 112.99 59.1746 113.194 62.1835C109.536 62.0944 109.352 62.1835 109.226 62.2517C108.849 62.4404 105.583 66.0993 104.98 68.8671C103.308 69.2288 102.532 69.0925 102.359 69.0558C99.4865 67.0639 99.1405 67.1215 98.9361 67.1582C98.5796 67.2159 98.3438 67.5199 97.4998 68.7885C97.1643 69.2917 96.6034 70.1357 96.4409 70.251C96.0268 70.3926 93.6049 70.0938 92.5094 69.8946C92.3888 69.8526 92.0061 69.58 91.6968 69.3651C90.7638 68.7099 89.6 67.8973 88.6827 67.8973C87.975 67.8973 87.3722 68.1857 86.785 68.4635C86.2713 68.7099 85.7838 68.9405 85.2439 68.9772C84.7407 69.0139 83.514 68.4006 82.5285 67.9131C81.2337 67.2735 80.0176 66.6707 79.1736 66.6917C78.1776 66.7231 77.3441 67.3522 76.6731 67.8607C76.3586 68.1018 75.9602 68.3953 75.7872 68.4163C75.3941 68.4583 73.7114 68.5159 71.2529 68.5683C71.667 67.4675 72.511 65.4546 73.5332 64.2332C74.6445 62.8964 76.5211 60.4746 76.584 59.2689C76.605 58.8496 76.4163 58.4512 76.0493 58.1576C75.4046 57.6387 74.2513 57.4709 73.2501 57.7435L73.161 57.7697C71.8505 58.1314 68.3593 59.1012 66.383 56.6689C64.6846 54.5826 64.5588 51.3063 64.4906 49.545C64.4749 49.0941 64.4592 48.7691 64.4225 48.5542C64.3439 48.0719 64.1604 47.4167 63.9717 46.7195C63.7777 46.0171 63.5785 45.2832 63.5104 44.8219C63.4213 44.2033 64.1027 42.1851 64.6479 40.5601C65.0148 39.4645 65.3661 38.4318 65.5652 37.6245C66.0213 35.8108 64.8366 33.3837 63.9717 31.6067C63.6414 30.9305 63.3007 30.2333 63.2116 29.8663C63.914 29.4994 67.2112 29.5361 68.831 29.557L68.8468 29.5728Z" fill="url(#paint0_linear_0_633)"/>
<g opacity="0.5">
<g opacity="0.25">
<path d="M20.5524 88.5618L13.9894 94.48C13.9894 94.48 16.212 99.6225 17.8999 100.487C19.5879 101.352 26.7538 93.9768 26.7538 93.9768" fill="#61533E" fill-opacity="0.25"/>
</g>
</g>
<g opacity="0.75">
<path d="M145.016 80.0331C146.111 81.5585 147.228 83.2412 147.181 85.1126C147.16 86.0038 146.866 86.8739 146.814 87.7703C146.751 88.8292 147.029 89.9038 146.861 90.947C146.677 92.0898 145.991 93.0753 145.273 93.9769C144.56 94.8628 143.789 95.7278 142.804 96.2887C141.383 97.1064 139.637 97.1746 138.07 96.6608C139.124 95.5653 139.873 94.1761 140.167 92.6874C140.654 90.2236 139.931 87.6288 138.61 85.5005C137.289 83.367 135.402 81.6424 133.431 80.0907C132.508 79.3726 131.559 78.6806 130.495 78.1984C129.63 77.8052 128.708 77.5641 127.78 77.3544C126.118 76.9822 124.425 76.7358 122.721 76.6677C117.332 76.4685 112.127 78.125 106.864 79.446C107.425 78.7645 107.944 78.0411 108.452 77.3282C109.291 76.154 110.13 74.9797 110.969 73.8055C111.98 72.3902 113.029 70.9381 114.486 69.9893C115.639 69.2397 116.981 68.8466 118.297 68.4691C119.77 68.0445 121.248 67.6147 122.779 67.5046C125.594 67.2949 128.362 68.1546 131.051 69.0038C132.54 69.4808 134.044 69.9526 135.444 70.6498C139.485 72.668 142.379 76.3689 145.01 80.0331H145.016Z" fill="#61533E" fill-opacity="0.25"/>
</g>
<g opacity="0.75">
<path d="M138.599 85.5009C139.92 87.6344 140.643 90.2292 140.156 92.6877C139.862 94.1764 139.113 95.5656 138.059 96.6612C137.225 96.3938 136.439 95.964 135.779 95.3978C135.15 94.8579 134.599 94.1974 133.85 93.8357C133.194 93.5159 132.308 93.5159 131.8 94.0035C131.737 93.9039 131.674 93.8095 131.606 93.7151C130.327 91.8857 128.199 90.6957 126.06 89.9094C123.528 88.9816 120.834 88.4731 118.448 87.2203C117.201 86.565 116.063 85.7263 114.852 85.0186C113.846 84.4367 112.792 83.944 111.733 83.4565C110.491 82.8798 109.249 82.298 108.006 81.7266C107.508 81.4959 107.005 81.26 106.455 81.1971C105.936 81.1342 105.459 81.2076 105.008 81.3754C105.689 80.804 106.292 80.154 106.853 79.4568C112.111 78.1358 117.321 76.4793 122.71 76.6785C124.414 76.7466 126.107 76.993 127.769 77.3652C128.697 77.5696 129.619 77.816 130.484 78.2092C131.548 78.6914 132.497 79.3834 133.42 80.1016C135.396 81.6532 137.278 83.3778 138.599 85.5113V85.5009Z" fill="#61533E" fill-opacity="0.25"/>
</g>
<g opacity="0.25">
<path d="M126.066 89.9101C128.199 90.6964 130.333 91.8863 131.612 93.7158C126.873 96.1638 121.751 97.6997 116.688 99.2933C111.414 100.955 106.293 102.821 101.375 105.358C100.967 105.563 100.762 105.579 100.385 105.689C100.222 105.893 100.044 106.071 99.8501 106.239C99.4884 106.548 99.0847 106.795 98.6706 107.02C98.094 107.335 97.4911 107.607 96.8778 107.838C96.1754 108.1 95.452 108.304 94.7338 108.509C94.1205 108.682 93.5177 108.86 92.9044 109.033C92.3906 108.54 91.8822 108.048 91.3737 107.56C91.0801 107.329 90.9334 107.219 90.6555 107.004C91.2951 106.852 91.9346 106.685 92.5689 106.506C93.7641 106.166 95.0326 105.715 95.7351 104.693C96.296 103.875 96.3956 102.774 96.0443 101.836C95.7298 101.007 95.0064 100.174 94.1625 99.8542C93.9737 99.7861 93.7641 99.7389 93.5439 99.7127C92.7419 98.5961 91.4576 97.7364 90.0894 97.8308C89.5914 97.8675 89.1039 98.03 88.6426 98.2135C87.9978 98.4651 87.374 98.7534 86.7607 99.0784C85.7175 99.634 84.7215 100.279 83.7622 100.971C82.955 101.547 82.2106 102.176 81.419 102.732C81.1255 102.874 80.8424 103.036 80.5698 103.214C80.444 103.298 80.3287 103.382 80.2134 103.482C79.9408 103.628 79.6577 103.765 79.3589 103.88C78.4101 104.258 77.2778 104.562 76.371 104.09C76.177 103.99 75.983 103.849 75.7891 103.681C74.6673 102.695 73.6765 100.682 74.5362 99.4558L74.4629 99.4034C73.6713 99.7546 72.7435 99.6865 71.9414 99.3615C71.1446 99.0365 70.4632 98.4703 69.8708 97.8413C69.4515 97.4009 69.2575 97.3485 69.2785 96.7404C69.116 96.4783 69.0373 96.1743 69.0321 95.8703C69.0216 95.5924 69.0688 95.3146 69.1579 95.0525C68.3506 93.6371 67.0244 92.5101 65.4937 91.9545C65.4937 91.9335 65.5094 91.9073 65.5252 91.8863C65.0691 90.7593 65.2788 89.4488 65.8135 88.3532C65.8135 88.3532 65.8135 88.3427 65.824 88.3374C65.9917 87.9967 66.1909 87.6769 66.4111 87.3677C66.8881 86.6757 67.4647 86.0467 68.0361 85.4229C69.1422 84.2172 70.2483 83.0063 71.3543 81.8006C71.4172 81.7325 71.4801 81.6591 71.543 81.5962C71.8838 81.2345 72.2297 80.8833 72.6281 80.6002C73.1052 80.2647 73.6451 80.0445 74.1955 79.8715C75.6318 79.4364 77.1887 79.3945 78.6512 79.7405C79.7154 79.9921 80.7533 80.4534 81.8489 80.4534C82.2473 80.4534 82.6404 80.3905 83.0336 80.422C84.5119 80.5216 85.5865 81.7849 86.6192 82.849C87.3321 83.5777 87.7619 84.3902 88.716 84.7309C89.4865 85.0087 89.9269 85.8055 90.2991 86.5342C90.5821 87.1003 90.8757 87.6717 91.012 88.285C91.033 88.3741 91.0487 88.4528 91.0697 88.5419C95.2318 87.7136 98.4085 84.0861 102.56 83.1688C103.305 82.4192 104.107 81.6958 105.024 81.3655C105.475 81.1978 105.952 81.1244 106.471 81.1873C107.016 81.2502 107.519 81.4861 108.022 81.7167C109.265 82.2934 110.507 82.87 111.75 83.4466C112.808 83.9341 113.862 84.4269 114.869 85.0087C116.085 85.7164 117.217 86.5604 118.465 87.2104C120.85 88.4632 123.544 88.9717 126.076 89.8996L126.066 89.9101Z" fill="#61533E" fill-opacity="0.25"/>
</g>
<g opacity="0.25">
<path d="M102.432 118.19C102.961 118.699 103.512 119.244 103.711 119.951C102.799 120.622 101.525 120.402 100.434 120.098C98.8828 119.663 97.3574 119.113 95.8844 118.452C95.0195 118.064 94.1545 117.629 93.4521 116.979C92.8597 116.429 92.3984 115.742 91.9791 115.05C91.2137 113.776 90.548 112.445 89.9976 111.066C89.9976 111.066 90.0081 111.066 90.0133 111.066C89.8665 110.862 89.7302 110.668 89.5887 110.49C88.8129 109.488 88.1104 108.833 87.1249 107.675C87.2245 107.664 87.3189 107.643 87.4185 107.627C88.4984 107.46 89.573 107.245 90.6371 106.993C90.9149 107.208 91.0617 107.318 91.3553 107.549C91.869 108.036 92.3775 108.529 92.8859 109.022C96.0679 112.073 99.2498 115.129 102.432 118.185V118.19Z" fill="#61533E" fill-opacity="0.25"/>
</g>
<g opacity="0.25">
<path d="M96.0329 101.835C96.3841 102.768 96.2845 103.874 95.7236 104.692C95.016 105.714 93.7474 106.165 92.5574 106.506C91.9232 106.684 91.2836 106.847 90.6441 107.004C89.58 107.25 88.5106 107.465 87.4255 107.638C87.3259 107.654 87.2315 107.67 87.1319 107.685C86.8751 107.722 86.613 107.743 86.3613 107.738C85.9472 107.727 85.5436 107.633 85.1295 107.612C84.3065 107.559 83.5149 107.622 82.7601 107.565C82.1467 107.518 81.5596 107.392 81.0145 107.061C81.9842 106.789 83.0379 106.899 84.0234 106.647C84.1702 106.611 84.3222 106.564 84.4428 106.469C84.5738 106.364 84.6629 106.218 84.7258 106.066C84.9041 105.62 84.8936 105.101 84.6891 104.671C84.4847 104.231 84.102 103.89 83.646 103.738C82.5399 103.366 81.2084 104.121 80.2019 103.534L80.1915 103.523C80.1915 103.523 80.2019 103.507 80.2124 103.502C80.6318 103.277 81.0302 103.02 81.4181 102.747C82.173 102.375 82.9855 102.108 83.7875 101.846C85.1033 101.416 86.4347 100.981 87.7767 100.63C88.7622 100.367 89.7582 100.137 90.7699 99.9847C91.5615 99.8589 92.6518 99.623 93.5429 99.7226C93.7684 99.7488 93.9728 99.7908 94.1615 99.8642C95.0055 100.184 95.7289 101.023 96.0434 101.846L96.0329 101.835Z" fill="#61533E" fill-opacity="0.25"/>
</g>
<g opacity="0.25">
<path d="M93.5262 99.712C92.6351 99.6124 91.55 99.8483 90.7532 99.9741C89.7467 100.126 88.7507 100.357 87.76 100.619C87.4035 100.116 87.068 99.6019 86.743 99.0829C87.3564 98.7579 87.9802 98.4696 88.6249 98.218C89.0862 98.0345 89.5685 97.8773 90.0717 97.8353C91.4399 97.7357 92.7242 98.6007 93.5262 99.7172V99.712Z" fill="#61533E" fill-opacity="0.25"/>
</g>
<g opacity="0.25">
<path d="M89.5885 110.489C89.4837 110.536 89.3894 110.583 89.2268 110.594C88.5349 110.625 87.8377 110.657 87.1458 110.683C86.5849 110.709 86.003 110.73 85.4893 110.51C84.9231 110.269 84.5195 109.771 84.1368 109.294C83.6703 108.717 83.209 108.135 82.7477 107.559C83.5025 107.611 84.2993 107.548 85.1171 107.606C85.5312 107.632 85.9348 107.721 86.349 107.732C86.6058 107.732 86.8679 107.716 87.1195 107.679C88.105 108.838 88.8075 109.488 89.5833 110.494L89.5885 110.489Z" fill="#61533E" fill-opacity="0.25"/>
</g>
<g opacity="0.25">
<path d="M86.7528 99.0826C87.0726 99.6016 87.4133 100.115 87.7698 100.619C86.4278 100.975 85.0964 101.41 83.7806 101.835C82.9786 102.097 82.1713 102.364 81.4112 102.736C82.2027 102.181 82.9471 101.552 83.7544 100.975C84.7137 100.283 85.7097 99.6383 86.7528 99.0826Z" fill="#61533E" fill-opacity="0.25"/>
</g>
<g opacity="0.25">
<path d="M84.6775 104.666C84.882 105.101 84.8925 105.614 84.7142 106.06C84.6513 106.212 84.5675 106.364 84.4312 106.464C84.3106 106.558 84.1638 106.605 84.0118 106.642C83.0263 106.893 81.9726 106.783 81.0029 107.056C80.7198 106.888 80.4472 106.668 80.1904 106.374C79.6032 105.714 79.3359 104.687 79.8077 103.937C79.9125 103.774 80.0383 103.633 80.1799 103.518L80.1904 103.528C81.1968 104.12 82.5283 103.36 83.6344 103.733C84.0904 103.885 84.4731 104.23 84.6775 104.666Z" fill="#61533E" fill-opacity="0.25"/>
</g>
<g opacity="0.25">
<path d="M75.7736 103.691L75.7526 103.711C72.5445 101.95 69.6509 99.4025 67.5908 96.3674C67.7585 96.2783 67.9315 96.1839 68.094 96.0791C68.4138 96.0791 68.7283 96.0162 69.0166 95.8799C69.0271 96.1839 69.1057 96.488 69.263 96.7501C69.2472 97.3581 69.4412 97.4106 69.8553 97.8509C70.4477 98.4799 71.1291 99.0461 71.9259 99.3711C72.728 99.6961 73.6558 99.7642 74.4474 99.413L74.5207 99.4654C73.6558 100.692 74.6466 102.705 75.7736 103.691Z" fill="#61533E" fill-opacity="0.25"/>
</g>
<g opacity="0.25">
<path d="M71.5191 81.6061C71.4562 81.6742 71.3933 81.7424 71.3304 81.8105C70.2296 83.0162 69.1183 84.2271 68.0122 85.4328C67.4408 86.0566 66.8642 86.6909 66.3872 87.3776C66.0412 87.4667 65.6952 87.6344 65.3545 87.8389C63.5303 85.6425 61.6851 83.4723 59.8084 81.3178L59.7665 81.3021C61.0193 78.5919 63.3049 76.3588 66.0517 75.1898C66.4448 75.0221 66.8485 74.8753 67.2102 74.6499L67.2207 74.6656C68.0646 77.2604 70.1772 79.221 71.5191 81.6009V81.6061Z" fill="#61533E" fill-opacity="0.25"/>
</g>
<g opacity="0.25">
<path d="M69.1441 95.0622C69.055 95.3243 69.013 95.6021 69.0183 95.8799C68.7352 96.0162 68.4154 96.0844 68.0957 96.0791C67.9017 96.0791 67.713 96.0477 67.5295 95.9952C67.4509 95.969 67.367 95.9481 67.2936 95.9114C66.7537 95.686 66.3029 95.2561 66.0355 94.7319C65.915 94.5013 65.8311 94.2549 65.7525 94.0033C65.6372 93.6311 65.5323 93.2536 65.4484 92.871C65.3803 92.5722 65.3541 92.2367 65.4799 91.9589C67.0106 92.5145 68.3368 93.6416 69.1441 95.0569V95.0622Z" fill="#61533E" fill-opacity="0.25"/>
</g>
<g opacity="0.25">
<path d="M68.0682 73.0193C68.2098 73.5435 67.9162 74.0991 67.4968 74.4503C67.4077 74.5237 67.3134 74.5971 67.2138 74.6548C66.8521 74.8802 66.4484 75.0322 66.0553 75.1947C63.3032 76.3637 61.0177 78.5968 59.7701 81.3069C59.6652 81.5323 59.5656 81.7578 59.4818 81.9884C58.9471 82.4602 58.1975 82.759 57.5579 82.4759C57.0232 82.2348 56.7507 81.6686 56.6878 81.0606C56.6563 80.8142 56.6668 80.5573 56.7035 80.3162C56.8974 79.0738 57.647 77.9887 58.4858 77.0399C60.3205 74.9641 62.6742 73.3548 65.269 72.3955C65.7093 72.2277 66.1654 72.0862 66.6267 72.0862C66.7001 72.0862 66.7734 72.0862 66.8521 72.0967C67.392 72.1543 67.9319 72.4951 68.0735 73.0193H68.0682Z" fill="#61533E" fill-opacity="0.25"/>
</g>
<g opacity="0.25">
<path d="M68.0997 96.0795C67.932 96.1843 67.7642 96.2839 67.5965 96.3678C66.9046 96.74 66.1654 97.0335 65.4053 97.2327C64.5404 97.4634 63.5654 97.5682 62.7791 97.1384C62.2916 96.8763 61.9299 96.4307 61.6363 95.9642C61.044 95.0154 60.1318 93.6524 60.0794 92.5359C60.0375 91.6604 60.698 90.6278 61.2851 89.9725C61.7044 89.506 62.3545 89.5898 62.9363 89.3539C63.7279 89.0394 64.5404 88.3317 65.3634 87.8442C65.7041 87.6398 66.0501 87.4668 66.3961 87.3829C66.1759 87.6922 65.9767 88.0172 65.809 88.3527C65.809 88.3527 65.809 88.3632 65.7985 88.3684C65.2638 89.464 65.0541 90.7745 65.5102 91.9016C65.4997 91.9226 65.484 91.9488 65.4787 91.9697C65.3529 92.2476 65.3791 92.583 65.4473 92.8818C65.5311 93.2645 65.6307 93.6419 65.7513 94.0141C65.8299 94.2605 65.9191 94.5121 66.0344 94.7428C66.3017 95.2617 66.7525 95.6916 67.2925 95.917C67.3659 95.9537 67.4497 95.9799 67.5284 96.0061C67.7118 96.0533 67.9005 96.0847 68.0945 96.09L68.0997 96.0795Z" fill="#61533E" fill-opacity="0.25"/>
</g>
<g opacity="0.25">
<path d="M66.6401 67.7254C67.2849 69.0202 67.6047 70.5614 67.1067 71.9138L66.6296 72.0868C66.1683 72.0868 65.707 72.2336 65.2719 72.3961C62.6771 73.3554 60.3235 74.9647 58.4887 77.0405C57.6553 77.9841 56.9004 79.0744 56.7064 80.3168C56.6697 80.5579 56.6593 80.8148 56.6907 81.0612C55.4274 81.5539 54.206 82.1515 53.0475 82.8487C52.6229 83.0951 52.2088 83.3677 51.7999 83.6403C50.9297 84.2379 50.0805 84.8984 49.1527 85.4016C49.0478 85.4593 48.9377 85.5169 48.8277 85.5693C47.8421 86.0516 46.7046 86.3399 45.6352 86.125C46.453 85.8943 47.1816 85.3387 47.4909 84.5576C47.7321 83.9391 47.7111 83.2471 47.6377 82.5866C47.4018 80.5737 46.7308 78.6131 45.6824 76.8833C45.2002 76.0917 44.6235 75.3316 43.8687 74.7865C43.2658 74.3566 42.532 74.0788 41.7928 74.0788L41.8033 73.911C41.1323 73.8586 40.498 74.0893 39.9686 74.4929L39.9424 74.4562C40.215 74.2623 40.4823 74.0735 40.7549 73.8796C41.667 73.2348 42.5791 72.59 43.4912 71.94C44.9066 70.9388 46.3272 69.9376 47.7425 68.9311C48.6075 68.3178 49.4777 67.7097 50.3426 67.0911C52.906 65.2774 55.9988 62.8136 59.3117 62.9342C62.3626 63.0443 65.2877 64.9786 66.6401 67.7149V67.7254ZM59.5581 72.092C59.967 71.4211 60.1452 70.6085 60.0509 69.8327C60.0142 69.5444 59.9408 69.2613 59.8464 68.9835C59.6839 68.5275 59.4533 68.0871 59.2121 67.6678C58.8137 66.9915 58.342 66.3153 57.6657 65.9117C56.3028 65.0887 54.3685 65.6653 53.4669 66.9758C53.4092 67.0597 53.3568 67.1436 53.3096 67.2327C53.0685 67.4895 52.8326 67.7621 52.6701 68.0714C51.9991 69.34 52.5757 70.9073 53.3411 72.1287C53.5979 72.5324 53.881 72.936 54.2689 73.2243C54.5729 73.4497 54.9189 73.5965 55.2806 73.6909C56.8532 74.1155 58.7037 73.4864 59.5581 72.0973V72.092Z" fill="#61533E" fill-opacity="0.25"/>
</g>
<g opacity="0.25">
<path d="M60.0431 69.8326C60.1374 70.6084 59.9592 71.4209 59.5503 72.0919C58.6959 73.4811 56.8454 74.1101 55.2728 73.6855C54.9111 73.5911 54.5599 73.4444 54.2611 73.219C53.8784 72.9359 53.5901 72.527 53.3333 72.1234C52.5627 70.9072 51.9861 69.3346 52.6623 68.066C52.83 67.7567 53.0607 67.4842 53.3018 67.2273C53.2127 67.395 53.1393 67.5785 53.1183 67.7672C53.0869 68.0031 53.1183 68.239 53.1603 68.4697C53.3542 69.6491 53.695 70.902 54.6176 71.6673C55.6345 72.5113 57.2229 72.5113 58.3132 71.7617C59.2148 71.1379 59.76 70.0737 59.8386 68.9834C59.933 69.2612 60.0064 69.539 60.0431 69.8326Z" fill="#61533E" fill-opacity="0.25"/>
</g>
<g opacity="0.25">
<path d="M59.8413 68.9836C59.7627 70.0791 59.2175 71.138 58.3159 71.7618C57.2255 72.5114 55.6372 72.5114 54.6202 71.6675C53.6924 70.9021 53.3569 69.6493 53.1629 68.4698C53.1262 68.2392 53.0895 68.0033 53.121 67.7674C53.1472 67.5787 53.2153 67.3952 53.3045 67.2275C53.3516 67.1384 53.4041 67.0545 53.4617 66.9706C54.3634 65.6601 56.2977 65.0887 57.6606 65.9065C58.3316 66.3101 58.8034 66.9863 59.207 67.6626C59.4481 68.0819 59.684 68.5222 59.8413 68.9783V68.9836ZM57.7445 70.032C57.8755 69.707 57.8703 69.34 57.8336 68.994C57.7916 68.6323 57.7287 68.2811 57.6344 67.9299C57.5558 67.6363 57.4509 67.3323 57.236 67.1121C56.9162 66.7871 56.4182 66.7137 55.9569 66.7609C55.894 66.7137 55.7892 66.7347 55.7315 66.7976C55.6581 66.8763 55.6424 66.9863 55.6267 67.0964C55.5795 67.3113 55.4904 67.5158 55.3593 67.6888C55.2702 67.8041 55.1654 67.9089 55.0868 68.0295C54.8509 68.4122 54.9505 68.9521 55.2755 69.2666C55.3698 69.3557 55.4799 69.4291 55.5795 69.513C55.8102 69.7174 55.9779 69.9795 56.1771 70.205C56.3815 70.4304 56.6541 70.6296 56.9634 70.6296C57.3146 70.6296 57.6187 70.3465 57.7497 70.0267L57.7445 70.032Z" fill="#61533E" fill-opacity="0.25"/>
</g>
<g opacity="0.25">
<path d="M57.8326 68.9943C57.8693 69.3403 57.8798 69.7072 57.7435 70.0322C57.6124 70.352 57.3084 70.6298 56.9572 70.6351C56.6531 70.6351 56.3805 70.4359 56.1709 70.2105C55.9664 69.985 55.8039 69.7229 55.5733 69.5185C55.4737 69.4294 55.3636 69.3612 55.2692 69.2721C54.9442 68.9576 54.8446 68.4229 55.0805 68.035C55.1591 67.9092 55.264 67.8096 55.3531 67.6943C55.4842 67.516 55.5785 67.3116 55.6204 67.1019C55.6414 66.9971 55.6519 66.8818 55.7253 66.8031C55.783 66.7402 55.893 66.7193 55.9507 66.7664C56.412 66.7193 56.9152 66.7926 57.2298 67.1176C57.4447 67.3378 57.5495 67.6419 57.6281 67.9354C57.7225 68.2814 57.7854 68.6378 57.8273 68.9995L57.8326 68.9943Z" fill="#61533E" fill-opacity="0.25"/>
</g>
<g opacity="0.25">
<path d="M55.6665 85.1389C56.2274 86.2345 56.5262 87.6499 55.7923 88.6458C55.2314 89.4164 54.2197 89.6995 53.2709 89.7676C52.516 89.8253 51.7454 89.7781 51.0011 89.8725C50.7914 88.2527 50.1466 86.6906 49.1454 85.401C50.0732 84.8978 50.9224 84.2373 51.7926 83.6397C52.2015 83.3619 52.6156 83.0945 53.0402 82.8481C53.1713 82.974 53.3128 83.0893 53.4596 83.1889C53.8999 83.4772 54.4032 83.6607 54.812 83.9962C55.179 84.3002 55.4411 84.7196 55.6612 85.1442L55.6665 85.1389Z" fill="#61533E" fill-opacity="0.25"/>
</g>
<g opacity="0.25">
<path d="M51.0171 89.978C51.0643 90.3712 51.08 90.7748 50.9752 91.1575C50.7236 92.0696 49.7957 92.6672 48.8574 92.814C48.3384 92.8978 47.8195 92.8664 47.3058 92.793L47.2324 93.2386C47.4158 93.4745 47.2009 93.8047 46.9965 94.0249C46.5404 94.5019 46.0791 94.9842 45.6178 95.4612C44.4121 96.7245 43.4843 97.3431 41.7282 97.0705C41.9693 97.254 42.0165 98.1084 41.8173 98.3391C41.6181 98.5645 41.0205 98.8528 40.7113 98.9157C39.4479 99.1621 38.1898 99.4137 36.9213 99.6601C36.6225 99.7177 36.3289 99.7754 36.0249 99.7807C35.7366 99.7807 35.4482 99.7387 35.1652 99.6811C32.9059 99.225 31.1393 99.2617 30.028 97.2435C29.0425 95.4402 26.3952 95.2725 25.1267 93.6579C24.5133 92.8874 24.3299 91.9333 24.2198 90.9321C24.0783 89.6687 24.073 88.332 23.4911 87.2207C23.2657 86.8013 22.9722 86.4187 22.7992 85.9783C22.3431 84.7989 22.8883 83.4884 23.423 82.3351C24.1936 80.6891 24.9746 79.0117 26.2118 77.6697C26.6626 77.1874 27.1711 76.7419 27.4856 76.1652C27.9993 75.2322 27.9416 74.0684 28.4711 73.1458C28.8695 72.4434 29.5405 71.9873 30.2691 71.5785C31.2336 71.0385 32.2873 70.5877 32.953 69.7542C33.0159 69.6808 33.0736 69.597 33.126 69.5131C33.7131 68.601 33.7813 67.3534 34.6043 66.6457C36.1192 65.3404 38.6931 66.955 40.3967 65.9118C40.8213 65.6549 41.1359 65.2566 41.5133 64.9315C43.1803 63.5005 46.0844 63.9146 47.2848 65.7598C47.5102 66.111 47.3687 65.98 47.5521 66.3469L47.5993 66.457C47.94 67.2223 47.8667 68.0977 47.7356 68.9417C46.3202 69.9429 44.8997 70.9494 43.4843 71.9506C42.5722 72.6006 41.6601 73.2454 40.748 73.8902C40.6746 73.9217 40.5959 73.9479 40.5225 73.9741C39.9512 74.1628 39.3536 74.2676 38.7979 74.4983C38.2423 74.7237 37.7181 75.1011 37.4822 75.6515C37.2777 76.1286 37.3249 76.6895 37.5293 77.1665C37.7338 77.6435 38.085 78.0419 38.4729 78.3826L38.4886 78.3984C38.6407 79.6512 39.1806 80.8621 39.7729 81.9996C40.3024 83.0166 40.8842 84.0231 41.6915 84.8303C42.504 85.6376 43.5839 86.2352 44.7267 86.2562C45.0307 86.2562 45.3295 86.2247 45.6178 86.1409C46.6872 86.3505 47.8247 86.0675 48.8102 85.5852C48.9203 85.5328 49.0304 85.4751 49.1352 85.4174C50.1365 86.707 50.7812 88.2691 50.9909 89.8889C50.9909 89.9204 51.0014 89.9571 51.0014 89.9938L51.0171 89.978Z" fill="#61533E" fill-opacity="0.25"/>
</g>
<g opacity="0.25">
<path d="M47.6299 82.5914C47.7033 83.2519 47.7295 83.9439 47.4831 84.5624C47.1739 85.3487 46.4452 85.8991 45.6275 86.1298C45.3391 86.2137 45.0351 86.2504 44.7363 86.2451C43.5935 86.2241 42.5137 85.6318 41.7012 84.8193C40.8939 84.012 40.3068 83.0055 39.7826 81.9886C39.1902 80.851 38.6503 79.6401 38.4983 78.3873C38.4511 77.9679 38.4406 77.5486 38.4878 77.1292C38.6031 76.1122 39.164 75.111 39.9608 74.4977C40.4902 74.094 41.1193 73.8634 41.7955 73.9158L41.785 74.0836C42.5242 74.0836 43.258 74.3614 43.8609 74.7912C44.6157 75.3312 45.1924 76.0913 45.6746 76.8881C46.723 78.6179 47.394 80.5837 47.6299 82.5914Z" fill="#61533E" fill-opacity="0.25"/>
</g>
<g opacity="0.25">
<path d="M40.7497 73.8839C40.4771 74.0779 40.2098 74.2666 39.9372 74.4605L39.9634 74.4972C39.1666 75.1105 38.6057 76.1118 38.4904 77.1287C38.4432 77.5481 38.4485 77.9727 38.5009 78.3868L38.4852 78.3711C38.092 78.0304 37.7408 77.632 37.5416 77.1549C37.3372 76.6779 37.2952 76.117 37.4944 75.64C37.7251 75.0896 38.2545 74.7121 38.8102 74.4867C39.3658 74.2561 39.9634 74.1513 40.5348 73.9625C40.6082 73.9363 40.6868 73.9154 40.7602 73.8787L40.7497 73.8839Z" fill="#61533E" fill-opacity="0.25"/>
</g>
<g opacity="0.75">
<path d="M32.9492 69.7536C32.2834 70.5871 31.2245 71.0379 30.2652 71.5778C29.3531 71.2371 28.441 70.8911 27.5289 70.5504C26.124 70.021 24.651 69.4863 23.1675 69.675C21.6788 69.5125 20.7876 70.2359 19.5138 71.0222C18.24 71.8137 17.1863 72.9041 16.2533 74.0731C13.475 77.58 10.9535 81.4172 11.5092 85.8572C12.2169 86.4181 12.9403 86.958 13.6846 87.4717L13.6008 87.587C11.2576 86.5439 8.42688 86.7274 6.31958 85.2753C5.6486 84.8088 5.03528 84.1063 4.58446 83.2991C4.50583 82.9059 4.28566 82.518 4.0655 82.1301C3.77719 81.2494 3.68807 80.3216 3.90299 79.4828C4.38002 77.6062 6.75991 75.761 7.96558 74.3142C11.5092 70.0524 16.3424 66.8652 21.6578 65.2926C22.5437 65.0305 23.4401 64.8156 24.3627 64.7475C25.4583 64.6688 26.5696 64.8156 27.6075 65.1721C29.0071 67.0749 30.8419 68.6633 32.9387 69.7536H32.9492Z" fill="#61533E" fill-opacity="0.25"/>
</g>
<g opacity="0.25">
<path d="M27.5303 70.5506C28.4424 70.8914 29.3545 71.2373 30.2666 71.5781C29.538 71.9817 28.8722 72.443 28.4686 73.1454C27.9392 74.068 27.9916 75.2318 27.4831 76.1649C27.1686 76.7415 26.6601 77.187 26.2093 77.6693C24.9722 79.006 24.1911 80.6835 23.4205 82.3347C22.8858 83.488 22.3407 84.7985 22.7967 85.978C22.9697 86.4183 23.2685 86.801 23.4887 87.2203C24.0705 88.3316 24.0758 89.6684 24.2173 90.9317C23.4153 90.8268 22.6132 90.7115 21.8112 90.6014C20.2596 90.3865 18.6974 90.1663 17.2559 89.5688C16.48 89.249 15.7514 88.8191 15.0437 88.3736C14.5877 88.0853 14.1369 87.7865 13.6913 87.4719C12.9469 86.9582 12.2183 86.4183 11.5158 85.8574C10.9602 81.4226 13.4764 77.5854 16.2599 74.0733C17.1877 72.9043 18.2466 71.8087 19.5204 71.0224C20.7995 70.2361 21.6906 69.5127 23.1741 69.6752C24.6576 69.4865 26.1306 70.0212 27.5355 70.5506H27.5303Z" fill="#61533E" fill-opacity="0.25"/>
</g>
<path d="M31.266 96.001C31.5019 96.001 31.7535 95.9591 31.9894 95.8699C32.4087 95.6707 33.0221 95.3248 33.1164 94.8268C33.1531 94.5542 33.1059 94.2449 32.8438 93.9985H32.739C32.4454 94.182 32.2987 94.3026 32.1624 94.4336C32.0208 94.5489 32.0366 94.7377 31.9684 94.9159C31.895 95.0836 31.7849 95.2409 31.6644 95.3982C31.5386 95.5502 31.3918 95.7022 31.2083 95.8228L31.2555 96.0062H31.2607L31.266 96.001Z" fill="url(#paint1_linear_0_633)"/>
<path d="M35.7269 92.085C35.7269 92.085 35.7322 92.0955 35.7479 92.1059C36.1673 92.3261 36.6495 92.1321 36.9483 91.8386C37.1266 91.6761 37.352 91.5555 37.3887 91.3249C37.4254 91.0995 37.4096 90.8478 37.2052 90.5648L37.1056 90.5281C36.7701 90.6119 36.5971 90.722 36.4556 90.8426C36.3088 90.9527 36.3403 91.1781 36.2826 91.3249C36.1725 91.6341 36.0467 91.8124 35.7217 91.8805C35.6955 91.8963 35.6588 91.8963 35.6064 91.9592C35.5487 92.0378 35.6378 92.1584 35.7269 92.0797V92.085ZM35.7322 92.064L35.6536 92.0325C35.7112 91.9644 35.7479 92.0168 35.7322 92.064Z" fill="url(#paint2_linear_0_633)"/>
<path d="M37.4591 80.6787C37.1341 80.7783 36.9558 80.9094 36.8038 81.0404C36.6413 81.161 36.6256 81.3497 36.5679 81.5332C36.4998 81.7009 36.3949 81.8477 36.2849 82.0049C36.1171 82.2461 35.8078 82.461 35.551 82.613C35.6715 82.6183 35.9336 82.6392 36.049 82.6497L36.0594 82.6235C36.4998 82.5868 36.9244 82.3824 37.2599 82.0836C37.7579 81.7848 37.8732 81.2501 37.5639 80.7154L37.4643 80.6787H37.4591Z" fill="url(#paint3_linear_0_633)"/>
<path d="M46.5381 88.0645C45.9353 88.4733 45.841 88.6306 45.7256 89.2596C45.5579 89.7052 45.3272 90.1351 45.0232 90.523L45.0809 90.6121C45.5998 90.4496 46.0768 90.1246 46.4385 89.7052C46.9313 89.2754 47.1148 88.6621 46.643 88.0854L46.5381 88.0697V88.0645Z" fill="url(#paint4_linear_0_633)"/>
<path d="M147.393 87.3461C147.503 86.5702 147.765 85.7053 147.718 84.746C147.619 82.906 146.586 81.3439 145.569 79.9233C142.618 75.866 139.189 71.5937 134.319 69.738C130.32 68.3908 126.179 66.7239 121.885 67.3215C119.38 67.8352 116.9 68.4275 114.615 69.6646C113.115 70.5768 112.067 71.9816 111.102 73.3498L108.204 77.4858C107.506 78.4293 106.589 79.7451 105.666 80.6939C104.403 80.8459 103.245 81.6375 102.264 82.6964C100.173 83.2101 98.3643 84.3948 96.6082 85.548C94.8993 86.696 93.1904 87.8388 91.2037 88.4364C91.167 88.2634 91.1355 88.0799 91.104 87.9017C90.648 86.5912 90.1867 84.9662 88.8185 84.3424C88.1475 84.0698 87.7806 83.4827 87.2354 82.8274C86.1765 81.6846 85.2697 80.4528 83.6656 79.981C82.916 79.7503 82.1454 79.9705 81.4377 79.9024C80.7982 79.8447 80.1377 79.635 79.43 79.4411C77.9937 79.0217 76.4211 78.9431 74.9481 79.2576C73.6585 79.4725 72.3847 80.1487 71.4831 81.0923C71.3468 80.5419 71.1109 80.0439 70.8436 79.5721C69.7165 77.989 68.254 76.668 67.4048 74.891C67.4572 74.8595 67.5096 74.8333 67.562 74.7966C68.2697 74.351 68.752 73.355 68.2749 72.5478C68.0233 72.1179 67.6459 71.8873 67.2161 71.7772C67.8189 70.3671 67.5096 68.6949 66.8596 67.3424C65.5019 64.4383 62.3724 62.3939 59.1433 62.4149C55.8775 62.4883 53.2617 64.5484 50.7822 66.3622C50.0746 66.8759 49.0366 67.6412 47.8624 68.5062C47.9411 67.9243 47.9673 67.3319 47.8048 66.7501C47.2701 64.4645 44.5495 63.369 42.4369 64.1867C41.7345 64.4226 41.1683 64.9992 40.6494 65.4815C39.5171 66.4565 37.9759 65.9113 36.6025 65.8589C35.8372 65.8065 34.988 65.9375 34.3851 66.4775C33.4835 67.3162 33.473 68.4747 32.8492 69.3816C32.8073 69.434 32.7601 69.4812 32.7129 69.5283C30.3278 68.0973 28.3411 66.0319 26.9991 63.6101C25.9612 61.7492 25.5418 59.3535 23.8853 57.8071C23.3401 57.2725 22.6482 56.8636 21.9196 56.7168L21.8933 56.7954C23.8644 57.912 24.4777 60.0665 25.3688 61.9903C25.8301 63.0125 26.4067 63.9823 27.0725 64.8891C23.7123 63.7516 20.0481 65.2194 16.9396 66.5823C13.5847 68.1654 10.6492 70.561 8.24306 73.355C7.73983 73.9736 7.0007 74.8176 6.44504 75.3785C5.2551 76.6628 3.75063 78.0572 3.53571 79.9024C3.12159 77.5434 2.25665 75.0639 0.0759591 73.8268C0.065475 73.8373 0.0078125 73.895 0.0078125 73.895C0.914686 75.4256 1.81108 76.82 2.51351 78.4293C2.83327 79.2366 3.03247 80.0649 3.27361 80.956C3.37845 81.2391 3.53047 81.5012 3.68773 81.758C4.01798 83.0633 4.77807 84.248 5.79503 85.1234C7.90757 86.8219 10.7697 86.6069 13.1968 87.4823C14.4916 88.3892 15.8283 89.2489 17.2961 89.8098C17.4795 89.8832 17.6735 89.9409 17.8675 90.0038C17.4953 90.2921 17.1178 90.5909 16.7299 90.9054C15.2202 92.132 14.0827 93.1071 13.0553 94.0664C12.9347 94.1764 12.898 94.3547 12.9661 94.5067C13.7053 96.1475 14.5178 97.6205 15.4614 99.0148L15.5033 99.0777C16.017 99.8011 16.6041 100.619 17.5267 101.143C17.7154 101.227 17.9251 101.269 18.1505 101.269C20.0377 101.269 23.0938 98.4015 26.1709 95.1934C27.1511 95.7543 28.2257 96.1055 29.054 96.8079C29.5991 97.2692 29.835 97.9926 30.3802 98.4802C31.869 99.8483 33.9081 99.7959 35.7638 100.1C36.1727 100.121 36.5711 100.037 36.917 99.9584C37.609 99.8012 39.4227 99.3923 40.0885 99.2245C40.7228 99.0882 41.4147 98.91 41.876 98.4225C42.049 98.1866 42.028 97.9088 41.9966 97.6414C42.3845 97.6676 42.7829 97.6572 43.1918 97.589C44.8325 97.2535 45.7709 95.8067 46.7459 94.6063C46.966 94.2603 47.5165 93.778 47.3225 93.3272C48.7379 93.5107 50.2738 93.2748 51.1073 91.9853C51.5109 91.4086 51.5371 90.6485 51.4375 89.9933C52.9262 90.2502 54.5722 90.5175 55.7936 89.3852C57.4868 87.7287 56.3021 84.4787 54.4097 83.5246C54.1634 83.4198 53.8646 83.2782 53.5815 83.1262C54.5198 82.5653 55.4477 81.9782 56.365 81.3282C56.4279 81.585 56.5275 81.8367 56.6743 82.0726C57.2876 83.0686 58.53 82.906 59.3058 82.2508L59.4054 82.2875C59.4369 82.2141 59.4736 82.1407 59.505 82.0673C59.5574 82.0097 59.6099 81.9468 59.657 81.8839L59.6046 81.8367C59.6675 81.7004 59.7199 81.5588 59.7881 81.4278C60.2756 82.8274 61.1929 83.8758 62.2518 84.8508C63.0696 85.6843 64.2124 86.8428 65.0983 87.6815C64.4011 88.0066 63.7563 88.4626 63.0801 88.7614C62.5192 89.0602 61.8797 88.9501 61.2611 89.2856C61.0252 89.4062 60.8208 89.6368 60.6635 89.836C60.0869 90.5804 59.6151 91.3982 59.5941 92.3994C59.6675 93.7885 60.5325 94.9103 61.2296 95.9849C61.4551 96.3309 61.7276 96.7083 62.0736 97.0071C63.6986 98.3281 65.8584 97.416 67.5096 96.4725C67.5411 96.4987 67.5778 96.5301 67.6092 96.5458C67.6197 96.5511 67.6302 96.5458 67.6354 96.5563C68.5318 98.1185 69.6693 99.5443 70.9484 100.823C72.0912 102.06 73.4646 103.098 75.0896 103.591C75.1368 103.649 75.184 103.706 75.2311 103.759C76.4211 105.337 78.3344 105.033 79.6974 103.984C79.1207 105.08 79.7812 106.39 81.0026 107.088V107.098C81.0079 107.098 81.0131 107.098 81.0184 107.098C81.4901 107.365 82.0353 107.533 82.6277 107.57L82.6434 107.622V107.633H82.6539C82.8845 108.319 83.22 108.917 83.6027 109.483C84.5515 110.94 85.9249 111.239 87.5552 110.92L88.5774 110.778C88.8395 110.726 89.2222 110.715 89.4843 110.589C89.6048 110.752 89.7201 110.92 89.8407 111.087C89.8407 111.103 89.8512 111.119 89.8512 111.119C90.7109 113.216 91.5968 115.37 93.138 117.079C93.3162 117.241 93.5049 117.393 93.6936 117.54C89.5105 118.185 85.212 118.814 82.0143 117.797C75.336 115.674 70.9012 119.38 70.7177 119.537L71.2157 120.119C71.2157 120.119 71.3625 119.999 71.6141 119.826H98.3852C98.6788 119.931 98.9671 120.041 99.2554 120.146C100.828 120.649 102.726 121.377 104.241 120.14C104.22 120.035 104.193 119.931 104.162 119.826H115.092C115.202 119.91 115.312 119.999 115.422 120.104L115.684 119.826L115.946 119.548C114.678 118.347 113.44 118.29 111.731 118.206C110.185 118.133 108.267 118.038 105.383 117.163C104.235 116.817 102.967 116.681 101.604 116.681C98.8885 114.033 96.0735 111.465 93.1747 109.017C94.4537 108.776 95.7118 108.487 96.9751 108.157C98.8046 107.596 100.215 106.957 101.012 105.557C101.478 105.389 101.971 105.148 102.333 104.97C104.23 104.089 106.159 103.292 108.12 102.569C115.873 99.4814 124.459 98.3963 131.567 93.7833C131.625 93.8619 131.688 93.9405 131.746 94.0244C131.746 94.0244 131.767 94.0087 131.788 93.9982C131.803 94.0192 131.824 94.0349 131.824 94.0349C133.455 92.9183 134.77 94.8474 135.924 95.8224C137.292 96.9023 139.084 97.4737 140.867 97.2955C142.67 97.1644 144.232 95.9378 145.328 94.5958C146.161 93.6103 147.058 92.478 147.32 91.1361C147.592 89.878 147.173 88.4993 147.377 87.3408L147.393 87.3461ZM6.06762 84.8089C4.81477 83.6504 3.97604 81.8734 4.10709 80.1645C4.28532 78.4084 5.80027 77.1503 6.97973 75.9289C7.55111 75.3837 8.33742 74.5397 8.86162 73.9264C11.2887 71.2844 14.2347 69.1824 17.3957 67.5364C20.4361 66.0791 23.7857 64.4121 27.2402 65.1408C28.6765 67.0227 30.5217 68.59 32.6238 69.6437C31.869 70.4352 30.9359 70.8598 30.0762 71.3369C29.1745 70.5191 28.1104 70.1364 26.9362 69.8848C25.7462 69.5493 24.4253 69.3187 23.2039 69.6175C22.2813 69.4445 21.2958 69.6332 20.478 70.105C18.8372 70.907 17.2699 72.0288 16.1166 73.4442C13.1916 76.8672 10.5076 81.2024 11.1629 85.8993L11.1838 86.0513L11.2939 86.1299C11.7919 86.4811 12.2952 86.8428 12.7984 87.2045C10.5234 86.413 7.93902 86.413 6.06762 84.8089ZM17.4586 89.4114C15.4404 88.5203 13.6109 87.0158 11.8548 85.6738C11.7133 83.9964 11.9911 82.2927 12.6569 80.7358C13.3174 79.1265 14.2819 77.6483 15.3146 76.2172C16.6199 74.4244 17.8727 72.6212 19.6602 71.3421C20.284 70.9227 21.1857 70.1941 21.8881 69.953C22.2865 69.7957 22.7216 69.738 23.1619 69.738H23.1776C23.1776 69.738 23.2406 69.738 23.3244 69.738C24.5039 69.7747 25.5837 70.2098 26.6584 70.6764C27.581 71.1744 28.5298 71.5675 29.5834 71.6304C28.6294 72.2228 27.8431 73.0091 27.6072 74.6551C27.4237 76.2067 26.2495 76.9616 25.3531 78.0781C24.4357 79.2471 23.7752 80.5838 23.1357 81.9048C22.4805 83.2573 21.7046 84.9085 22.47 86.4497C22.8264 87.1364 23.1934 87.5767 23.3506 88.3054C23.5236 89.0288 23.5708 89.9042 23.6704 90.7901C22.4805 90.5909 21.0599 90.4022 19.7441 90.1191C20.1268 89.6997 20.5042 89.2856 20.8711 88.8662C20.997 88.7195 20.997 88.4993 20.8711 88.3578L20.803 88.2791C20.6719 88.1376 20.457 88.1114 20.2998 88.2215C19.634 88.6828 18.9578 89.186 18.2554 89.7259C17.9775 89.6316 17.7102 89.532 17.4638 89.4219L17.4586 89.4114ZM18.1925 99.8169C18.1138 99.8169 18.161 99.8169 18.1663 99.8169C18.1767 99.8169 18.1872 99.8169 18.1977 99.8169H18.1925ZM23.0309 96.7241C22.0034 97.5628 20.7296 98.6112 19.4139 99.3661L19.309 99.4185C18.9526 99.6072 18.5804 99.8012 18.2239 99.8116C18.1977 99.7959 18.1715 99.7749 18.1505 99.7592C18.1296 99.7435 18.1033 99.7278 18.0876 99.712C16.7981 98.4906 16.0065 96.7188 15.2412 95.0047C15.1993 94.9051 15.1521 94.8107 15.1101 94.7111C16.709 93.2486 18.1558 91.8175 19.4977 90.3812C20.8974 90.6276 22.4071 90.7534 23.6914 90.9106C23.8539 92.3312 24.1632 93.7623 25.3583 94.6325C25.3688 94.6377 25.3793 94.6482 25.3845 94.6535C24.6035 95.3716 23.8172 96.0688 23.0361 96.7241H23.0309ZM50.5778 90.7639C50.148 92.5986 47.9935 92.4623 46.3475 92.0691C45.0841 91.828 43.8208 91.5711 42.6309 91.1623C40.23 90.3864 38.3167 88.5884 36.482 86.7747C34.6368 84.9819 32.8597 83.0581 31.7746 80.6939L31.6802 80.7358C32.6395 83.1734 34.3484 85.2388 36.1098 87.1416C37.8868 89.055 39.8211 91.0102 42.3373 91.9486C43.5849 92.4413 44.8587 92.7611 46.1273 93.0809C46.4628 93.1805 46.8245 93.2591 47.1914 93.3115C47.2753 93.7309 46.683 94.0035 46.4104 94.276C45.3829 95.0938 44.2926 96.4148 43.0188 96.5563C41.1788 96.7136 39.3965 95.8696 37.8344 94.926C34.5214 92.8502 31.5649 90.1925 29.1326 87.1206L29.0487 87.1836C31.2714 90.4756 34.1073 93.3534 37.3783 95.6285C38.7255 96.5354 40.1986 97.4475 41.8446 97.6205C41.8603 97.8563 41.8184 98.0975 41.7135 98.26C41.2627 98.6584 40.6022 98.758 40.0256 98.8366C39.3389 98.9362 37.5199 99.2403 36.8122 99.3556C36.0731 99.5181 35.5174 99.3975 34.7888 99.2193C33.3734 98.9048 31.8899 98.7685 31.025 97.8301C30.5165 97.3112 30.2911 96.5563 29.7197 96.0793C28.8967 95.3087 27.8693 94.9103 26.9362 94.3914C26.9729 94.3547 27.0201 94.3075 27.0515 94.276C27.1249 94.2027 27.1616 94.1031 27.1616 94.0035C27.1616 93.8986 27.1197 93.8043 27.0463 93.7309L26.9729 93.6575C26.8261 93.5159 26.5902 93.5159 26.4434 93.6575C26.3543 93.7413 26.2652 93.82 26.1761 93.9039C26.1289 93.8672 26.0713 93.8357 26.0241 93.7938C24.0426 92.1163 25.2011 89.1231 23.901 86.8952C22.6272 85.2597 23.1252 84.0016 23.9377 82.2613C24.7765 80.2588 25.8616 78.4555 27.408 76.9301C28.4197 75.8503 28.1419 74.026 29.0173 72.9409C29.4209 72.4377 30.0185 72.0707 30.6423 71.7248C31.5806 71.2006 32.6972 70.6764 33.3315 69.7118C34.0916 68.5743 34.0496 66.7658 35.5698 66.4251C38.065 66.0371 39.6429 67.4106 41.6663 65.0149C43.0135 63.8879 45.1523 63.9613 46.5152 65.0516C46.9765 65.4081 47.291 65.8694 47.4955 66.3779C45.9334 66.0738 45.0632 66.3307 44.2087 67.7461C44.041 68.0186 43.9047 68.2178 43.8156 68.2493C43.7684 68.2703 43.7212 68.286 43.6373 68.2493C43.1027 67.8614 42.6885 67.2114 42.4107 66.598L42.3111 66.619C42.374 67.2428 42.6571 67.7932 42.9506 68.3436C43.5325 69.3239 44.3817 68.9308 44.8745 68.2545C45.5035 67.6517 46.0225 67.3214 46.7826 66.9964C47.0289 66.8968 47.333 66.7763 47.5531 66.5509C47.7733 67.1956 47.8205 67.9033 47.7314 68.59C46.3632 69.6017 44.8273 70.7393 43.4119 71.7877C43.176 71.5308 42.9978 71.3683 42.8091 71.211C42.6047 71.0328 42.3216 71.0171 42.0752 70.8703C41.7083 70.6501 41.3413 70.3618 41.0216 70.063C40.8958 69.9634 40.7332 69.6856 40.5445 69.8219C40.5865 69.8953 40.6389 69.911 40.6651 70.0159C40.8643 70.5663 41.1316 71.08 41.5405 71.5151C41.8446 71.9449 42.3373 72.2437 42.8405 72.2123C42.0438 72.7994 41.3151 73.3446 40.6913 73.8111C37.63 73.2397 35.6642 76.212 38.1751 78.1882C38.2171 79.1947 38.4897 80.2064 38.8776 81.0661C39.7425 83.1944 40.901 85.6057 43.3018 86.3029C44.0672 86.5335 44.9269 86.5231 45.6188 86.1771C46.6148 86.4549 47.7733 86.2767 48.7588 85.8888C48.9266 85.8206 49.0838 85.742 49.2463 85.6634C50.1217 87.2098 50.6931 89.0235 50.5778 90.7429V90.7639ZM41.2417 74.1938C41.9232 74.2252 42.5208 74.4244 43.0502 74.7494C44.1249 75.4152 44.7906 76.5055 45.4668 77.5644C46.5205 79.2156 47.1757 81.1342 47.4116 83.079C47.6527 84.3948 46.9398 85.6267 45.6713 86.0618C45.5821 86.0513 45.493 86.0408 45.3987 86.0251C45.3987 86.0251 45.3882 86.0565 45.3829 86.0827C43.1918 86.0827 41.7974 84.3371 40.7228 82.6492C39.6167 80.8826 38.4005 78.7543 38.8461 76.6366C39.1344 75.3418 40.1986 74.0627 41.5929 73.9788C41.4671 74.0103 41.3361 74.0418 41.2155 74.0942L41.2365 74.199L41.2417 74.1938ZM38.1646 77.9104C37.5356 76.9878 37.3888 75.6301 38.5735 75.1845L39.255 74.8752C39.255 74.8752 39.2917 74.8595 39.3127 74.849C38.4897 75.672 38.1699 76.7729 38.1646 77.9104ZM54.263 83.8182C55.4215 84.5887 55.9981 86.3448 55.7779 87.6082C55.217 89.4638 53.0521 89.1703 51.3903 89.684C51.1282 88.2005 50.3367 86.6541 49.4036 85.6109C50.1427 85.244 50.8294 84.7932 51.5056 84.3686C52.1504 83.9911 52.7847 83.6242 53.4085 83.252C53.6863 83.4669 54.0009 83.6766 54.2577 83.8234L54.263 83.8182ZM56.7529 78.7177C56.4332 79.4201 56.2182 80.2693 56.3336 81.0661C54.3311 81.3649 52.5436 82.3871 51.0181 83.6714C49.5609 84.8404 47.8886 86.1351 46.0015 86.0827C47.2596 85.6738 48.0511 84.3738 47.9358 83.0476C47.7419 79.9653 46.5676 75.2998 43.3595 74.0784C42.8615 73.9002 42.3163 73.8478 41.8079 73.9317V73.8688C41.4829 73.8216 41.1474 73.853 40.8224 73.9421C43.7317 71.9816 49.0366 68.4066 51.1806 66.9335C53.5605 65.3085 56.1816 63.4004 59.1381 63.4738C62.0055 63.5734 64.7313 65.2508 66.2201 67.7041C66.9539 68.9098 67.3943 70.3566 67.0902 71.7667C66.3668 71.6252 65.5334 71.8244 64.9672 72.076C61.649 73.3026 58.4147 75.4833 56.7634 78.7229L56.7529 78.7177ZM57.8171 82.3137C56.0191 81.3806 57.707 78.5761 58.7397 77.5487C60.5482 75.5672 62.7289 73.8688 65.2555 72.8518C66.11 72.4901 67.0745 72.1913 67.6511 72.9357C67.7769 73.1296 67.7979 73.376 67.7036 73.6276C67.1846 74.7704 65.418 74.9643 64.4483 75.7297C62.1575 77.1975 60.3857 79.4044 59.4578 81.9205C58.9546 82.277 58.3256 82.5024 57.8223 82.3137H57.8171ZM62.9071 84.3109C62.1051 83.0948 61.2034 81.9992 59.8667 81.2967C60.9466 79.1527 62.6607 77.3495 64.7104 76.1753C65.5071 75.6615 66.4193 75.4414 67.2475 74.9853C67.389 75.5567 67.604 76.1176 67.8451 76.6575C68.4846 77.8684 69.1451 79.1213 69.9786 80.1907C70.356 80.6153 70.744 81.0242 71.2053 81.4121C71.1686 81.454 71.1319 81.4959 71.0952 81.5379L68.2278 84.7617C67.5044 85.5742 66.739 86.4025 66.1257 87.3461C65.8269 87.4037 65.5386 87.4981 65.2608 87.6186C64.5741 86.6017 63.6043 85.2702 62.8966 84.3109H62.9071ZM61.8168 95.6285C61.1248 94.3389 59.982 92.8764 60.8784 91.4611C61.1248 91.0312 61.4341 90.5594 61.8168 90.2292C62.0998 90.0614 62.5192 90.03 62.8809 89.8937C64.0708 89.4586 64.8519 88.4521 65.8636 87.7811C65.7745 87.9384 65.6906 88.0957 65.612 88.2529C65.1821 89.055 64.8309 90.7848 65.3551 91.9066C65.0878 92.6038 65.5019 93.5107 65.7326 94.2446C65.9737 94.989 66.5084 95.6652 67.2527 95.9483C67.1322 96.0688 67.0116 96.1894 66.9225 96.2785C66.8701 96.3362 66.9644 96.2366 66.9959 96.2051L67.258 95.9483C67.258 95.9483 67.2685 95.9482 67.2737 95.9535L67.2894 95.9168C67.2894 95.9168 67.2947 95.9116 67.2999 95.9063L67.279 95.9535C67.2894 96.1212 67.3471 96.2523 67.4205 96.3519C65.4967 97.2483 62.8756 97.935 61.822 95.6232L61.8168 95.6285ZM68.4794 95.7543C68.3641 95.7281 68.254 95.6966 68.1544 95.6599C68.0391 95.618 67.9395 95.4712 67.8189 95.5236C67.7088 95.5603 67.6197 95.6232 67.4572 95.7543C67.5149 95.6966 67.5673 95.639 67.5935 95.618C67.6249 95.5866 67.7193 95.487 67.6669 95.5446C67.5987 95.6128 67.5149 95.6966 67.4257 95.7857C67.3943 95.812 67.3628 95.8382 67.3209 95.8749L67.3052 95.9063C67.3052 95.9063 67.2999 95.9116 67.2947 95.9168L67.3157 95.8696C66.7967 95.6442 66.3721 95.2248 66.1205 94.7216C65.9108 94.2079 65.743 93.626 65.6277 93.0809C65.5438 92.7873 65.4967 92.4885 65.5543 92.2264C66.0523 92.8345 66.587 93.1385 67.279 93.4897C67.8032 93.8357 68.2854 94.2341 68.7258 94.6902C68.5737 95.0361 68.4846 95.3978 68.4846 95.7648L68.4794 95.7543ZM71.525 100.205C70.183 99.1302 68.9617 97.914 67.8556 96.5878C67.9604 96.5721 68.0705 96.5249 68.1701 96.4987C68.3012 96.462 68.4322 96.4096 68.5528 96.3414C68.6 96.5196 68.6733 96.7031 68.7677 96.8866C68.7729 97.0071 68.7834 97.1382 68.8306 97.2902C68.8883 97.5051 69.0455 97.7201 69.1609 97.8249C70.4399 99.1826 72.5262 100.488 74.3714 99.5128C73.8053 100.299 73.9364 101.384 74.3505 102.344C73.4436 101.589 72.4948 100.918 71.525 100.21V100.205ZM80.1429 106.223C79.5349 105.468 79.4195 104.246 80.2163 103.602C80.9555 104.079 81.9357 103.853 82.743 103.89C83.8595 103.811 84.8084 104.944 84.2003 105.929C84.1216 106.034 84.1269 106.029 84.0168 106.076C83.0523 106.396 81.9829 106.385 81.0026 106.998C80.6724 106.794 80.3788 106.537 80.1377 106.223H80.1429ZM81.2176 107.114C82.397 107.182 83.8124 107.607 84.8555 106.81C85.7152 105.824 85.2644 104.163 84.1636 103.602C82.916 102.889 81.5373 103.932 80.3264 103.513C80.3788 103.471 80.4312 103.434 80.4889 103.392C80.7563 103.245 81.0236 103.098 81.2857 102.941C83.4559 101.882 85.883 101.405 88.1842 100.682C89.5472 100.331 90.9573 100.116 92.3464 99.9322C93.7775 99.6858 95.0251 100.294 95.6594 101.589C96.2675 102.758 96.0106 104.33 94.9517 105.127C93.919 105.966 92.4722 106.238 91.125 106.626C89.7673 106.972 88.3625 107.255 86.989 107.523C86.2866 107.654 85.5999 107.486 84.8922 107.486C84.2212 107.486 83.5608 107.544 82.9003 107.533C82.8636 107.512 82.8269 107.486 82.7902 107.465C82.8164 107.476 82.8426 107.491 82.8426 107.491L82.7115 107.418L82.6277 107.481L82.6382 107.523C82.1454 107.476 81.6579 107.344 81.2228 107.114H81.2176ZM87.7963 100.456C87.7754 100.331 87.7544 100.21 87.7334 100.084C87.702 99.9217 87.66 99.7645 87.6128 99.6177C87.5709 99.4866 87.5866 99.3241 87.4923 99.2245C89.5943 98.3229 91.1303 97.8039 93.1484 99.4761C92.8706 99.4657 92.5875 99.4761 92.3045 99.5286C90.8839 99.7382 89.4843 99.9741 88.1004 100.352C88.0008 100.383 87.8959 100.414 87.7963 100.446V100.456ZM86.5592 99.6544C86.5592 99.6858 86.5592 99.7225 86.5697 99.754C86.5907 99.927 86.7951 99.9794 86.9156 100.089C87.1096 100.257 87.3245 100.404 87.5499 100.546C85.8777 101.07 84.1583 101.505 82.5333 102.16C83.8543 101.279 85.1438 100.357 86.5644 99.6596L86.5592 99.6544ZM88.5826 110.463L87.5552 110.411C86.8685 110.385 86.1713 110.401 85.689 110.144C85.1963 109.903 84.9289 109.331 84.4519 108.828C84.0273 108.382 83.5503 107.942 83.0051 107.601C83.9854 107.675 84.9551 107.643 85.9249 107.837C86.3443 107.895 86.7689 107.879 87.1882 107.837C87.8645 108.66 88.5984 109.426 89.2536 110.264C89.3113 110.338 89.3637 110.411 89.4161 110.484C89.154 110.526 88.8133 110.463 88.5774 110.469L88.5826 110.463ZM101.625 119.925C101.468 119.899 101.316 119.862 101.158 119.831H102.93C102.542 119.957 102.086 119.983 101.625 119.925ZM100.141 116.733C98.3748 116.843 96.4876 117.116 94.5481 117.414C94.1916 117.199 93.8509 116.964 93.5521 116.681C92.1 115.16 91.1355 113.184 90.2601 111.271C90.3282 111.286 90.3806 111.297 90.3806 111.297C89.479 110.034 88.3677 108.954 87.3298 107.816C87.9379 107.743 88.5459 107.607 89.1435 107.512C89.6048 107.413 90.0766 107.329 90.5536 107.234C90.5274 107.355 90.5222 107.476 90.5274 107.523C90.5379 107.633 90.6008 107.675 90.7057 107.659C90.8996 107.659 91.0464 107.717 91.2403 107.711C91.2561 107.722 91.3347 107.722 91.4291 107.711C93.3267 109.861 95.3082 111.931 97.3316 113.965C98.2542 114.903 99.1978 115.816 100.141 116.722V116.733ZM123.72 96.4567C118.447 98.2285 113.089 99.9322 107.941 102.087C105.693 103.046 103.481 104.115 101.331 105.284C101.263 105.326 101.19 105.358 101.116 105.389C101.331 104.965 101.504 104.482 101.614 103.911L101.525 103.858C101.027 104.299 100.618 104.776 100.194 105.19C100.183 105.174 100.173 105.179 100.173 105.211C100.115 105.263 100.063 105.321 100.005 105.373C98.2699 107.103 95.4497 108.015 93.0541 108.917C92.5771 108.513 92.1 108.11 91.6178 107.717C91.6597 107.717 91.6912 107.717 91.7069 107.717C91.6492 107.675 91.5444 107.591 91.4762 107.544L91.5024 107.523L91.4605 107.402C91.4658 107.318 91.4081 107.198 91.3504 107.077C92.7448 106.789 94.1182 106.406 95.2872 105.552C96.5243 104.587 96.8231 102.721 96.0735 101.369C95.5283 100.299 94.5848 99.6596 93.5049 99.5076C92.5666 97.5471 90.1448 96.6769 88.2157 97.8354L86.4491 98.7685C84.7821 99.7278 83.1938 101.049 81.7313 102.291C81.5373 102.464 81.2962 102.648 81.0446 102.826C80.6514 103.009 80.3421 103.224 80.1062 103.455C79.6816 103.497 79.3094 103.596 78.9163 103.654C77.8207 103.827 76.7094 104.011 75.8445 103.177C74.9323 102.349 73.9888 100.776 74.5864 99.5915C75.5719 98.6898 76.6046 97.9507 77.6372 97.112C80.8978 94.3127 82.743 91.178 87.5814 91.1308V91.026C84.8136 90.6905 82.0458 91.8437 80.0119 93.7047C78.0514 95.3402 75.8969 96.8866 74.6493 99.1826C74.5706 99.2507 74.5025 99.3241 74.4396 99.4028C74.4291 99.3818 74.4186 99.3608 74.4186 99.3608C72.5525 99.906 70.9536 98.5011 69.8528 97.1696C69.706 97.0071 69.7689 96.8551 69.7742 96.6402C68.8935 95.0938 70.7911 93.6732 71.6508 92.5409C72.867 91.2304 75.6453 87.7182 76.9925 86.6489C78.9477 85.1287 82.7849 85.092 83.1152 82.0201L83.0103 82.0149C82.4547 85.0343 78.7014 84.6779 76.657 86.1928C75.1473 87.3041 72.3166 90.5699 70.9536 91.9066C70.2879 92.5724 69.3967 93.4111 68.883 94.3494C68.6052 93.799 68.2435 93.2853 67.8084 92.845C67.279 92.1792 66.5084 91.7232 65.6382 91.8437C65.2293 90.7429 65.46 89.4953 65.9894 88.4679C66.068 88.3787 66.1362 88.2687 66.1886 88.19C66.2148 88.1481 66.3092 88.0537 66.241 88.0904C66.2358 88.0904 66.2096 88.1062 66.1886 88.1219C66.7495 87.2045 67.8241 86.0303 68.6681 85.1654L71.6299 82.0254C72.1174 81.5064 72.5996 81.0189 73.1763 80.7201C75.0005 79.808 77.2179 79.7713 79.1469 80.4161C79.8179 80.6258 80.5256 80.8879 81.3276 80.977C82.0458 81.0818 82.7377 80.8826 83.393 81.0504C84.2842 81.2653 85.0862 82.0621 85.7677 82.7278C86.6483 83.4932 87.0886 84.4053 88.2419 85.0029C88.8919 85.1968 89.3689 85.5795 89.7254 86.1876C90.0871 86.7799 90.454 87.4142 90.7109 88.0433C90.8419 88.3473 90.8891 88.73 91.1145 89.0812C91.3609 89.4114 91.7645 89.5792 92.142 89.5425V89.4376C91.5758 89.3904 91.3609 89.034 91.2403 88.5937C93.29 88.3001 95.2243 87.2465 97.0171 86.2452C98.9094 85.1654 100.776 84.0907 102.81 83.6819C104.241 82.1879 105.792 81.0399 107.842 82.2036C110.998 83.6085 114.211 84.8823 117.084 86.8323C121.576 89.7626 128.076 89.2227 131.51 93.7151C128.925 94.7216 126.341 95.6337 123.72 96.4777V96.4567ZM131.814 93.9301C128.658 89.0025 121.88 89.2856 117.435 86.2505C114.646 84.2428 111.338 82.8169 108.251 81.302C107.423 80.804 106.62 80.6258 105.855 80.6782C106.212 80.3165 106.563 79.9128 106.909 79.4935C110.725 78.6023 114.52 77.5382 118.399 77.1398C122.242 76.7047 126.231 77.0926 129.864 78.3979C131.62 79.1265 133.109 80.4528 134.54 81.6951C137.349 84.1694 139.876 87.4509 139.934 91.3405C139.97 93.1333 139.331 94.926 138.193 96.3991C137.491 96.1946 136.815 95.8749 136.217 95.4503C135.048 94.5539 133.381 92.6405 131.809 93.9301H131.814ZM145.988 92.022C145.275 93.3692 144.174 94.7845 142.937 95.7071C141.606 96.6559 139.918 96.8394 138.361 96.4358C139.714 95.1095 140.552 93.2643 140.668 91.3562C140.94 87.1731 138.309 83.4565 135.226 80.9036C133.659 79.635 132.097 78.335 130.173 77.6116C122.231 74.8857 114.714 77.1398 107.029 79.3467C107.522 78.7334 107.989 78.1148 108.377 77.6063L111.359 73.528C112.35 72.1808 113.409 70.8441 114.835 70.0211C116.995 68.8993 119.563 68.3279 121.974 67.8771C126.121 67.3634 130.204 69.0828 134.042 70.4405C138.749 72.3328 141.878 76.4636 144.73 80.5262C145.684 81.8734 146.56 83.2992 146.638 84.8037C146.685 85.5375 146.471 86.3134 146.339 87.2045C146.077 88.9187 146.811 90.486 145.999 92.0324L145.988 92.022Z" fill="url(#paint5_linear_0_633)"/>
<path d="M60.1607 70.1047C60.2865 69.722 60.3599 69.3184 60.3599 68.899C59.4845 66.5978 57.5083 64.2651 54.8505 65.5808C54.7038 65.6542 54.5675 65.7433 54.4312 65.8324C54.6776 65.3502 54.882 64.9465 54.882 64.9465C54.3683 65.5546 52.738 67.143 52.3763 67.8349C51.396 69.7011 52.7328 72.4217 54.3001 73.5487C56.9788 75.027 60.3599 72.9302 60.1555 70.0995L60.1607 70.1047ZM56.9998 66.0002C58.1792 66.4929 58.866 67.9083 59.3115 69.0511C59.1333 70.7652 57.5345 72.1753 55.7889 71.7193C54.4469 71.4414 53.8179 69.9055 53.5925 68.6264C53.5086 68.1599 53.4037 67.8244 53.6344 67.405C53.6344 67.405 53.8493 66.9804 54.1009 66.4877C54.9344 65.8796 56.051 65.6437 56.9998 65.9949V66.0002ZM55.4219 73.4753C53.7392 73.1189 52.586 70.5712 52.7328 69.0039C52.7432 68.9095 52.7747 68.8204 52.7957 68.726C53.0316 70.4087 53.7707 72.1806 55.532 72.6733C57.3982 73.2552 59.2067 72.191 59.9773 70.566C59.7256 72.5999 57.5712 74.0677 55.4219 73.4701V73.4753Z" fill="url(#paint6_linear_0_633)"/>
<path d="M56.227 70.7658C57.1287 71.5154 58.2557 70.6557 58.3553 69.6964C58.4654 68.8524 58.2505 68.2444 57.9831 67.5105C57.7105 66.7818 56.9242 66.4411 56.2637 66.6036C56.2795 66.5826 56.2952 66.5564 56.3057 66.5302C56.3266 66.483 56.3948 66.352 56.3057 66.3782C56.2323 66.4044 56.117 66.4673 55.9807 66.7084C55.9807 66.7084 55.9702 66.7084 55.9649 66.7137C55.9545 66.7084 55.944 66.7137 55.9335 66.7032C55.9125 66.5826 55.8706 66.4568 55.8234 66.3572C55.8024 66.3153 55.7657 66.179 55.7657 66.2576C55.7553 66.3363 55.771 66.4988 55.8024 66.6822C55.6032 66.7084 55.5351 67.0125 55.4827 67.1593C55.3883 67.4528 55.121 67.7097 54.9113 67.9403C54.5915 68.4069 54.6859 69.0674 55.0685 69.471C55.5508 69.8275 55.7343 70.3622 56.2218 70.7605L56.227 70.7658ZM55.8339 66.8185C55.8339 66.8185 55.8391 66.8605 55.8444 66.8814C55.8077 66.8972 55.7762 66.9181 55.7448 66.9443C55.7605 66.8867 55.7815 66.8395 55.8286 66.8238L55.8339 66.8185ZM55.4145 67.8774C55.5456 67.6992 55.6609 67.4581 55.7028 67.2274C55.7133 67.1907 55.7186 67.1435 55.7238 67.1016C55.7657 67.0597 55.8129 67.0072 55.8549 66.9391C55.8811 67.0754 55.9125 67.2064 55.9387 67.2956C55.9597 67.3689 55.944 67.2326 55.9492 67.1907L55.9649 66.8238C56.9662 67.0125 57.1549 67.5524 57.1916 68.4226C57.2335 68.9258 57.4484 69.5234 57.244 69.9847C56.7565 70.7238 56.1851 69.5287 55.7343 69.2561C55.425 69.0778 55.1367 68.7738 55.1786 68.3859C55.1681 68.2129 55.3306 68.0085 55.4198 67.8722L55.4145 67.8774Z" fill="url(#paint7_linear_0_633)"/>
</g>
<defs>
<linearGradient id="paint0_linear_0_633" x1="90.6558" y1="0.106445" x2="90.6558" y2="71.3204" gradientUnits="userSpaceOnUse">
<stop offset="0.235" stop-color="#E4BF86"/>
<stop offset="1" stop-color="#E4BF86" stop-opacity="0"/>
</linearGradient>
<linearGradient id="paint1_linear_0_633" x1="32.1678" y1="93.9985" x2="32.1678" y2="96.0062" gradientUnits="userSpaceOnUse">
<stop stop-color="#E4BF86"/>
<stop offset="1" stop-color="#E4BF86" stop-opacity="0.07"/>
</linearGradient>
<linearGradient id="paint2_linear_0_633" x1="36.4962" y1="90.5281" x2="36.4962" y2="92.2008" gradientUnits="userSpaceOnUse">
<stop stop-color="#E4BF86"/>
<stop offset="1" stop-color="#E4BF86" stop-opacity="0.07"/>
</linearGradient>
<linearGradient id="paint3_linear_0_633" x1="36.643" y1="80.6787" x2="36.643" y2="82.6497" gradientUnits="userSpaceOnUse">
<stop stop-color="#E4BF86"/>
<stop offset="1" stop-color="#E4BF86" stop-opacity="0.07"/>
</linearGradient>
<linearGradient id="paint4_linear_0_633" x1="45.97" y1="88.0645" x2="45.97" y2="90.6121" gradientUnits="userSpaceOnUse">
<stop stop-color="#E4BF86"/>
<stop offset="1" stop-color="#E4BF86" stop-opacity="0.07"/>
</linearGradient>
<linearGradient id="paint5_linear_0_633" x1="88.4407" y1="70.4198" x2="63.2789" y2="132.276" gradientUnits="userSpaceOnUse">
<stop stop-color="#E4BF86"/>
<stop offset="1" stop-color="#E4BF86" stop-opacity="0"/>
</linearGradient>
<linearGradient id="paint6_linear_0_633" x1="56.201" y1="64.9465" x2="56.201" y2="74.036" gradientUnits="userSpaceOnUse">
<stop stop-color="#E4BF86"/>
<stop offset="1" stop-color="#E4BF86" stop-opacity="0.07"/>
</linearGradient>
<linearGradient id="paint7_linear_0_633" x1="56.5514" y1="66.2336" x2="56.5514" y2="71.0508" gradientUnits="userSpaceOnUse">
<stop stop-color="#E4BF86"/>
<stop offset="1" stop-color="#E4BF86" stop-opacity="0.07"/>
</linearGradient>
</defs>
</svg>
