<svg width="17" height="18" viewBox="0 0 17 18" fill="none" xmlns="http://www.w3.org/2000/svg">
<path d="M15.6805 15.525L11.6845 11.529C13.8438 9.1959 13.7693 5.54744 11.5107 3.28885C10.3939 2.17201 8.87986 1.55151 7.29139 1.55151C5.70293 1.55151 4.21371 2.17201 3.07209 3.28885C0.738991 5.62195 0.738991 9.3945 3.07209 11.7027C4.18893 12.8196 5.70293 13.4401 7.29139 13.4401C8.8054 13.4401 10.22 12.894 11.3121 11.8764L15.2834 15.8476L15.6805 15.525ZM3.44438 11.3801C1.30988 9.24558 1.30988 5.79564 3.44438 3.66114C4.48681 2.61872 5.85189 2.04795 7.31621 2.04795C8.78053 2.04795 10.1457 2.61876 11.188 3.63641C13.3225 5.77091 13.3225 9.22085 11.188 11.3553C10.1456 12.3978 8.78053 12.9685 7.31621 12.9685C5.85189 12.9685 4.48676 12.3977 3.44438 11.3801Z" fill="white" stroke="white" stroke-width="1.75"/>
</svg>
