<?xml version="1.0" encoding="UTF-8" standalone="no"?>
<!DOCTYPE svg PUBLIC "-//W3C//DTD SVG 1.1//EN" "http://www.w3.org/Graphics/SVG/1.1/DTD/svg11.dtd">
<svg width="100%" height="100%" viewBox="0 0 24 24" version="1.1" xmlns="http://www.w3.org/2000/svg" xmlns:xlink="http://www.w3.org/1999/xlink" xml:space="preserve" xmlns:serif="http://www.serif.com/" style="fill-rule:evenodd;clip-rule:evenodd;stroke-linecap:round;stroke-linejoin:round;stroke-miterlimit:1.5;">
    <g transform="matrix(0.666224,0,0,0.666224,3.8908,3.32791)">
        <path d="M18.403,5.633C16.724,3.943 14.436,2.994 12.053,3C7.105,3 3.077,7.027 3.075,11.977C3.075,13.559 3.488,15.103 4.273,16.465L3,21.116L7.759,19.867C9.075,20.584 10.55,20.959 12.049,20.96L12.053,20.96C17,20.96 21.028,16.933 21.03,11.983C21.037,9.602 20.09,7.314 18.403,5.633M12.053,19.445L12.05,19.445C10.714,19.445 9.402,19.086 8.252,18.404L7.98,18.242L5.156,18.983L5.909,16.23L5.732,15.948C4.985,14.759 4.589,13.382 4.591,11.977C4.593,7.863 7.94,4.516 12.056,4.516C14.035,4.512 15.936,5.3 17.331,6.704C18.733,8.101 19.52,10.003 19.514,11.983C19.512,16.097 16.165,19.445 12.053,19.445M16.146,13.856C15.921,13.743 14.819,13.201 14.613,13.126C14.408,13.051 14.259,13.014 14.109,13.238C13.959,13.462 13.529,13.967 13.398,14.117C13.267,14.267 13.136,14.285 12.912,14.173C12.688,14.061 11.965,13.824 11.108,13.06C10.441,12.465 9.991,11.731 9.86,11.506C9.729,11.281 9.846,11.16 9.959,11.048C10.06,10.948 10.183,10.786 10.295,10.655C10.407,10.524 10.444,10.431 10.519,10.281C10.594,10.131 10.557,10 10.5,9.888C10.444,9.775 9.995,8.671 9.808,8.222C9.627,7.787 9.442,7.845 9.304,7.839C9.161,7.833 9.018,7.83 8.875,7.831C8.645,7.837 8.428,7.938 8.276,8.111C8.07,8.336 7.491,8.878 7.491,9.982C7.491,11.086 8.295,12.153 8.407,12.303C8.519,12.453 9.989,14.718 12.239,15.69C12.775,15.921 13.193,16.059 13.518,16.163C14.055,16.334 14.544,16.309 14.931,16.252C15.362,16.188 16.258,15.71 16.445,15.186C16.632,14.662 16.632,14.213 16.576,14.119C16.52,14.025 16.369,13.968 16.146,13.856" style="fill:#594E44;"/>
    </g>
    <g transform="matrix(0.906852,0,0,0.906852,0.924252,0.925862)">
        <circle cx="11.977" cy="11.994" r="11.852" style="fill:none;stroke:#594E44;stroke-width:1.1px;"/>
    </g>
</svg>