<svg id="afterpay" xmlns="http://www.w3.org/2000/svg" width="63.088" height="12.138" viewBox="0 0 63.088 12.138">
  <path id="Path_195" data-name="Path 195" d="M1273.44,311.312l-1.9-1.089-1.925-1.1a1.914,1.914,0,0,0-2.866,1.66v.248a.378.378,0,0,0,.19.328l.893.512a.372.372,0,0,0,.557-.322v-.587a.378.378,0,0,1,.567-.328l1.759,1.009,1.754,1.006a.378.378,0,0,1,0,.656l-1.754,1.006-1.759,1.009a.378.378,0,0,1-.567-.328V314.7a1.914,1.914,0,0,0-2.866-1.66l-1.925,1.1-1.9,1.089a1.914,1.914,0,0,0,0,3.32l1.9,1.089,1.925,1.1a1.914,1.914,0,0,0,2.866-1.66v-.249a.379.379,0,0,0-.19-.328l-.893-.512a.372.372,0,0,0-.557.322v.588a.378.378,0,0,1-.566.328l-1.759-1.009-1.754-1.006a.378.378,0,0,1,0-.656l1.754-1.006,1.759-1.009a.378.378,0,0,1,.566.328v.292a1.914,1.914,0,0,0,2.866,1.66l1.925-1.1,1.9-1.089A1.914,1.914,0,0,0,1273.44,311.312Z" transform="translate(-1211.313 -308.862)" fill="#e6ded2"/>
  <g id="Group_232" data-name="Group 232" transform="translate(42.413 2.813)">
    <path id="Path_196" data-name="Path 196" d="M1140.247,360.1l-4.451,9.187h-1.847l1.663-3.433L1133,360.1h1.895l1.68,3.853,1.835-3.853Z" transform="translate(-1132.997 -360.098)" fill="#e6ded2"/>
  </g>
  <g id="Group_234" data-name="Group 234" transform="translate(0 0.142)">
    <g id="Group_233" data-name="Group 233" transform="translate(0 0)">
      <path id="Path_197" data-name="Path 197" d="M365.769,361.338a1.777,1.777,0,1,0-1.775,1.866,1.782,1.782,0,0,0,1.775-1.866m.013,3.262v-.848a2.613,2.613,0,0,1-2.062.952,3.185,3.185,0,0,1-3.145-3.366,3.243,3.243,0,0,1,3.184-3.379,2.6,2.6,0,0,1,2.022.94v-.822h1.6V364.6Z" transform="translate(-360.576 -355.405)" fill="#e6ded2"/>
      <path id="Path_198" data-name="Path 198" d="M505.464,319.189c-.561,0-.718-.209-.718-.757v-2.9h1.031v-1.422h-1.031v-1.592H503.1v1.592h-2.118v-.649c0-.548.209-.757.783-.757h.361v-1.266h-.792c-1.357,0-2,.444-2,1.8v.871h-.913v1.422h.913v5.1h1.644v-5.1H503.1v3.2c0,1.331.509,1.9,1.84,1.9h.848v-1.448Z" transform="translate(-490.858 -311.442)" fill="#e6ded2"/>
      <path id="Path_199" data-name="Path 199" d="M648.2,360.751a1.563,1.563,0,0,0-1.618-1.357,1.615,1.615,0,0,0-1.644,1.357Zm-3.275,1.018a1.624,1.624,0,0,0,1.683,1.514,1.729,1.729,0,0,0,1.54-.848h1.683a3.405,3.405,0,0,1-6.615-1.083,3.373,3.373,0,1,1,6.746,0,2.168,2.168,0,0,1-.039.418Z" transform="translate(-627.695 -355.405)" fill="#e6ded2"/>
      <path id="Path_200" data-name="Path 200" d="M867.548,361.338a1.777,1.777,0,1,0-1.774,1.866,1.806,1.806,0,0,0,1.774-1.866m-5.167,5.925v-9.187h1.6v.848a2.584,2.584,0,0,1,2.062-.966,3.209,3.209,0,0,1,3.145,3.366,3.244,3.244,0,0,1-3.183,3.379,2.524,2.524,0,0,1-1.97-.874v3.433Z" transform="translate(-834.827 -355.405)" fill="#e6ded2"/>
      <path id="Path_201" data-name="Path 201" d="M1002.357,361.338a1.777,1.777,0,1,0-1.775,1.866,1.782,1.782,0,0,0,1.775-1.866m.013,3.262v-.848a2.612,2.612,0,0,1-2.062.952,3.185,3.185,0,0,1-3.144-3.366,3.243,3.243,0,0,1,3.184-3.379,2.6,2.6,0,0,1,2.022.94v-.822h1.6V364.6Z" transform="translate(-962.209 -355.405)" fill="#e6ded2"/>
      <path id="Path_202" data-name="Path 202" d="M782.089,358.717a1.71,1.71,0,0,1,2.114-.61v1.664a2.071,2.071,0,0,0-1.158-.3,1.147,1.147,0,0,0-.9,1.266V364.6h-1.657v-6.524h1.6Z" transform="translate(-757.427 -355.406)" fill="#e6ded2"/>
    </g>
  </g>
</svg>
