<?xml version="1.0" encoding="UTF-8"?>
<svg version="1.1" xmlns="http://www.w3.org/2000/svg" width="120" height="32">
<path d="M0 0 C3.73502533 0.18368977 6.40411319 0.68146862 9.8125 2.1875 C10.8025 3.6725 10.8025 3.6725 11.8125 5.1875 C12.4725 4.8575 13.1325 4.5275 13.8125 4.1875 C16.14418218 4.09034658 18.47879957 4.05771783 20.8125 4.0625 C22.6996875 4.05863281 22.6996875 4.05863281 24.625 4.0546875 C27.8125 4.1875 27.8125 4.1875 29.8125 5.1875 C30.4375 7.25 30.4375 7.25 30.8125 9.1875 C31.67875 7.95 31.67875 7.95 32.5625 6.6875 C33.305 5.8625 34.0475 5.0375 34.8125 4.1875 C36.1325 4.1875 37.4525 4.1875 38.8125 4.1875 C39.245625 3.5275 39.67875 2.8675 40.125 2.1875 C41.8125 0.1875 41.8125 0.1875 45.125 -0.1875 C48.70910196 0.17698495 51.52144423 0.73331257 54.8125 2.1875 C55.8025 3.6725 55.8025 3.6725 56.8125 5.1875 C57.4725 4.8575 58.1325 4.5275 58.8125 4.1875 C65.28308824 3.83455882 65.28308824 3.83455882 68.8125 6.1875 C69.8025 4.2075 70.7925 2.2275 71.8125 0.1875 C73.1325 0.1875 74.4525 0.1875 75.8125 0.1875 C75.42557499 7.32559938 74.35413018 13.50781307 71.8125 20.1875 C68.83327407 20.21433987 65.85428705 20.23426037 62.875 20.25 C61.59979492 20.26256836 61.59979492 20.26256836 60.29882812 20.27539062 C59.48994141 20.27861328 58.68105469 20.28183594 57.84765625 20.28515625 C57.0987915 20.29039307 56.34992676 20.29562988 55.57836914 20.30102539 C53.8125 20.1875 53.8125 20.1875 52.8125 19.1875 C52.77169217 17.18791636 52.76995644 15.18704746 52.8125 13.1875 C52.1525 13.5175 51.4925 13.8475 50.8125 14.1875 C48.4795134 14.22772391 46.14543334 14.23070247 43.8125 14.1875 C43.1525 16.1675 42.4925 18.1475 41.8125 20.1875 C40.1625 20.1875 38.5125 20.1875 36.8125 20.1875 C37.1425 16.8875 37.4725 13.5875 37.8125 10.1875 C37.24660156 11.11433594 36.68070313 12.04117187 36.09765625 12.99609375 C35.35684424 14.20577412 34.61595482 15.41540709 33.875 16.625 C33.50181641 17.23666016 33.12863281 17.84832031 32.74414062 18.47851562 C29.92578125 23.07421875 29.92578125 23.07421875 28.8125 24.1875 C27.14632885 24.22813832 25.47861905 24.230221 23.8125 24.1875 C23.9775 23.671875 24.1425 23.15625 24.3125 22.625 C24.96299 19.45386124 24.8745734 16.41531666 24.8125 13.1875 C23.8225 15.4975 22.8325 17.8075 21.8125 20.1875 C17.5225 20.1875 13.2325 20.1875 8.8125 20.1875 C8.4825 17.8775 8.1525 15.5675 7.8125 13.1875 C4.71834243 13.61406082 1.75369871 14.11748438 -1.1875 15.1875 C-2.86363187 17.65764472 -2.86363187 17.65764472 -3.1875 20.1875 C-4.8375 20.1875 -6.4875 20.1875 -8.1875 20.1875 C-6.99018671 0.41118745 -6.99018671 0.41118745 0 0 Z M0.8125 5.1875 C0.4825 6.8375 0.1525 8.4875 -0.1875 10.1875 C1.4625 9.5275 3.1125 8.8675 4.8125 8.1875 C4.4825 7.1975 4.1525 6.2075 3.8125 5.1875 C2.8225 5.1875 1.8325 5.1875 0.8125 5.1875 Z M45.8125 5.1875 C45.4825 6.5075 45.1525 7.8275 44.8125 9.1875 C45.8025 9.6825 45.8025 9.6825 46.8125 10.1875 C47.8025 9.5275 48.7925 8.8675 49.8125 8.1875 C49.4825 7.1975 49.1525 6.2075 48.8125 5.1875 C47.8225 5.1875 46.8325 5.1875 45.8125 5.1875 Z M9.8125 9.1875 C9.8125 9.8475 9.8125 10.5075 9.8125 11.1875 C14.2675 10.6925 14.2675 10.6925 18.8125 10.1875 C18.8125 9.8575 18.8125 9.5275 18.8125 9.1875 C15.8425 9.1875 12.8725 9.1875 9.8125 9.1875 Z M55.8125 9.1875 C55.4825 9.8475 55.1525 10.5075 54.8125 11.1875 C57.4525 10.8575 60.0925 10.5275 62.8125 10.1875 C62.8125 9.8575 62.8125 9.5275 62.8125 9.1875 C60.5025 9.1875 58.1925 9.1875 55.8125 9.1875 Z M16.8125 13.1875 C15.8225 13.5175 14.8325 13.8475 13.8125 14.1875 C13.8125 14.8475 13.8125 15.5075 13.8125 16.1875 C15.1325 15.8575 16.4525 15.5275 17.8125 15.1875 C17.4825 14.5275 17.1525 13.8675 16.8125 13.1875 Z M58.8125 14.1875 C58.8125 14.8475 58.8125 15.5075 58.8125 16.1875 C59.8025 16.1875 60.7925 16.1875 61.8125 16.1875 C61.8125 15.5275 61.8125 14.8675 61.8125 14.1875 C60.8225 14.1875 59.8325 14.1875 58.8125 14.1875 Z " fill="#E6DED2" transform="translate(44.1875,3.8125)"/>
<path d="M0 0 C2.64453125 -0.36328125 2.64453125 -0.36328125 5.8125 -0.3125 C6.85019531 -0.30863281 7.88789063 -0.30476562 8.95703125 -0.30078125 C12.0600396 0.00593459 14.24135726 0.56049881 17 2 C19 5 19 5 19 9 C19.99 9.33 20.98 9.66 22 10 C22.29254918 14.97333608 22.16504232 18.0436971 19 22 C16.00651705 24.09543806 13.59951941 24.1999733 10 24 C9.67 26.64 9.34 29.28 9 32 C6.69 32 4.38 32 2 32 C2 31.01 2 30.02 2 29 C-0.31 29 -2.62 29 -5 29 C-3.52527076 5.28790614 -3.52527076 5.28790614 0 0 Z " fill="#E6DED2" transform="translate(5,0)"/>
</svg>
